# Blender 4.5.4 LTS
# www.blender.org
mtllib dragon_god_sword.mtl
o blade
v -0.005151 0.015080 -1.809856
v -0.007435 0.004658 -0.073221
v -0.008630 0.026781 -0.073063
v -0.007437 -0.000615 -0.073253
v 0.000713 -0.034462 -0.073446
v 0.000455 -0.034822 -0.026950
v -0.007512 -0.000891 -0.026695
v 0.000958 0.027092 -1.897501
v 0.002886 -0.010755 -1.837505
v 0.003286 -0.019134 -1.810045
v 0.001871 0.009418 -1.876113
v 0.002288 0.001208 -1.862433
v -0.006265 0.037501 -1.859769
v 0.000378 0.038144 -1.906086
v -0.009794 0.027697 -0.026528
v -0.009719 0.027973 -0.073058
v 0.000618 -0.032699 -0.073429
v -0.002612 0.027107 -0.073052
v 0.007987 0.015789 -1.809831
v 0.003406 0.027431 -0.073040
v 0.004602 0.005308 -0.073198
v 0.006857 0.038155 -1.850241
v 0.005171 0.000067 -0.073228
v 0.005097 -0.000210 -0.026670
v 0.006873 0.038211 -1.859744
v 0.004361 0.028733 -0.073030
v 0.004286 0.028457 -0.026501
v 0.001458 0.022454 -0.166314
v 0.001458 0.022454 -0.168499
v 0.001458 0.016512 -0.168499
v 0.001458 0.017024 -0.175698
v 0.001458 0.018918 -0.182648
v 0.001458 0.023314 -0.187989
v 0.001458 0.022881 -0.188535
v 0.001458 0.022483 -0.189177
v 0.001458 0.022180 -0.189800
v 0.001458 0.017553 -0.183945
v 0.001458 0.015490 -0.176385
v 0.001458 0.014889 -0.168499
v 0.001458 0.007990 -0.168499
v 0.001458 0.008285 -0.178455
v 0.001458 0.008698 -0.184252
v 0.001458 0.009280 -0.186695
v 0.001458 0.009526 -0.187001
v 0.001458 0.009815 -0.187147
v 0.001458 0.010179 -0.187184
v 0.001458 0.010948 -0.187176
v 0.001458 0.012094 -0.187124
v 0.001458 0.013463 -0.186983
v 0.001458 0.013204 -0.187733
v 0.001458 0.013024 -0.188560
v 0.001458 0.012935 -0.189311
v 0.001458 0.011682 -0.189415
v 0.001458 0.010526 -0.189437
v 0.001458 0.009612 -0.189369
v 0.001458 0.008931 -0.189185
v 0.001458 0.008371 -0.188785
v 0.001458 0.007872 -0.188046
v 0.001458 0.007176 -0.185186
v 0.001458 0.006744 -0.178794
v 0.001458 0.006426 -0.167579
v 0.001458 0.006412 -0.167098
v 0.001458 0.006407 -0.166565
v 0.001458 0.006406 -0.166314
v 0.001458 0.023118 -0.133687
v 0.001458 0.023118 -0.135671
v 0.001458 0.018154 -0.135671
v 0.001458 0.019629 -0.139164
v 0.001458 0.021487 -0.142248
v 0.001458 0.023509 -0.144611
v 0.001458 0.023273 -0.145199
v 0.001458 0.023036 -0.145986
v 0.001458 0.022864 -0.146709
v 0.001458 0.022053 -0.145781
v 0.001458 0.021232 -0.144725
v 0.001458 0.020421 -0.143547
v 0.001458 0.020421 -0.155161
v 0.001458 0.019072 -0.155161
v 0.001458 0.019072 -0.142713
v 0.001458 0.018311 -0.144024
v 0.001458 0.017598 -0.145322
v 0.001458 0.017059 -0.146364
v 0.001458 0.016179 -0.144582
v 0.001458 0.016845 -0.143530
v 0.001458 0.017840 -0.142031
v 0.001458 0.018779 -0.140672
v 0.001458 0.017866 -0.138704
v 0.001458 0.017066 -0.136614
v 0.001458 0.016414 -0.134435
v 0.001458 0.017157 -0.133601
v 0.001458 0.017411 -0.133687
v 0.001458 0.021086 -0.129720
v 0.001458 0.020412 -0.130999
v 0.001458 0.019791 -0.132341
v 0.001458 0.019326 -0.133543
v 0.001458 0.018134 -0.132394
v 0.001458 0.018618 -0.131269
v 0.001458 0.019259 -0.129992
v 0.001458 0.019952 -0.128772
v 0.001458 0.014420 -0.141161
v 0.001458 0.011684 -0.141161
v 0.001458 0.011684 -0.145243
v 0.001458 0.014420 -0.145243
v 0.001458 0.014420 -0.139235
v 0.001458 0.014420 -0.135239
v 0.001458 0.011684 -0.135239
v 0.001458 0.011684 -0.139235
v 0.001458 0.007462 -0.141161
v 0.001458 0.007462 -0.145243
v 0.001458 0.010257 -0.145243
v 0.001458 0.010257 -0.141161
v 0.001458 0.007462 -0.139235
v 0.001458 0.010257 -0.139235
v 0.001458 0.010257 -0.135239
v 0.001458 0.007462 -0.135239
v 0.001458 0.011684 -0.128743
v 0.001458 0.011684 -0.133285
v 0.001458 0.015769 -0.133285
v 0.001458 0.015769 -0.148549
v 0.001458 0.014420 -0.148549
v 0.001458 0.014420 -0.147198
v 0.001458 0.011684 -0.147198
v 0.001458 0.011684 -0.155161
v 0.001458 0.010257 -0.155161
v 0.001458 0.010257 -0.147198
v 0.001458 0.007462 -0.147198
v 0.001458 0.007462 -0.148348
v 0.001458 0.006055 -0.148348
v 0.001458 0.006055 -0.133285
v 0.001458 0.010257 -0.133285
v 0.001458 0.010257 -0.128743
v 0.001458 0.013326 -0.105918
v 0.001458 0.013326 -0.117561
v 0.001458 0.013116 -0.119401
v 0.001458 0.012376 -0.120290
v 0.001458 0.010941 -0.120521
v 0.001458 0.009908 -0.120521
v 0.005737 0.008345 -0.120521
v 0.001458 0.007325 -0.120521
v 0.001458 0.006153 -0.120223
v 0.001458 0.005520 -0.119171
v 0.001458 0.005234 -0.117129
v 0.001458 0.005681 -0.116941
v 0.001458 0.006141 -0.116676
v 0.001458 0.006524 -0.116353
v 0.001458 0.006639 -0.117833
v 0.001458 0.006903 -0.118534
v 0.001458 0.007423 -0.118710
v 0.001458 0.008459 -0.118710
v 0.001458 0.009852 -0.118710
v 0.001458 0.010785 -0.118710
v 0.001458 0.011499 -0.118623
v 0.001458 0.011823 -0.118280
v 0.001458 0.011899 -0.117561
v 0.001458 0.011899 -0.116324
v 0.001458 0.006289 -0.116324
v 0.001458 0.006289 -0.114916
v 0.001458 0.011899 -0.114916
v 0.001458 0.011899 -0.113076
v 0.001458 0.006485 -0.113076
v 0.001458 0.006485 -0.111639
v 0.001458 0.011899 -0.111639
v 0.001458 0.011899 -0.109885
v 0.001458 0.006387 -0.109885
v 0.001458 0.006387 -0.108448
v 0.001458 0.011899 -0.108448
v 0.001458 0.011899 -0.106666
v 0.001458 0.006367 -0.106666
v 0.001458 0.006367 -0.100658
v 0.001458 0.011899 -0.100658
v 0.001458 0.011899 -0.098329
v 0.001458 0.005605 -0.098329
v 0.001458 0.005605 -0.096518
v 0.001458 0.011899 -0.096518
v 0.001458 0.011899 -0.094247
v 0.001458 0.013326 -0.094247
v 0.001458 0.013326 -0.102383
v 0.001458 0.007794 -0.102383
v 0.001458 0.007794 -0.104970
v 0.001458 0.013326 -0.104970
v 0.001458 0.019815 -0.094592
v 0.001458 0.019622 -0.095273
v 0.001458 0.019441 -0.096010
v 0.001458 0.019287 -0.096748
v 0.001458 0.022962 -0.096748
v 0.001458 0.022962 -0.098617
v 0.001458 0.014655 -0.098617
v 0.001458 0.014655 -0.096748
v 0.001458 0.017880 -0.096748
v 0.001458 0.018070 -0.095884
v 0.001458 0.018309 -0.094968
v 0.001458 0.018564 -0.094104
v 0.001458 0.017059 -0.098876
v 0.001458 0.017321 -0.100061
v 0.001458 0.017670 -0.101360
v 0.001458 0.018036 -0.102584
v 0.001458 0.020167 -0.102584
v 0.001458 0.019717 -0.102411
v 0.001458 0.019893 -0.101316
v 0.001458 0.020160 -0.100067
v 0.001458 0.020480 -0.098876
v 0.001458 0.021672 -0.099278
v 0.001458 0.021404 -0.100384
v 0.001458 0.021171 -0.101535
v 0.001458 0.021007 -0.102584
v 0.001458 0.023314 -0.102584
v 0.001458 0.023314 -0.104452
v 0.001458 0.014303 -0.104452
v 0.001458 0.014303 -0.102584
v 0.001458 0.016727 -0.102584
v 0.001458 0.016390 -0.101550
v 0.001458 0.016053 -0.100446
v 0.001458 0.015730 -0.099335
v 0.001458 0.020851 -0.111351
v 0.001458 0.016649 -0.111351
v 0.001458 0.016649 -0.113450
v 0.001458 0.020851 -0.113450
v 0.001458 0.020851 -0.109828
v 0.001458 0.020851 -0.107787
v 0.001458 0.016649 -0.107787
v 0.001458 0.016649 -0.109828
v 0.001458 0.022239 -0.106148
v 0.001458 0.022239 -0.120694
v 0.001458 0.020851 -0.120694
v 0.001458 0.020851 -0.114973
v 0.001458 0.016649 -0.114973
v 0.001458 0.016649 -0.118107
v 0.001458 0.016678 -0.118353
v 0.001458 0.016776 -0.118484
v 0.001458 0.016961 -0.118538
v 0.001458 0.017344 -0.118557
v 0.001458 0.017966 -0.118557
v 0.001458 0.018740 -0.118538
v 0.001458 0.018552 -0.119160
v 0.001458 0.018374 -0.119852
v 0.001458 0.018251 -0.120493
v 0.001458 0.017254 -0.120472
v 0.001458 0.016453 -0.120369
v 0.001458 0.015847 -0.120119
v 0.001458 0.015463 -0.119689
v 0.001458 0.015261 -0.119054
v 0.001458 0.015202 -0.118164
v 0.001458 0.015202 -0.106148
v 0.005737 0.022454 -0.166314
v 0.005737 0.022454 -0.168499
v 0.005737 0.016512 -0.168499
v 0.005737 0.017024 -0.175698
v 0.005737 0.018918 -0.182648
v 0.005737 0.023314 -0.187989
v 0.005737 0.022881 -0.188535
v 0.005737 0.022483 -0.189177
v 0.005737 0.022180 -0.189800
v 0.005737 0.017553 -0.183945
v 0.005737 0.015490 -0.176385
v 0.005737 0.014889 -0.168499
v 0.005737 0.007990 -0.168499
v 0.005737 0.008285 -0.178455
v 0.005737 0.008698 -0.184252
v 0.005737 0.009280 -0.186695
v 0.005737 0.009526 -0.187001
v 0.005737 0.009815 -0.187147
v 0.005737 0.010179 -0.187184
v 0.005737 0.010948 -0.187176
v 0.005737 0.012094 -0.187124
v 0.005737 0.013463 -0.186983
v 0.005737 0.013204 -0.187733
v 0.005737 0.013024 -0.188560
v 0.005737 0.012935 -0.189311
v 0.005737 0.011682 -0.189415
v 0.005737 0.010526 -0.189437
v 0.005737 0.009612 -0.189369
v 0.005737 0.008931 -0.189185
v 0.005737 0.008371 -0.188785
v 0.005737 0.007872 -0.188046
v 0.005737 0.007176 -0.185186
v 0.005737 0.006744 -0.178794
v 0.005737 0.006426 -0.167579
v 0.005737 0.006412 -0.167098
v 0.005737 0.006407 -0.166565
v 0.005737 0.006406 -0.166314
v 0.005737 0.023118 -0.133687
v 0.005737 0.023118 -0.135671
v 0.005737 0.018154 -0.135671
v 0.005737 0.019629 -0.139164
v 0.005737 0.021487 -0.142248
v 0.005737 0.023509 -0.144611
v 0.005737 0.023273 -0.145199
v 0.005737 0.023036 -0.145986
v 0.005737 0.022864 -0.146709
v 0.005737 0.022053 -0.145781
v 0.005737 0.021232 -0.144725
v 0.005737 0.020421 -0.143547
v 0.005737 0.020421 -0.155161
v 0.005737 0.019072 -0.155161
v 0.005737 0.019072 -0.142713
v 0.005737 0.018311 -0.144024
v 0.005737 0.017598 -0.145322
v 0.005737 0.017059 -0.146364
v 0.005737 0.016179 -0.144582
v 0.005737 0.016845 -0.143530
v 0.005737 0.017840 -0.142031
v 0.005737 0.018779 -0.140672
v 0.005737 0.017866 -0.138704
v 0.005737 0.017066 -0.136614
v 0.005737 0.016414 -0.134435
v 0.005737 0.017157 -0.133601
v 0.005737 0.017411 -0.133687
v 0.005737 0.021086 -0.129720
v 0.005737 0.020412 -0.130999
v 0.005737 0.019791 -0.132341
v 0.005737 0.019326 -0.133543
v 0.005737 0.018134 -0.132394
v 0.005737 0.018618 -0.131269
v 0.005737 0.019259 -0.129992
v 0.005737 0.019952 -0.128772
v 0.005737 0.014420 -0.141161
v 0.005737 0.011684 -0.141161
v 0.005737 0.011684 -0.145243
v 0.005737 0.014420 -0.145243
v 0.005737 0.014420 -0.139235
v 0.005737 0.014420 -0.135239
v 0.005737 0.011684 -0.135239
v 0.005737 0.011684 -0.139235
v 0.005737 0.007462 -0.141161
v 0.005737 0.007462 -0.145243
v 0.005737 0.010257 -0.145243
v 0.005737 0.010257 -0.141161
v 0.005737 0.007462 -0.139235
v 0.005737 0.010257 -0.139235
v 0.005737 0.010257 -0.135239
v 0.005737 0.007462 -0.135239
v 0.005737 0.011684 -0.128743
v 0.005737 0.011684 -0.133285
v 0.005737 0.015769 -0.133285
v 0.005737 0.015769 -0.148549
v 0.005737 0.014420 -0.148549
v 0.005737 0.014420 -0.147198
v 0.005737 0.011684 -0.147198
v 0.005737 0.011684 -0.155161
v 0.005737 0.010257 -0.155161
v 0.005737 0.010257 -0.147198
v 0.005737 0.007462 -0.147198
v 0.005737 0.007462 -0.148348
v 0.005737 0.006055 -0.148348
v 0.005737 0.006055 -0.133285
v 0.005737 0.010257 -0.133285
v 0.005737 0.010257 -0.128743
v 0.005737 0.013326 -0.105918
v 0.005737 0.013326 -0.117561
v 0.005737 0.013116 -0.119401
v 0.005737 0.012376 -0.120290
v 0.005737 0.010941 -0.120521
v 0.005737 0.009908 -0.120521
v 0.001458 0.008345 -0.120521
v 0.005737 0.007325 -0.120521
v 0.005737 0.006153 -0.120223
v 0.005737 0.005520 -0.119171
v 0.005737 0.005234 -0.117129
v 0.005737 0.005681 -0.116941
v 0.005737 0.006141 -0.116676
v 0.005737 0.006524 -0.116353
v 0.005737 0.006639 -0.117833
v 0.005737 0.006903 -0.118534
v 0.005737 0.007423 -0.118710
v 0.005737 0.008459 -0.118710
v 0.005737 0.009852 -0.118710
v 0.005737 0.010785 -0.118710
v 0.005737 0.011499 -0.118623
v 0.005737 0.011823 -0.118280
v 0.005737 0.011899 -0.117561
v 0.005737 0.011899 -0.116324
v 0.005737 0.006289 -0.116324
v 0.005737 0.006289 -0.114916
v 0.005737 0.011899 -0.114916
v 0.005737 0.011899 -0.113076
v 0.005737 0.006485 -0.113076
v 0.005737 0.006485 -0.111639
v 0.005737 0.011899 -0.111639
v 0.005737 0.011899 -0.109885
v 0.005737 0.006387 -0.109885
v 0.005737 0.006387 -0.108448
v 0.005737 0.011899 -0.108448
v 0.005737 0.011899 -0.106666
v 0.005737 0.006367 -0.106666
v 0.005737 0.006367 -0.100658
v 0.005737 0.011899 -0.100658
v 0.005737 0.011899 -0.098329
v 0.005737 0.005605 -0.098329
v 0.005737 0.005605 -0.096518
v 0.005737 0.011899 -0.096518
v 0.005737 0.011899 -0.094247
v 0.005737 0.013326 -0.094247
v 0.005737 0.013326 -0.102383
v 0.005737 0.007794 -0.102383
v 0.005737 0.007794 -0.104970
v 0.005737 0.013326 -0.104970
v 0.005737 0.019815 -0.094592
v 0.005737 0.019622 -0.095273
v 0.005737 0.019441 -0.096010
v 0.005737 0.019287 -0.096748
v 0.005737 0.022962 -0.096748
v 0.005737 0.022962 -0.098617
v 0.005737 0.014655 -0.098617
v 0.005737 0.014655 -0.096748
v 0.005737 0.017880 -0.096748
v 0.005737 0.018070 -0.095884
v 0.005737 0.018309 -0.094968
v 0.005737 0.018564 -0.094104
v 0.005737 0.017059 -0.098876
v 0.005737 0.017321 -0.100061
v 0.005737 0.017670 -0.101360
v 0.005737 0.018036 -0.102584
v 0.005737 0.020167 -0.102584
v 0.005737 0.019717 -0.102411
v 0.005737 0.019893 -0.101316
v 0.005737 0.020160 -0.100067
v 0.005737 0.020480 -0.098876
v 0.005737 0.021672 -0.099278
v 0.005737 0.021404 -0.100384
v 0.005737 0.021171 -0.101535
v 0.005737 0.021007 -0.102584
v 0.005737 0.023314 -0.102584
v 0.005737 0.023314 -0.104452
v 0.005737 0.014303 -0.104452
v 0.005737 0.014303 -0.102584
v 0.005737 0.016727 -0.102584
v 0.005737 0.016390 -0.101550
v 0.005737 0.016053 -0.100446
v 0.005737 0.015730 -0.099335
v 0.005737 0.020851 -0.111351
v 0.005737 0.016649 -0.111351
v 0.005737 0.016649 -0.113450
v 0.005737 0.020851 -0.113450
v 0.005737 0.020851 -0.109828
v 0.005737 0.020851 -0.107787
v 0.005737 0.016649 -0.107787
v 0.005737 0.016649 -0.109828
v 0.005737 0.022239 -0.106148
v 0.005737 0.022239 -0.120694
v 0.005737 0.020851 -0.120694
v 0.005737 0.020851 -0.114973
v 0.005737 0.016649 -0.114973
v 0.005737 0.016649 -0.118107
v 0.005737 0.016678 -0.118353
v 0.005737 0.016776 -0.118484
v 0.005737 0.016961 -0.118538
v 0.005737 0.017344 -0.118557
v 0.005737 0.017966 -0.118557
v 0.005737 0.018740 -0.118538
v 0.005737 0.018552 -0.119160
v 0.005737 0.018374 -0.119852
v 0.005737 0.018251 -0.120493
v 0.005737 0.017254 -0.120472
v 0.005737 0.016453 -0.120369
v 0.005737 0.015847 -0.120119
v 0.005737 0.015463 -0.119689
v 0.005737 0.015261 -0.119054
v 0.005737 0.015202 -0.118164
v 0.005737 0.015202 -0.106148
v 0.016175 -0.034583 -0.014930
v 0.015756 -0.037451 0.467570
v 0.014239 -0.042377 -0.016214
v 0.012901 0.027142 -0.015851
v 0.014758 -0.041338 0.467543
v 0.009664 -0.045225 0.467516
v 0.012421 0.024296 0.467961
v 0.011011 0.028053 0.467982
v -0.016593 -0.039197 0.467501
v 0.005643 0.031810 0.468004
v -0.013507 0.030323 0.467946
v -0.019928 0.022549 0.467893
v -0.019421 0.025379 -0.016945
v -0.018931 0.026436 0.467920
v -0.017423 0.033151 -0.016992
v 0.010085 0.034653 -0.016011
v -0.016086 -0.036367 -0.017355
v -0.013279 -0.043873 -0.016861
v -0.009490 -0.046711 0.467458
v -0.015183 -0.042954 0.467479
v -0.001110 0.056239 -0.026309
v -0.012466 0.055091 -0.026489
v -0.001256 0.056164 -0.016791
v 0.010244 0.055075 -0.026141
v 0.010098 0.054999 -0.016622
v 0.021160 0.051644 -0.025990
v -0.023386 0.051675 -0.026673
v -0.033452 0.046121 -0.026853
v -0.023532 0.051599 -0.017154
v -0.012612 0.055015 -0.016970
v 0.021014 0.051568 -0.016471
v 0.031073 0.046001 -0.016343
v 0.031219 0.046077 -0.025862
v 0.040034 0.038589 -0.025762
v 0.047267 0.029466 -0.025694
v 0.039889 0.038513 -0.016243
v -0.042277 0.038645 -0.027024
v -0.049520 0.029532 -0.027178
v -0.042423 0.038569 -0.017505
v -0.033598 0.046045 -0.017335
v -0.049666 0.029456 -0.017660
v -0.055051 0.019057 -0.017791
v 0.052494 0.018984 -0.016143
v 0.047121 0.029390 -0.016176
v -0.054905 0.019133 -0.027310
v -0.058224 0.007848 -0.027414
v 0.052640 0.019060 -0.025661
v 0.055945 0.007771 -0.025664
v 0.057056 -0.003969 -0.025703
v 0.055799 0.007695 -0.016146
v 0.056910 -0.004044 -0.016184
v -0.058370 0.007773 -0.017896
v -0.059495 -0.003965 -0.017969
v -0.058384 -0.015704 -0.018007
v -0.059350 -0.003889 -0.027487
v -0.058238 -0.015628 -0.027526
v -0.054933 -0.026918 -0.027528
v 0.055931 -0.015706 -0.025775
v 0.052612 -0.026991 -0.025880
v 0.055785 -0.015782 -0.016257
v 0.052466 -0.027067 -0.016361
v 0.047081 -0.037466 -0.016493
v -0.055079 -0.026993 -0.018010
v 0.047227 -0.037390 -0.026012
v 0.039983 -0.046502 -0.026166
v -0.049561 -0.037324 -0.027496
v -0.042328 -0.046446 -0.027428
v -0.049707 -0.037400 -0.017977
v -0.042474 -0.046522 -0.017909
v -0.033659 -0.054011 -0.017810
v 0.039837 -0.046578 -0.016647
v -0.033513 -0.053935 -0.027328
v -0.023453 -0.059502 -0.027200
v 0.031159 -0.053979 -0.026337
v 0.021093 -0.059532 -0.026517
v 0.031013 -0.054055 -0.016818
v 0.020947 -0.059608 -0.016999
v -0.012614 -0.063005 -0.017298
v -0.023599 -0.059578 -0.017682
v -0.001259 -0.064173 -0.017356
v -0.012537 -0.062933 -0.027049
v 0.010027 -0.063024 -0.017183
v 0.010173 -0.062949 -0.026701
v -0.001183 -0.064097 -0.026881
vn -0.0533 0.9985 0.0156
vn -0.0545 0.9985 -0.0040
vn -0.0637 0.9979 0.0064
vn -0.0636 0.9979 0.0079
vn -0.0443 0.9990 0.0041
vn -0.9738 -0.2205 -0.0555
vn -0.9738 -0.2204 -0.0554
vn -0.9694 -0.2414 0.0449
vn -0.9574 -0.2776 -0.0793
vn -0.9819 -0.1243 -0.1432
vn -0.9517 -0.2821 -0.1210
vn 0.9865 -0.0176 -0.1630
vn 0.9855 -0.1318 -0.1071
vn 0.9851 -0.0224 -0.1707
vn -0.9975 -0.0685 -0.0197
vn -0.9958 -0.0906 0.0155
vn -0.9710 -0.2348 0.0449
vn -0.9710 -0.2347 0.0450
vn -0.9756 -0.2136 -0.0517
vn -0.9989 -0.0457 0.0123
vn -0.9978 -0.0650 0.0103
vn -0.9983 -0.0563 -0.0179
vn 0.9923 -0.1198 0.0312
vn 0.9897 -0.1410 -0.0256
vn 0.9978 0.0648 -0.0096
vn 0.9989 0.0457 -0.0119
vn 0.9991 0.0421 -0.0091
vn 0.9998 0.0172 0.0080
vn 0.9992 0.0392 -0.0045
vn 0.9938 -0.1077 0.0269
vn 0.9938 -0.1077 0.0270
vn 0.9913 -0.1289 -0.0257
vn 0.0094 0.0062 -0.9999
vn -0.0006 0.0142 -0.9999
vn -0.0004 0.0138 -0.9999
vn -0.0137 0.0078 -0.9999
vn 0.0096 0.0079 -0.9999
vn -0.0011 0.0068 -1.0000
vn -0.0441 0.9990 0.0069
vn -0.0636 0.9980 0.0052
vn -0.9694 -0.2415 0.0449
vn -0.9589 -0.2783 -0.0554
vn -0.9631 -0.2686 -0.0165
vn -0.9662 -0.2327 -0.1110
vn -0.9698 -0.2438 -0.0068
vn -0.9617 -0.2348 -0.1415
vn 0.9937 -0.1108 -0.0177
vn 0.9842 -0.1253 -0.1252
vn 0.9837 -0.1545 -0.0923
vn 0.9859 -0.0954 -0.1373
vn 0.9865 -0.0732 -0.1463
vn -0.9958 -0.0906 0.0156
vn -0.9756 -0.2135 -0.0517
vn -0.9990 -0.0428 -0.0136
vn 0.9897 -0.1409 -0.0256
vn 0.9990 0.0429 0.0142
vn 0.9983 0.0562 0.0180
vn 0.9992 0.0393 -0.0045
vn 0.9913 -0.1289 -0.0256
vn -0.0104 0.0039 -0.9999
vn 0.0017 0.0054 -1.0000
vn 0.0097 0.0079 -0.9999
vn 0.0036 -0.0012 -1.0000
vn 0.0042 -0.0008 -1.0000
vn -0.0534 0.9984 0.0158
vn -0.0533 0.9985 0.0157
vn -0.0544 0.9985 -0.0038
vn -1.0000 -0.0000 -0.0000
vn -0.0000 -0.0000 -0.0000
vn -0.0000 -0.0000 -1.0000
vn 1.0000 -0.0000 -0.0000
vn -0.0000 1.0000 -0.0000
vn -0.0000 -0.0000 1.0000
vn -0.0000 -1.0000 -0.0029
vn -0.0000 -1.0000 -0.0095
vn -0.0000 -0.9996 -0.0286
vn -0.0000 -0.9996 -0.0284
vn -0.0000 0.9975 0.0710
vn -0.0000 -0.9971 -0.0759
vn -0.0000 0.9996 0.0297
vn -0.0000 0.9648 0.2629
vn -0.0000 -0.9647 -0.2634
vn -0.0000 -0.9977 -0.0673
vn -0.0000 0.7721 0.6355
vn -0.0000 0.7837 -0.6212
vn -0.0000 0.8498 -0.5271
vn -0.0000 0.8995 -0.4370
vn -0.0000 -0.7846 -0.6200
vn -0.0000 0.9728 0.2317
vn -0.0000 -0.9716 -0.2366
vn -0.0000 0.7788 0.6273
vn -0.0000 0.9455 -0.3256
vn -0.0000 -0.1029 0.9947
vn -0.0000 0.4498 0.8931
vn -0.0000 -0.0454 0.9990
vn -0.0000 0.1020 0.9948
vn -0.0000 -0.0097 1.0000
vn -0.0000 0.9771 -0.2129
vn -0.0000 -0.8288 -0.5595
vn -0.0000 0.9930 -0.1178
vn -0.0000 -0.5818 -0.8133
vn -0.0000 -0.2596 -0.9657
vn -0.0000 0.0830 -0.9965
vn -0.0000 0.0184 -0.9998
vn -0.0000 -0.0744 -0.9972
vn -0.0000 0.6417 0.7669
vn -0.0000 -0.8696 0.4938
vn -0.0000 0.8848 -0.4659
vn -0.0000 -0.8939 0.4483
vn -0.0000 0.9076 -0.4199
vn -0.0000 -0.9184 0.3956
vn -0.0000 0.9327 -0.3606
vn -0.0000 -0.6942 -0.7198
vn -0.0000 -1.0000 -0.0000
vn -0.0000 0.3214 0.9469
vn -0.0000 -0.7466 0.6652
vn -0.0000 -0.9580 -0.2867
vn -0.0000 0.9212 0.3891
vn -0.0000 -0.9339 -0.3575
vn -0.0000 -0.9072 -0.4207
vn -0.0000 0.8566 0.5159
vn -0.0000 -0.8226 0.5686
vn -0.0000 -0.8331 0.5532
vn -0.0000 0.7596 0.6504
vn -0.0000 0.8648 -0.5021
vn -0.0000 -0.8451 0.5345
vn -0.0000 -0.8234 -0.5675
vn -0.0000 0.8764 -0.4815
vn -0.0000 0.8881 -0.4596
vn -0.0000 -0.8967 -0.4426
vn -0.0000 0.9278 -0.3730
vn -0.0000 -0.7898 -0.6134
vn -0.0000 0.9576 -0.2881
vn -0.0000 0.9730 -0.2309
vn -0.0000 -0.7529 -0.6581
vn -0.0000 0.3639 0.9314
vn -0.0000 -0.9590 0.2835
vn -0.0000 0.9619 -0.2733
vn -0.0000 -0.9678 0.2517
vn -0.0000 0.9714 -0.2373
vn -0.0000 -0.9766 0.2151
vn -0.0000 0.9789 -0.2046
vn -0.0000 0.3198 0.9475
vn -0.0000 -0.9659 0.2588
vn -0.0000 0.9764 0.2159
vn -0.0000 -0.3270 0.9450
vn -0.0000 0.9719 -0.2353
vn -0.0000 -0.9601 -0.2798
vn -0.0000 0.9658 0.2592
vn -0.0000 -0.9779 0.2092
vn -0.0000 0.9801 -0.1985
vn -0.0000 -0.9565 -0.2916
vn -0.0000 -0.9874 0.1585
vn -0.0000 0.9580 0.2869
vn -0.0000 0.9880 -0.1541
vn -0.0000 -0.9509 -0.3096
vn -0.0000 -0.3582 -0.9336
vn -0.0000 0.9931 0.1169
vn -0.0000 -0.9978 -0.0657
vn -0.0000 0.7993 0.6009
vn -0.0000 0.2812 0.9597
vn -0.0000 0.9574 -0.2887
vn -0.0000 -0.0248 0.9997
vn -0.0000 0.0500 0.9988
vn -0.0000 -0.9529 -0.3033
vn -0.0000 0.9682 -0.2502
vn -0.0000 -0.7456 -0.6664
vn -0.0000 0.9823 -0.1875
vn -0.0000 -0.3816 -0.9243
vn -0.0000 -0.0203 -0.9998
vn -0.0000 -0.1278 -0.9918
vn -0.0000 0.9970 0.0780
vn -0.0000 -0.6450 0.7642
vn -0.0000 -0.4990 0.8666
vn -0.0000 -0.3882 0.9216
vn -0.0000 -0.9903 -0.1387
vn -0.0000 0.9936 -0.1133
vn -0.0000 -0.9945 0.1050
vn -0.0000 0.9360 0.3521
vn -0.0000 -0.7272 0.6864
vn -0.0000 0.3219 0.9468
vn -0.0000 -0.1213 0.9926
vn -0.0000 -0.8567 -0.5159
vn -0.0000 0.7686 -0.6397
vn -0.0000 -0.2465 -0.9691
vn -0.0000 0.1590 -0.9873
vn 0.9699 -0.2432 0.0127
vn 0.9726 -0.2323 0.0128
vn 0.8715 -0.4900 0.0188
vn 0.9366 0.3501 0.0160
vn 0.8851 -0.4641 -0.0342
vn 0.8895 -0.4519 0.0673
vn 0.9348 0.3550 0.0148
vn 0.7969 0.5962 -0.0972
vn 0.0060 -0.0079 1.0000
vn 0.0054 -0.0032 1.0000
vn 0.0053 -0.0033 1.0000
vn 0.0034 -0.0008 1.0000
vn -0.0086 -0.0033 1.0000
vn 0.0059 -0.0079 1.0000
vn -0.0051 -0.0123 0.9999
vn -0.9700 0.2428 -0.0109
vn -0.9701 0.2426 -0.0110
vn -0.8606 0.5090 -0.0156
vn -0.9335 -0.3584 -0.0141
vn -0.0002 -0.0138 0.9999
vn -0.8821 0.4702 -0.0300
vn -0.8706 0.4868 0.0711
vn -0.0638 0.9978 0.0155
vn -0.0647 0.9979 -0.0041
vn -0.0634 0.9979 0.0155
vn 0.8451 0.5264 0.0934
vn -0.0646 0.9979 -0.0041
vn 0.8382 0.5437 -0.0427
vn -0.9360 -0.3518 -0.0140
vn -0.8267 -0.5558 0.0871
vn 0.0633 -0.9979 -0.0157
vn 0.0632 -0.9979 -0.0157
vn 0.0643 -0.9979 0.0039
vn -0.8374 -0.5443 -0.0501
vn -0.7978 -0.5908 -0.1203
vn 0.0030 -0.0005 1.0000
vn -0.0065 -0.0012 1.0000
vn -0.0079 -0.0106 0.9999
vn 0.0644 -0.9979 0.0038
vn -0.0031 -0.0139 0.9999
vn 0.0153 0.0048 -0.9999
vn 0.0153 0.0047 -0.9999
vn -0.1007 0.9949 0.0064
vn 0.1018 0.9948 0.0095
vn 0.2997 0.9540 0.0122
vn -0.4831 0.8756 -0.0004
vn -0.2986 0.9544 0.0030
vn -0.0153 -0.0047 0.9999
vn -0.0153 -0.0044 0.9999
vn 0.4840 0.8749 0.0144
vn 0.6472 0.7621 0.0160
vn 0.7834 0.6213 0.0170
vn -0.7827 0.6223 -0.0070
vn -0.6464 0.7630 -0.0038
vn -0.0152 -0.0043 0.9999
vn -0.8879 0.4599 -0.0099
vn -0.8879 0.4599 -0.0100
vn -0.9593 0.2822 -0.0125
vn 0.8884 0.4587 0.0173
vn 0.9596 0.2809 0.0170
vn 0.9954 0.0942 0.0160
vn -0.9953 0.0955 -0.0145
vn -0.9954 -0.0942 -0.0160
vn -0.9596 -0.2809 -0.0170
vn 0.9953 -0.0955 0.0145
vn 0.9593 -0.2822 0.0125
vn 0.8879 -0.4599 0.0100
vn 0.8879 -0.4599 0.0099
vn 0.7827 -0.6223 0.0070
vn -0.7834 -0.6213 -0.0170
vn -0.8884 -0.4587 -0.0173
vn -0.6472 -0.7621 -0.0160
vn -0.0152 -0.0045 0.9999
vn -0.4840 -0.8749 -0.0144
vn 0.6464 -0.7630 0.0038
vn 0.4831 -0.8756 0.0004
vn -0.0153 -0.0045 0.9999
vn -0.0151 -0.0045 0.9999
vn -0.2984 -0.9544 -0.0106
vn -0.2985 -0.9543 -0.0108
vn -0.2987 -0.9543 -0.0109
vn -0.0154 -0.0046 0.9999
vn -0.1021 -0.9947 -0.0085
vn -0.1024 -0.9947 -0.0081
vn -0.1021 -0.9947 -0.0084
vn -0.0153 -0.0046 0.9999
vn 0.1011 -0.9949 -0.0067
vn 0.1010 -0.9949 -0.0068
vn 0.2986 -0.9544 -0.0030
vn 0.1010 -0.9949 -0.0067
vn -0.1022 -0.9947 -0.0084
vn -0.2986 -0.9543 -0.0108
vt 0.888700 0.718575
vt 0.974500 0.695867
vt 0.974500 0.718499
vt 0.958000 0.856665
vt 0.963000 0.856665
vt 0.987300 0.875384
vt 0.888700 0.639481
vt 0.974387 0.571209
vt 0.974500 0.639481
vt 0.031000 0.922258
vt 0.039600 0.940133
vt 0.019800 0.933151
vt 0.979300 0.982117
vt 0.983800 0.988945
vt 0.959500 0.989022
vt 0.888700 0.695944
vt 0.065500 0.904689
vt 0.995149 0.930888
vt 0.065700 0.926324
vt 0.995149 0.944544
vt 0.974500 0.774962
vt 0.888700 0.843163
vt 0.888700 0.775039
vt 0.015300 0.983484
vt 0.933400 0.975290
vt 0.954600 0.989022
vt 0.015300 0.969752
vt 0.933600 0.953732
vt 0.932100 0.494716
vt 0.963800 0.477685
vt 0.973800 0.479833
vt 0.798000 0.401889
vt 0.711600 0.253136
vt 0.818900 0.422373
vt 0.963100 0.893949
vt 0.888700 0.571356
vt 0.038200 0.917194
vt 0.051200 0.909830
vt 0.015300 0.939979
vt 0.948000 0.958795
vt 0.961000 0.966160
vt 0.968100 0.971224
vt 0.994988 0.907336
vt 0.974387 0.843290
vt 0.015500 0.946277
vt 0.882200 0.388311
vt 0.864400 0.366293
vt 0.705100 0.246001
vt 0.899700 0.519649
vt 0.900400 0.511748
vt 0.014800 0.890804
vt 0.014700 0.873696
vt 0.014700 0.856588
vt 0.117245 0.505697
vt 0.263563 0.529853
vt 0.116677 0.525682
vt 0.263621 0.527554
vt 0.263713 0.522683
vt 0.263713 0.518277
vt 0.171634 0.507241
vt 0.186484 0.507663
vt 0.249639 0.509456
vt 0.263713 0.415601
vt 0.168815 0.441251
vt 0.183041 0.435368
vt 0.249524 0.418307
vt 0.153288 0.377181
vt 0.166115 0.365673
vt 0.247255 0.365169
vt 0.261426 0.357014
vt 0.114441 0.327186
vt 0.118546 0.322302
vt 0.122357 0.316533
vt 0.125289 0.310914
vt 0.242563 0.342666
vt 0.255795 0.330673
vt 0.240389 0.339807
vt 0.206911 0.332151
vt 0.216911 0.338010
vt 0.204350 0.338950
vt 0.237776 0.338398
vt 0.227421 0.337831
vt 0.234460 0.337962
vt 0.208776 0.324630
vt 0.251422 0.323784
vt 0.209787 0.317787
vt 0.246404 0.319977
vt 0.240216 0.318124
vt 0.221277 0.317158
vt 0.231872 0.317264
vt 0.418522 0.910953
vt 0.404368 0.920197
vt 0.405461 0.907403
vt 0.417816 0.924159
vt 0.403928 0.933269
vt 0.417788 0.937696
vt 0.404203 0.944469
vt 0.418522 0.949467
vt 0.450393 0.511108
vt 0.463458 0.552673
vt 0.450393 0.552673
vt 0.463458 0.511108
vt 0.412985 0.371419
vt 0.425335 0.493220
vt 0.412985 0.511108
vt 0.501940 0.511108
vt 0.450393 0.493220
vt 0.463458 0.493220
vt 0.489053 0.493220
vt 0.501940 0.373261
vt 0.425335 0.456653
vt 0.450393 0.456653
vt 0.463458 0.456653
vt 0.489053 0.456653
vt 0.425335 0.439028
vt 0.450393 0.439028
vt 0.463458 0.439028
vt 0.489053 0.439028
vt 0.425335 0.401672
vt 0.450393 0.401672
vt 0.463458 0.401672
vt 0.489053 0.401672
vt 0.425335 0.383784
vt 0.450393 0.383784
vt 0.463458 0.383784
vt 0.489053 0.383784
vt 0.425335 0.371419
vt 0.450393 0.310914
vt 0.463458 0.310914
vt 0.489053 0.373261
vt 0.489932 0.553429
vt 0.480904 0.560399
vt 0.487594 0.552673
vt 0.542452 0.570823
vt 0.542190 0.552673
vt 0.496996 0.571480
vt 0.487165 0.580255
vt 0.510967 0.603249
vt 0.494766 0.599274
vt 0.503385 0.617166
vt 0.528383 0.631226
vt 0.494968 0.629721
vt 0.506340 0.635803
vt 0.486053 0.643570
vt 0.547216 0.652576
vt 0.518799 0.643253
vt 0.507989 0.749699
vt 0.499547 0.647896
vt 0.480101 0.653284
vt 0.526385 0.653920
vt 0.520337 0.749521
vt 0.493190 0.659867
vt 0.488390 0.669476
vt 0.545126 0.657995
vt 0.534035 0.663476
vt 0.543063 0.665226
vt 0.541588 0.671864
vt 0.180308 0.799095
vt 0.183750 0.812882
vt 0.175833 0.810543
vt 0.186538 0.800864
vt 0.192134 0.815061
vt 0.193294 0.802514
vt 0.200050 0.816804
vt 0.200050 0.803925
vt 0.217160 0.770296
vt 0.200050 0.770296
vt 0.200050 0.846318
vt 0.217160 0.846318
vt 0.505625 0.352125
vt 0.512849 0.365958
vt 0.501940 0.363037
vt 0.512790 0.391941
vt 0.506151 0.406503
vt 0.501940 0.394340
vt 0.515754 0.354576
vt 0.516320 0.403542
vt 0.524694 0.388748
vt 0.524285 0.368403
vt 0.526293 0.356710
vt 0.526430 0.400461
vt 0.534317 0.370013
vt 0.535896 0.385396
vt 0.535896 0.358207
vt 0.535896 0.397380
vt 0.535896 0.365898
vt 0.553006 0.337100
vt 0.535896 0.337100
vt 0.535896 0.419561
vt 0.553006 0.419561
vt 0.501940 0.419561
vt 0.514647 0.537678
vt 0.501940 0.552673
vt 0.566373 0.552673
vt 0.553129 0.537678
vt 0.566373 0.442711
vt 0.514647 0.519000
vt 0.553129 0.519000
vt 0.514647 0.505058
vt 0.553129 0.505058
vt 0.514647 0.485854
vt 0.553129 0.485854
vt 0.514647 0.471911
vt 0.553129 0.471911
vt 0.514647 0.419561
vt 0.553129 0.443237
vt 0.552864 0.440986
vt 0.565836 0.434566
vt 0.551962 0.439788
vt 0.550265 0.439291
vt 0.535695 0.433601
vt 0.541064 0.439116
vt 0.533978 0.439291
vt 0.546758 0.439116
vt 0.563987 0.428759
vt 0.537332 0.427268
vt 0.560467 0.424822
vt 0.538452 0.421402
vt 0.554919 0.422533
vt 0.547580 0.421587
vt 0.249932 0.695848
vt 0.262998 0.770296
vt 0.249932 0.770296
vt 0.262998 0.749514
vt 0.262998 0.732941
vt 0.320630 0.749514
vt 0.320630 0.732941
vt 0.262998 0.711632
vt 0.313650 0.711632
vt 0.300584 0.695848
vt 0.313650 0.656651
vt 0.300584 0.672172
vt 0.249932 0.663491
vt 0.249932 0.672172
vt 0.249932 0.556949
vt 0.262998 0.656651
vt 0.262998 0.640341
vt 0.262998 0.627188
vt 0.313471 0.640341
vt 0.313471 0.627188
vt 0.262998 0.611141
vt 0.262998 0.597987
vt 0.312576 0.611141
vt 0.312576 0.597987
vt 0.262998 0.581151
vt 0.262998 0.568261
vt 0.314366 0.581151
vt 0.314366 0.568261
vt 0.262998 0.556949
vt 0.311158 0.554454
vt 0.315718 0.565045
vt 0.312218 0.567997
vt 0.319934 0.562619
vt 0.324031 0.560895
vt 0.321413 0.542207
vt 0.251855 0.540103
vt 0.263694 0.550362
vt 0.308745 0.548043
vt 0.266657 0.547225
vt 0.303985 0.546426
vt 0.273200 0.546426
vt 0.281738 0.546426
vt 0.294492 0.546426
vt 0.315612 0.532581
vt 0.258630 0.531967
vt 0.304880 0.529853
vt 0.271768 0.529853
vt 0.175833 0.529853
vt 0.763552 0.857649
vt 0.741336 0.824066
vt 0.763552 0.815956
vt 0.410181 0.505697
vt 0.410749 0.525682
vt 0.263864 0.529853
vt 0.263805 0.527554
vt 0.263713 0.522683
vt 0.263714 0.518277
vt 0.355793 0.507241
vt 0.340943 0.507663
vt 0.277788 0.509456
vt 0.263713 0.415600
vt 0.358612 0.441251
vt 0.344386 0.435368
vt 0.277902 0.418307
vt 0.374139 0.377181
vt 0.361311 0.365673
vt 0.280172 0.365169
vt 0.266000 0.357014
vt 0.412985 0.327186
vt 0.408881 0.322302
vt 0.405069 0.316533
vt 0.402138 0.310914
vt 0.284864 0.342666
vt 0.271631 0.330673
vt 0.287038 0.339807
vt 0.320515 0.332150
vt 0.323076 0.338950
vt 0.310516 0.338010
vt 0.289650 0.338398
vt 0.300006 0.337831
vt 0.292967 0.337962
vt 0.318650 0.324630
vt 0.276005 0.323784
vt 0.317640 0.317787
vt 0.281023 0.319977
vt 0.287210 0.318124
vt 0.306150 0.317158
vt 0.295555 0.317264
vt 0.763552 0.819135
vt 0.776614 0.815585
vt 0.777707 0.828379
vt 0.764259 0.832340
vt 0.778147 0.841451
vt 0.764287 0.845878
vt 0.777872 0.852650
vt 0.763552 0.857649
vt 0.361438 0.571417
vt 0.361438 0.529853
vt 0.374504 0.529853
vt 0.374504 0.571417
vt 0.324031 0.711106
vt 0.324031 0.571417
vt 0.336381 0.589306
vt 0.412985 0.571417
vt 0.361438 0.589306
vt 0.374504 0.589306
vt 0.400099 0.589306
vt 0.412985 0.709265
vt 0.336381 0.625872
vt 0.361438 0.625872
vt 0.374504 0.625872
vt 0.400099 0.625872
vt 0.336381 0.643498
vt 0.361438 0.643498
vt 0.374504 0.643498
vt 0.400099 0.643498
vt 0.336381 0.680853
vt 0.361438 0.680853
vt 0.374504 0.680853
vt 0.400099 0.680853
vt 0.336381 0.698742
vt 0.361438 0.698742
vt 0.374504 0.698742
vt 0.400099 0.698742
vt 0.336381 0.711106
vt 0.361438 0.771612
vt 0.374504 0.771612
vt 0.400099 0.709265
vt 0.470269 0.553429
vt 0.472607 0.552673
vt 0.479297 0.560399
vt 0.417749 0.570823
vt 0.418012 0.552673
vt 0.463206 0.571480
vt 0.473036 0.580255
vt 0.449235 0.603249
vt 0.465435 0.599274
vt 0.456816 0.617166
vt 0.431818 0.631226
vt 0.465233 0.629721
vt 0.453862 0.635803
vt 0.474149 0.643570
vt 0.412985 0.652576
vt 0.441403 0.643253
vt 0.452213 0.749699
vt 0.460654 0.647896
vt 0.480101 0.653284
vt 0.433816 0.653920
vt 0.439864 0.749521
vt 0.467011 0.659867
vt 0.471811 0.669476
vt 0.415075 0.657995
vt 0.426167 0.663476
vt 0.417138 0.665226
vt 0.418613 0.671864
vt 0.254012 0.799095
vt 0.258486 0.810543
vt 0.250570 0.812882
vt 0.247782 0.800864
vt 0.242186 0.815061
vt 0.241026 0.802514
vt 0.234270 0.816804
vt 0.234270 0.803925
vt 0.234270 0.770296
vt 0.234270 0.846318
vt 0.613754 0.345548
vt 0.617439 0.356460
vt 0.606530 0.359381
vt 0.606589 0.385365
vt 0.617439 0.387763
vt 0.613228 0.399926
vt 0.603625 0.348000
vt 0.603059 0.396965
vt 0.594685 0.382171
vt 0.595094 0.361826
vt 0.593086 0.350133
vt 0.592950 0.393884
vt 0.585063 0.363436
vt 0.583483 0.378819
vt 0.583483 0.351630
vt 0.583483 0.390804
vt 0.583483 0.359322
vt 0.566373 0.330523
vt 0.583483 0.330523
vt 0.583483 0.412984
vt 0.566373 0.412984
vt 0.547216 0.685785
vt 0.547216 0.552673
vt 0.559924 0.567668
vt 0.611650 0.552673
vt 0.598405 0.567668
vt 0.611650 0.662635
vt 0.559924 0.586346
vt 0.598405 0.586346
vt 0.559924 0.600288
vt 0.598405 0.600288
vt 0.559924 0.619492
vt 0.598405 0.619492
vt 0.559924 0.633435
vt 0.598405 0.633435
vt 0.559924 0.685785
vt 0.598405 0.662109
vt 0.598140 0.664360
vt 0.611113 0.670781
vt 0.597238 0.665558
vt 0.595541 0.666055
vt 0.580971 0.671745
vt 0.579254 0.666055
vt 0.586340 0.666230
vt 0.592034 0.666230
vt 0.609263 0.676587
vt 0.582608 0.678078
vt 0.605743 0.680524
vt 0.583728 0.683944
vt 0.600195 0.682813
vt 0.592856 0.683758
vt 0.175834 0.604301
vt 0.175834 0.529853
vt 0.188899 0.529853
vt 0.188899 0.550635
vt 0.188899 0.567208
vt 0.246532 0.550635
vt 0.246532 0.567208
vt 0.188899 0.588517
vt 0.239551 0.588517
vt 0.226486 0.604301
vt 0.239551 0.643498
vt 0.226486 0.627977
vt 0.175834 0.636658
vt 0.175834 0.627977
vt 0.175833 0.743200
vt 0.188899 0.643498
vt 0.188899 0.659808
vt 0.188899 0.672961
vt 0.239372 0.659808
vt 0.239372 0.672961
vt 0.188899 0.689009
vt 0.188899 0.702162
vt 0.238477 0.689009
vt 0.238477 0.702162
vt 0.188899 0.718998
vt 0.188899 0.731889
vt 0.240267 0.718998
vt 0.240267 0.731889
vt 0.188899 0.743200
vt 0.237059 0.745695
vt 0.238119 0.732152
vt 0.241620 0.735104
vt 0.245836 0.737530
vt 0.249932 0.739254
vt 0.247314 0.757942
vt 0.177756 0.760046
vt 0.189595 0.749787
vt 0.234646 0.752106
vt 0.192558 0.752924
vt 0.229886 0.753723
vt 0.199101 0.753723
vt 0.207639 0.753723
vt 0.220394 0.753723
vt 0.241513 0.767568
vt 0.184531 0.768182
vt 0.230781 0.770296
vt 0.197669 0.770296
vt 0.750705 0.740163
vt 0.765017 0.779325
vt 0.741365 0.779325
vt 0.174742 0.803986
vt 0.154737 0.803986
vt 0.154737 0.764824
vt 0.174742 0.764824
vt 0.153627 0.529853
vt 0.153627 0.676709
vt 0.114441 0.676709
vt 0.114441 0.529853
vt 0.508704 0.945762
vt 0.506403 0.945762
vt 0.506403 0.906600
vt 0.508704 0.906600
vt 0.365661 0.977570
vt 0.360786 0.977570
vt 0.360786 0.938408
vt 0.365661 0.938408
vt 0.412985 0.856782
vt 0.412985 0.852376
vt 0.452171 0.852376
vt 0.452171 0.856782
vt 0.664772 0.740163
vt 0.664772 0.685785
vt 0.703958 0.685785
vt 0.703958 0.740163
vt 0.656625 0.412984
vt 0.656625 0.349841
vt 0.695810 0.349841
vt 0.695810 0.412984
vt 0.412985 0.749699
vt 0.452171 0.749699
vt 0.153627 0.814556
vt 0.153627 0.880607
vt 0.114441 0.880607
vt 0.114441 0.814556
vt 0.625587 0.831032
vt 0.625587 0.758655
vt 0.664772 0.758655
vt 0.664772 0.831032
vt 0.547216 0.749699
vt 0.547216 0.840849
vt 0.508030 0.840849
vt 0.508030 0.749699
vt 0.586401 0.818897
vt 0.586401 0.884820
vt 0.547216 0.884820
vt 0.547216 0.818897
vt 0.586401 0.872727
vt 0.586401 0.801009
vt 0.625587 0.801009
vt 0.625587 0.872727
vt 0.402402 0.846060
vt 0.402402 0.899246
vt 0.363217 0.899246
vt 0.363217 0.846060
vt 0.625587 0.889663
vt 0.625587 0.831032
vt 0.664772 0.831032
vt 0.664772 0.889663
vt 0.690021 0.617068
vt 0.690021 0.680366
vt 0.650835 0.680366
vt 0.650835 0.617068
vt 0.801759 0.389003
vt 0.795377 0.389003
vt 0.795377 0.349841
vt 0.801759 0.349841
vt 0.795843 0.935972
vt 0.788926 0.935972
vt 0.788926 0.896811
vt 0.795843 0.896811
vt 0.802037 0.854747
vt 0.795696 0.854747
vt 0.795696 0.815585
vt 0.802037 0.815585
vt 0.644744 0.526892
vt 0.644744 0.458604
vt 0.683930 0.458604
vt 0.683930 0.526892
vt 0.741365 0.701001
vt 0.764365 0.701001
vt 0.764365 0.740163
vt 0.741365 0.740163
vt 0.728502 0.528358
vt 0.755453 0.528358
vt 0.755453 0.567520
vt 0.728502 0.567520
vt 0.798854 0.476271
vt 0.802446 0.476271
vt 0.802446 0.515433
vt 0.798854 0.515433
vt 0.795377 0.389003
vt 0.788108 0.389003
vt 0.788108 0.349841
vt 0.324031 0.938132
vt 0.336627 0.938132
vt 0.336627 0.977294
vt 0.324031 0.977294
vt 0.664770 0.960838
vt 0.667739 0.960838
vt 0.667739 1.000000
vt 0.664770 1.000000
vt 0.402456 0.849936
vt 0.412968 0.849936
vt 0.412968 0.889097
vt 0.402456 0.889097
vt 0.798868 0.627454
vt 0.802213 0.627454
vt 0.802213 0.666616
vt 0.798868 0.666616
vt 0.788664 0.701001
vt 0.795704 0.701001
vt 0.795704 0.740163
vt 0.788664 0.740163
vt 0.792239 0.617068
vt 0.784486 0.617068
vt 0.784486 0.577906
vt 0.792239 0.577906
vt 0.792372 0.975134
vt 0.784209 0.975134
vt 0.784209 0.935972
vt 0.792372 0.935972
vt 0.788777 0.740163
vt 0.795699 0.740163
vt 0.795699 0.779325
vt 0.788777 0.779325
vt 0.801999 0.779325
vt 0.795698 0.779325
vt 0.795698 0.740163
vt 0.801999 0.740163
vt 0.798832 0.975134
vt 0.792372 0.975134
vt 0.792372 0.935972
vt 0.798832 0.935972
vt 0.784703 0.515433
vt 0.773195 0.515433
vt 0.773195 0.476271
vt 0.784703 0.476271
vt 0.788741 0.854747
vt 0.778147 0.854747
vt 0.778147 0.815585
vt 0.788741 0.815585
vt 0.792050 0.476271
vt 0.783661 0.476271
vt 0.783661 0.437109
vt 0.792050 0.437109
vt 0.778553 0.779325
vt 0.765017 0.779325
vt 0.765017 0.740163
vt 0.778553 0.740163
vt 0.217732 0.937830
vt 0.230580 0.937830
vt 0.230580 0.976992
vt 0.217732 0.976992
vt 0.566238 0.380399
vt 0.553006 0.380399
vt 0.553006 0.341237
vt 0.566238 0.341237
vt 0.508735 0.937608
vt 0.521822 0.937608
vt 0.521822 0.976770
vt 0.508735 0.976770
vt 0.777911 0.740163
vt 0.764365 0.740163
vt 0.764365 0.701001
vt 0.777911 0.701001
vt 0.256658 0.943257
vt 0.267867 0.943257
vt 0.267867 0.982418
vt 0.256658 0.982418
vt 0.378251 0.938408
vt 0.390052 0.938408
vt 0.390052 0.977570
vt 0.378251 0.977570
vt 0.736091 0.975134
vt 0.720923 0.975134
vt 0.720923 0.935972
vt 0.736091 0.935972
vt 0.114441 0.922171
vt 0.153627 0.922171
vt 0.177868 0.937711
vt 0.190933 0.937711
vt 0.190933 0.976873
vt 0.177868 0.976873
vt 0.586401 0.884820
vt 0.586401 0.926385
vt 0.547216 0.926385
vt 0.547216 0.884820
vt 0.566373 0.552673
vt 0.566373 0.412984
vt 0.605559 0.412984
vt 0.605559 0.552673
vt 0.741365 0.779325
vt 0.703958 0.779325
vt 0.703958 0.740163
vt 0.741365 0.740163
vt 0.690021 0.528358
vt 0.728502 0.528358
vt 0.728502 0.567520
vt 0.690021 0.567520
vt 0.139499 0.961333
vt 0.114441 0.961333
vt 0.139499 0.922171
vt 0.754800 0.666616
vt 0.729206 0.666616
vt 0.729206 0.627454
vt 0.754800 0.627454
vt 0.153627 0.676709
vt 0.153627 0.814556
vt 0.114441 0.814556
vt 0.114441 0.676709
vt 0.360620 0.938132
vt 0.324031 0.938132
vt 0.324031 0.898970
vt 0.360620 0.898970
vt 0.365814 0.899246
vt 0.402402 0.899246
vt 0.402402 0.938408
vt 0.365814 0.938408
vt 0.324031 0.943256
vt 0.287443 0.943256
vt 0.287443 0.904095
vt 0.324031 0.904095
vt 0.740546 0.935972
vt 0.703958 0.935972
vt 0.703958 0.896811
vt 0.740546 0.896811
vt 0.164556 0.922171
vt 0.164556 0.961333
vt 0.139499 0.961333
vt 0.678363 0.921676
vt 0.703958 0.921676
vt 0.703958 0.960838
vt 0.678363 0.960838
vt 0.765604 0.935972
vt 0.740546 0.935972
vt 0.740546 0.896811
vt 0.765604 0.896811
vt 0.754800 0.617068
vt 0.729206 0.617068
vt 0.729206 0.577906
vt 0.754800 0.577906
vt 0.741336 0.818487
vt 0.703958 0.818487
vt 0.741336 0.779325
vt 0.741336 0.857649
vt 0.703958 0.857649
vt 0.703958 0.818487
vt 0.741336 0.818487
vt 0.703958 0.701001
vt 0.741336 0.701001
vt 0.741336 0.740163
vt 0.703958 0.740163
vt 0.741336 0.896811
vt 0.703958 0.896811
vt 0.586401 0.923170
vt 0.611459 0.923170
vt 0.611459 0.962332
vt 0.586401 0.962332
vt 0.734291 0.349841
vt 0.759886 0.349841
vt 0.759886 0.389003
vt 0.734291 0.389003
vt 0.766393 0.896811
vt 0.741336 0.896811
vt 0.741336 0.857649
vt 0.766393 0.857649
vt 0.284846 0.809458
vt 0.259251 0.809458
vt 0.259251 0.770296
vt 0.284846 0.770296
vt 0.783038 0.437109
vt 0.770688 0.437109
vt 0.770688 0.397947
vt 0.783038 0.397947
vt 0.365813 0.938408
vt 0.378185 0.938408
vt 0.378185 0.977570
vt 0.365813 0.977570
vt 0.617439 0.412984
vt 0.617439 0.340114
vt 0.656625 0.340114
vt 0.656625 0.412984
vt 0.164802 0.976873
vt 0.164802 0.937711
vt 0.664772 0.685785
vt 0.625587 0.685785
vt 0.412945 0.849935
vt 0.402416 0.849935
vt 0.402416 0.810774
vt 0.412945 0.810774
vt 0.256345 0.976992
vt 0.243459 0.976992
vt 0.243459 0.937830
vt 0.256345 0.937830
vt 0.310177 0.943256
vt 0.312634 0.943256
vt 0.312634 0.982418
vt 0.310177 0.982418
vt 0.778553 0.740163
vt 0.788777 0.740163
vt 0.788777 0.779325
vt 0.778553 0.779325
vt 0.772963 0.617068
vt 0.754800 0.617068
vt 0.772963 0.577906
vt 0.217160 0.898550
vt 0.177974 0.898550
vt 0.177974 0.846318
vt 0.644744 0.458604
vt 0.644744 0.413170
vt 0.683930 0.413170
vt 0.683930 0.458604
vt 0.175532 0.686500
vt 0.154701 0.686500
vt 0.154701 0.647338
vt 0.175532 0.647338
vt 0.452171 0.906600
vt 0.486894 0.906600
vt 0.486894 0.945762
vt 0.452171 0.945762
vt 0.175228 0.764824
vt 0.154737 0.725662
vt 0.175228 0.725662
vt 0.154737 0.803986
vt 0.174607 0.803986
vt 0.174607 0.843148
vt 0.154737 0.843148
vt 0.723115 0.476271
vt 0.756085 0.476271
vt 0.756085 0.515433
vt 0.723115 0.515433
vt 0.757393 0.935972
vt 0.772515 0.935972
vt 0.772515 0.975134
vt 0.757393 0.975134
vt 0.491356 0.788861
vt 0.507834 0.788861
vt 0.507834 0.828023
vt 0.491356 0.828023
vt 0.284824 0.885480
vt 0.256345 0.885480
vt 0.256345 0.846318
vt 0.284824 0.846318
vt 0.644744 0.412984
vt 0.644744 0.526892
vt 0.605559 0.526892
vt 0.605559 0.412984
vt 0.164802 0.898549
vt 0.178679 0.898549
vt 0.178679 0.937711
vt 0.164802 0.937711
vt 0.312634 0.943257
vt 0.324031 0.943257
vt 0.324031 0.982418
vt 0.547216 0.976770
vt 0.534121 0.976770
vt 0.534121 0.937608
vt 0.547216 0.937608
vt 0.452171 0.855979
vt 0.452171 0.749699
vt 0.491356 0.749699
vt 0.491356 0.855979
vt 0.402402 0.977570
vt 0.390052 0.977570
vt 0.390052 0.938408
vt 0.402402 0.938408
vt 0.625019 0.962332
vt 0.611459 0.923170
vt 0.625019 0.923170
vt 0.462917 0.984924
vt 0.452171 0.984924
vt 0.452171 0.945762
vt 0.462917 0.945762
vt 0.625587 0.928825
vt 0.643786 0.928825
vt 0.643786 0.967987
vt 0.625587 0.967987
vt 0.684174 1.000000
vt 0.678363 1.000000
vt 0.678363 0.960838
vt 0.684174 0.960838
vt 0.784155 0.666616
vt 0.771910 0.666616
vt 0.771910 0.627454
vt 0.784155 0.627454
vt 0.792227 0.515433
vt 0.792227 0.476271
vt 0.798854 0.476271
vt 0.792050 0.476271
vt 0.792050 0.437109
vt 0.798854 0.437109
vt 0.310053 0.982418
vt 0.298761 0.982418
vt 0.298761 0.943256
vt 0.310053 0.943256
vt 0.521822 0.937608
vt 0.534120 0.937608
vt 0.534120 0.976770
vt 0.521822 0.976770
vt 0.267893 0.943256
vt 0.276148 0.943256
vt 0.276148 0.982418
vt 0.267893 0.982418
vt 0.798838 0.567520
vt 0.792362 0.567520
vt 0.792362 0.528358
vt 0.798838 0.528358
vt 0.783038 0.397947
vt 0.791701 0.397947
vt 0.791701 0.437109
vt 0.783038 0.437109
vt 0.788741 0.815585
vt 0.795696 0.815585
vt 0.795696 0.854747
vt 0.788741 0.854747
vt 0.784256 0.528358
vt 0.792362 0.528358
vt 0.792362 0.567520
vt 0.784256 0.567520
vt 0.796412 0.896811
vt 0.789510 0.896811
vt 0.789510 0.857649
vt 0.796412 0.857649
vt 0.756085 0.476271
vt 0.452171 0.946565
vt 0.418522 0.946565
vt 0.418522 0.907403
vt 0.452171 0.907403
vt 0.723115 0.437109
vt 0.752647 0.437109
vt 0.752647 0.476271
vt 0.723115 0.476271
vt 0.324031 0.847633
vt 0.324031 0.771612
vt 0.363217 0.771612
vt 0.363217 0.847633
vt 0.776996 0.389003
vt 0.776996 0.349841
vt 0.772963 0.577906
vt 0.772963 0.617068
vt 0.276148 0.943256
vt 0.287443 0.943256
vt 0.287443 0.982418
vt 0.276148 0.982418
vt 0.230580 0.937830
vt 0.243459 0.937830
vt 0.243459 0.976992
vt 0.230580 0.976992
vt 0.474315 0.945762
vt 0.484737 0.945762
vt 0.484738 0.984924
vt 0.474315 0.984924
vt 0.495329 0.984924
vt 0.484738 0.984924
vt 0.484738 0.945762
vt 0.495329 0.945762
vt 0.771336 0.437109
vt 0.783661 0.437109
vt 0.783661 0.476271
vt 0.771336 0.476271
vt 0.784209 0.935972
vt 0.784209 0.975134
vt 0.772515 0.975134
vt 0.777911 0.740163
vt 0.412985 0.810774
vt 0.402416 0.771612
vt 0.412985 0.771612
vt 0.778765 0.896811
vt 0.788925 0.896811
vt 0.788925 0.935972
vt 0.778765 0.935972
vt 0.784256 0.567520
vt 0.772563 0.567520
vt 0.772563 0.528358
vt 0.784256 0.528358
vt 0.428241 0.985727
vt 0.418522 0.985727
vt 0.428241 0.946565
vt 0.789510 0.896811
vt 0.779555 0.896811
vt 0.779555 0.857649
vt 0.789510 0.857649
vt 0.803241 0.975134
vt 0.798832 0.975134
vt 0.798832 0.935972
vt 0.803241 0.935972
vt 0.771910 0.666616
vt 0.754801 0.666616
vt 0.754801 0.627454
vt 0.771910 0.627454
vt 0.154701 0.608176
vt 0.175821 0.608176
vt 0.175821 0.647338
vt 0.154701 0.647338
vt 0.486894 0.906600
vt 0.506403 0.906600
vt 0.486894 0.945762
vt 0.153627 0.529853
vt 0.175821 0.529853
vt 0.175821 0.569015
vt 0.153627 0.569015
vt 0.284846 0.852758
vt 0.284846 0.770296
vt 0.324031 0.770296
vt 0.324031 0.852758
vt 0.772563 0.567520
vt 0.755453 0.567520
vt 0.755453 0.528358
vt 0.772563 0.528358
vt 0.547216 0.818897
vt 0.547216 0.685785
vt 0.586401 0.685785
vt 0.690021 0.552673
vt 0.690021 0.617068
vt 0.650835 0.552673
vt 0.664068 0.928825
vt 0.625587 0.928825
vt 0.625587 0.889663
vt 0.664068 0.889663
vt 0.650835 0.552673
vt 0.650835 0.662635
vt 0.611650 0.662635
vt 0.611650 0.552673
vt 0.771336 0.476271
vt 0.752647 0.476271
vt 0.752647 0.437109
vt 0.771336 0.437109
vt 0.664068 0.967987
vt 0.645379 0.967987
vt 0.645379 0.928825
vt 0.664068 0.928825
vt 0.695810 0.349841
vt 0.734291 0.349841
vt 0.734291 0.389003
vt 0.695810 0.389003
vt 0.508735 0.898446
vt 0.547216 0.898446
vt 0.547216 0.937608
vt 0.508735 0.937608
vt 0.567186 0.926385
vt 0.586401 0.965546
vt 0.567186 0.965546
vt 0.566431 0.926385
vt 0.566431 0.965547
vt 0.547216 0.965547
vt 0.217160 0.937711
vt 0.178679 0.937711
vt 0.178679 0.898550
vt 0.217160 0.898549
vt 0.217864 0.898668
vt 0.256345 0.898668
vt 0.217864 0.937830
vt 0.360620 0.977294
vt 0.347912 0.977294
vt 0.347912 0.938133
vt 0.360620 0.938133
vt 0.256345 0.898669
vt 0.217160 0.898669
vt 0.751807 0.437109
vt 0.723115 0.437109
vt 0.723115 0.397947
vt 0.751807 0.397947
vt 0.506403 0.945762
vt 0.508670 0.945762
vt 0.508670 0.984924
vt 0.506403 0.984924
vt 0.792323 0.666616
vt 0.792323 0.627454
vt 0.402402 0.899246
vt 0.403902 0.899246
vt 0.403902 0.938408
vt 0.402402 0.938408
vt 0.803527 0.349841
vt 0.803527 0.389003
vt 0.703958 1.000000
vt 0.698011 1.000000
vt 0.698011 0.960838
vt 0.411327 0.949467
vt 0.418416 0.949467
vt 0.418416 0.988629
vt 0.411327 0.988629
vt 0.798854 0.437109
vt 0.802365 0.437109
vt 0.802365 0.476271
vt 0.798854 0.476271
vt 0.684174 0.960838
vt 0.689868 0.960838
vt 0.689868 1.000000
vt 0.684174 1.000000
vt 0.801801 0.740163
vt 0.795704 0.740163
vt 0.795704 0.701001
vt 0.801801 0.701001
vt 0.452113 0.985727
vt 0.446831 0.985727
vt 0.446831 0.946565
vt 0.452113 0.946565
vt 0.802387 0.896811
vt 0.802387 0.857649
vt 0.801846 0.935972
vt 0.795843 0.935972
vt 0.795843 0.896811
vt 0.801846 0.896811
vt 0.446831 0.985727
vt 0.437701 0.985727
vt 0.437701 0.946565
vt 0.446831 0.946565
vt 0.411327 0.988629
vt 0.403928 0.988629
vt 0.403928 0.949467
vt 0.411327 0.949467
vt 0.363217 0.846060
vt 0.363217 0.771612
vt 0.402402 0.771612
vt 0.402402 0.846060
vt 0.204094 0.937711
vt 0.217160 0.937711
vt 0.217160 0.976873
vt 0.204094 0.976873
vt 0.154701 0.686500
vt 0.175495 0.686500
vt 0.175495 0.725662
vt 0.154701 0.725662
vt 0.703958 0.758655
vt 0.703958 0.816252
vt 0.664772 0.816252
vt 0.664772 0.758655
vt 0.508030 0.898446
vt 0.547216 0.898446
vt 0.507940 0.788861
vt 0.491356 0.788861
vt 0.491356 0.749699
vt 0.507940 0.749699
vt 0.154499 0.569015
vt 0.154499 0.608176
vt 0.452171 0.856782
vt 0.452171 0.907403
vt 0.412985 0.907403
vt 0.683930 0.526892
vt 0.683930 0.476271
vt 0.723115 0.476271
vt 0.723115 0.526892
vt 0.703958 0.871234
vt 0.664772 0.871234
vt 0.664772 0.816252
vt 0.177974 0.885480
vt 0.154284 0.885480
vt 0.154284 0.846318
vt 0.586401 0.694466
vt 0.586401 0.685785
vt 0.625587 0.694466
vt 0.491356 0.906600
vt 0.452171 0.906600
vt 0.452171 0.855979
vt 0.586401 0.801009
vt 0.625587 0.801009
vt 0.683930 0.425649
vt 0.723115 0.425649
vt 0.723115 0.476271
vt 0.507676 0.867185
vt 0.491356 0.867185
vt 0.491356 0.828023
vt 0.507676 0.828023
vt 0.703958 0.871234
vt 0.703958 0.921676
vt 0.664772 0.921676
vt 0.664772 0.871234
vt 0.586401 0.923170
vt 0.586401 0.872727
vt 0.625587 0.923170
vt 0.491356 0.867185
vt 0.507413 0.867185
vt 0.507413 0.906347
vt 0.491356 0.906347
vt 0.690021 0.666616
vt 0.690021 0.567520
vt 0.729206 0.567520
vt 0.779554 0.896811
vt 0.766393 0.896811
vt 0.779555 0.857649
vt 0.740546 0.935972
vt 0.757393 0.935972
vt 0.740546 0.975134
vt 0.363217 0.898970
vt 0.324031 0.898970
vt 0.284846 0.904095
vt 0.284846 0.852758
vt 0.324031 0.904095
vt 0.190933 0.937711
vt 0.203831 0.937711
vt 0.203831 0.976873
vt 0.190933 0.976873
vt 0.287443 0.943256
vt 0.298761 0.943256
vt 0.298761 0.982418
vt 0.287443 0.982418
vt 0.664770 0.921676
vt 0.678363 0.921676
vt 0.678363 0.960838
vt 0.798830 0.577906
vt 0.803410 0.577906
vt 0.803410 0.617068
vt 0.798830 0.617068
vt 0.798555 0.397947
vt 0.803420 0.397947
vt 0.803420 0.437109
vt 0.798555 0.437109
vt 0.736091 0.935972
vt 0.740536 0.935972
vt 0.740536 0.975134
vt 0.736091 0.975134
vt 0.751807 0.397947
vt 0.770688 0.437109
vt 0.751807 0.437109
vt 0.720923 0.975134
vt 0.703958 0.975134
vt 0.720923 0.935972
vt 0.792227 0.476271
vt 0.792227 0.515433
vt 0.798555 0.437109
vt 0.791701 0.437109
vt 0.791701 0.397947
vt 0.798555 0.397947
vt 0.803155 0.528358
vt 0.803155 0.567520
vt 0.360786 0.899246
vt 0.365813 0.899246
vt 0.365813 0.938408
vt 0.360786 0.938408
vt 0.256658 0.904095
vt 0.265196 0.904095
vt 0.265196 0.943257
vt 0.277950 0.904095
vt 0.277950 0.943257
vt 0.287443 0.904095
vt 0.287443 0.943257
vt 0.347912 0.977294
vt 0.336668 0.977294
vt 0.336668 0.938133
vt 0.347912 0.938133
vt 0.473508 0.984924
vt 0.462917 0.984924
vt 0.462917 0.945762
vt 0.473508 0.945762
vt 0.506403 0.984924
vt 0.566313 0.419561
vt 0.566313 0.380399
vt 0.437701 0.985727
vt 0.317057 0.427018
vt 0.316762 0.245392
vt 0.323397 0.245392
vt 0.203295 0.245395
vt 0.330032 0.245391
vt 0.329379 0.427505
vt 0.203886 0.427054
vt 0.193354 0.245397
vt 0.671355 0.601088
vt 0.847663 0.601085
vt 0.671349 0.671967
vt 0.858568 0.603728
vt 0.869474 0.606370
vt 0.847669 0.671972
vt 0.869473 0.666686
vt 0.615793 0.424784
vt 0.614701 0.245471
vt 0.623397 0.245476
vt 0.499575 0.245392
vt 0.858571 0.669329
vt 0.632092 0.245481
vt 0.654138 0.426183
vt 0.187866 0.427063
vt 0.008124 0.424610
vt 0.021577 0.245397
vt 0.183412 0.245399
vt 0.499815 0.425587
vt 0.488387 0.427301
vt 0.488671 0.245391
vt 0.494123 0.245392
vt 0.660397 0.669322
vt 0.649445 0.666676
vt 0.649445 0.606378
vt 0.660400 0.603733
vt 0.308422 0.003142
vt 0.327511 0.003047
vt 0.346234 0.005906
vt 0.253285 0.171731
vt 0.269205 0.186372
vt 0.253285 0.186376
vt 0.091311 0.172168
vt 0.075391 0.186809
vt 0.075391 0.172164
vt 0.091311 0.186813
vt 0.269205 0.156898
vt 0.253284 0.171568
vt 0.253285 0.156886
vt 0.363870 0.011607
vt 0.289700 0.006185
vt 0.272064 0.012062
vt 0.059279 0.172221
vt 0.075200 0.186953
vt 0.059279 0.186972
vt 0.269396 0.156897
vt 0.285317 0.171568
vt 0.269396 0.171579
vt 0.285317 0.156886
vt 0.269205 0.171727
vt 0.114417 0.003142
vt 0.133506 0.003047
vt 0.152228 0.005906
vt 0.169864 0.011607
vt 0.095695 0.006186
vt 0.042975 0.172221
vt 0.042975 0.186972
vt 0.027055 0.186953
vt 0.078059 0.012063
vt 0.269205 0.171580
vt 0.027055 0.172202
vt 0.379741 0.019934
vt 0.393239 0.030564
vt 0.139839 0.186935
vt 0.155759 0.172120
vt 0.155759 0.186960
vt 0.403845 0.043090
vt 0.256192 0.020545
vt 0.204287 0.171824
vt 0.220207 0.156919
vt 0.220207 0.171855
vt 0.139839 0.172095
vt 0.242695 0.031309
vt 0.204287 0.172033
vt 0.220207 0.186938
vt 0.204287 0.186969
vt 0.091503 0.172190
vt 0.107423 0.187004
vt 0.091503 0.187030
vt 0.107423 0.172164
vt 0.075200 0.172202
vt 0.185736 0.019933
vt 0.199234 0.030563
vt 0.220207 0.172002
vt 0.209839 0.043089
vt 0.062186 0.020546
vt 0.187983 0.171912
vt 0.172063 0.171947
vt 0.172063 0.156923
vt 0.217144 0.057029
vt 0.038084 0.043942
vt 0.187983 0.156888
vt 0.048689 0.031310
vt 0.224784 0.057953
vt 0.232089 0.043940
vt 0.411150 0.057030
vt 0.139647 0.171979
vt 0.123727 0.156925
vt 0.139647 0.156888
vt 0.139839 0.171913
vt 0.155759 0.156923
vt 0.155759 0.171948
vt 0.414874 0.071849
vt 0.123535 0.156925
vt 0.107615 0.171979
vt 0.107615 0.156888
vt 0.139839 0.156888
vt 0.414874 0.086977
vt 0.027055 0.172016
vt 0.042975 0.156927
vt 0.042975 0.172055
vt 0.123535 0.172017
vt 0.027055 0.156888
vt 0.030778 0.057954
vt 0.220869 0.086976
vt 0.027054 0.072810
vt 0.220869 0.071848
vt 0.059087 0.172016
vt 0.043167 0.172055
vt 0.043167 0.156927
vt 0.236980 0.172014
vt 0.221060 0.172054
vt 0.221060 0.156925
vt 0.217145 0.101832
vt 0.236981 0.156886
vt 0.224784 0.102756
vt 0.221060 0.087937
vt 0.411150 0.101833
vt 0.107423 0.171979
vt 0.091503 0.156925
vt 0.107423 0.156888
vt 0.221060 0.072809
vt 0.059279 0.172016
vt 0.075200 0.156927
vt 0.075199 0.172055
vt 0.403845 0.115846
vt 0.075391 0.171979
vt 0.091311 0.156926
vt 0.091311 0.172017
vt 0.059279 0.156888
vt 0.075391 0.156888
vt 0.030779 0.102757
vt 0.027055 0.087938
vt 0.155950 0.171912
vt 0.155950 0.156888
vt 0.171871 0.156923
vt 0.038084 0.116698
vt 0.209839 0.115845
vt 0.171870 0.171947
vt 0.393240 0.128477
vt 0.232089 0.116696
vt 0.379742 0.139241
vt 0.237172 0.186936
vt 0.253093 0.172031
vt 0.253093 0.186967
vt 0.242695 0.129222
vt 0.237172 0.156917
vt 0.253093 0.171822
vt 0.237172 0.171853
vt 0.204095 0.171913
vt 0.188175 0.156923
vt 0.204095 0.156888
vt 0.188175 0.171947
vt 0.199234 0.128476
vt 0.253093 0.156886
vt 0.185737 0.139240
vt 0.155950 0.172120
vt 0.171871 0.172095
vt 0.171871 0.186935
vt 0.169865 0.147723
vt 0.048689 0.129223
vt 0.155951 0.186960
vt 0.272065 0.148179
vt 0.256193 0.139852
vt 0.363870 0.147724
vt 0.236980 0.186952
vt 0.221060 0.172220
vt 0.236981 0.172201
vt 0.187983 0.172120
vt 0.172063 0.186935
vt 0.172063 0.172095
vt 0.346234 0.153601
vt 0.188175 0.186845
vt 0.204095 0.172114
vt 0.204095 0.186865
vt 0.187983 0.186960
vt 0.188175 0.172095
vt 0.078058 0.148180
vt 0.062187 0.139853
vt 0.133386 0.156632
vt 0.107615 0.172263
vt 0.123922 0.172164
vt 0.123535 0.186933
vt 0.152233 0.153609
vt 0.285472 0.171728
vt 0.285704 0.186371
vt 0.269397 0.186371
vt 0.114297 0.156741
vt 0.095693 0.153884
vt 0.253285 0.186523
vt 0.269205 0.186526
vt 0.269213 0.201082
vt 0.059087 0.172214
vt 0.059087 0.186896
vt 0.043167 0.186884
vt 0.327512 0.156644
vt 0.289701 0.153880
vt 0.043167 0.172202
vt 0.308422 0.156739
vt 0.253285 0.201167
vt 0.269543 0.171727
vt 0.107615 0.186945
vt 0.221060 0.186971
vt 0.237172 0.172000
vt 0.091503 0.172017
vt 0.059087 0.156888
vt 0.123727 0.172017
vt 0.204287 0.156888
s 1
g blade_02___Default.001
usemtl 02___Default.001
f 26/1/1 15/2/1 27/3/2
f 22/4/3 25/5/4 14/6/5
f 4/7/6 6/8/7 7/9/8
f 11/10/9 13/11/10 8/12/11
f 8/13/12 14/14/13 25/15/14
f 7/9/15 16/16/15 4/7/16
f 10/17/17 2/18/18 1/19/19
f 1/19/20 3/20/21 13/11/22
f 24/21/23 5/22/23 23/23/24
f 20/24/25 19/25/26 22/26/27
f 24/21/28 26/1/28 27/3/29
f 21/27/30 10/28/31 19/25/32
f 18/29/33 3/30/34 16/31/35
f 23/32/36 17/33/37 21/34/38
f 22/4/3 14/6/39 13/35/40
f 26/1/1 16/16/2 15/2/1
f 4/7/6 5/36/41 6/8/7
f 11/10/9 12/37/42 13/11/10
f 12/37/42 9/38/43 13/11/10
f 9/38/43 10/17/44 1/19/45
f 1/19/45 13/11/10 9/38/43
f 13/11/10 14/39/46 8/12/11
f 25/15/14 19/25/47 9/40/48
f 19/25/47 10/28/49 9/40/48
f 25/15/14 9/40/48 12/41/50
f 12/41/50 11/42/51 25/15/14
f 11/42/51 8/13/12 25/15/14
f 7/9/15 15/2/52 16/16/15
f 10/17/17 17/43/53 2/18/18
f 1/19/20 2/18/54 3/20/21
f 24/21/23 6/44/55 5/22/23
f 21/27/56 19/25/26 20/24/25
f 19/25/26 25/15/57 22/26/27
f 24/21/28 23/23/58 26/1/28
f 21/27/30 17/45/59 10/28/31
f 2/46/60 17/33/37 4/47/61
f 17/33/37 5/48/62 4/47/61
f 26/49/63 23/32/36 21/34/38
f 26/49/63 21/34/38 20/50/64
f 3/30/34 2/46/60 16/31/35
f 2/46/60 4/47/61 16/31/35
f 16/31/35 26/49/63 18/29/33
f 26/49/63 20/50/64 18/29/33
f 23/32/36 5/48/62 17/33/37
f 13/35/40 3/51/65 22/4/3
f 3/51/65 18/52/66 22/4/3
f 18/52/66 20/53/67 22/4/3
s 0
g blade_Material
usemtl Material
f 29/54/68 64/55/68 28/56/68
f 29/54/68 63/57/68 64/55/68
f 29/54/68 62/58/68 63/57/68
f 29/54/68 61/59/68 62/58/68
f 29/54/68 30/60/68 61/59/68
f 30/60/68 39/61/68 61/59/68
f 39/61/68 40/62/68 61/59/68
f 40/62/68 60/63/68 61/59/68
f 31/64/68 39/61/68 30/60/68
f 31/64/68 38/65/68 39/61/68
f 41/66/68 60/63/68 40/62/68
f 32/67/68 38/65/68 31/64/68
f 32/67/68 37/68/68 38/65/68
f 42/69/68 60/63/68 41/66/68
f 42/69/68 59/70/68 60/63/68
f 33/71/68 37/68/68 32/67/68
f 33/71/68 34/72/68 37/68/68
f 34/72/68 35/73/68 37/68/68
f 35/73/68 36/74/68 37/68/68
f 43/75/68 59/70/68 42/69/68
f 43/75/68 58/76/68 59/70/68
f 44/77/68 58/76/68 43/75/68
f 50/78/68 48/79/68 49/80/68
f 45/81/68 58/76/68 44/77/68
f 50/78/68 47/82/68 48/79/68
f 46/83/68 58/76/68 45/81/68
f 50/78/68 46/83/68 47/82/68
f 50/78/68 58/76/68 46/83/68
f 51/84/68 58/76/68 50/78/68
f 51/84/68 57/85/68 58/76/68
f 52/86/68 57/85/68 51/84/68
f 52/86/68 56/87/68 57/85/68
f 52/86/68 55/88/68 56/87/68
f 53/89/68 55/88/68 52/86/68
f 53/89/68 54/90/68 55/88/68
f 92/91/68 98/92/68 99/93/68
f 93/94/68 98/92/68 92/91/68
f 93/94/68 97/95/68 98/92/68
f 94/96/68 97/95/68 93/94/68
f 94/96/68 96/97/68 97/95/68
f 95/98/68 96/97/68 94/96/68
f 117/99/68 131/100/68 116/101/68
f 117/99/68 130/102/68 131/100/68
f 119/103/68 105/104/68 118/105/68
f 105/104/68 117/99/68 118/105/68
f 105/104/68 130/102/68 117/99/68
f 105/104/68 129/106/68 130/102/68
f 105/104/68 106/107/68 129/106/68
f 106/107/68 114/108/68 129/106/68
f 114/108/68 115/109/68 129/106/68
f 115/109/68 128/110/68 129/106/68
f 119/103/68 104/111/68 105/104/68
f 107/112/68 114/108/68 106/107/68
f 107/112/68 113/113/68 114/108/68
f 112/114/68 128/110/68 115/109/68
f 119/103/68 100/115/68 104/111/68
f 100/115/68 107/112/68 104/111/68
f 100/115/68 113/113/68 107/112/68
f 100/115/68 112/114/68 113/113/68
f 100/115/68 101/116/68 112/114/68
f 101/116/68 111/117/68 112/114/68
f 111/117/68 108/118/68 112/114/68
f 108/118/68 128/110/68 112/114/68
f 119/103/68 103/119/68 100/115/68
f 102/120/68 111/117/68 101/116/68
f 102/120/68 110/121/68 111/117/68
f 109/122/68 128/110/68 108/118/68
f 119/103/68 121/123/68 103/119/68
f 121/123/68 102/120/68 103/119/68
f 121/123/68 110/121/68 102/120/68
f 121/123/68 109/122/68 110/121/68
f 121/123/68 122/124/68 109/122/68
f 122/124/68 125/125/68 109/122/68
f 125/125/68 126/126/68 109/122/68
f 126/126/68 128/110/68 109/122/68
f 119/103/68 120/127/68 121/123/68
f 123/128/68 125/125/68 122/124/68
f 123/128/68 124/129/68 125/125/68
f 127/130/68 128/110/68 126/126/68
f 91/131/68 89/132/68 90/133/68
f 66/134/68 91/131/68 65/135/68
f 66/134/68 89/132/68 91/131/68
f 66/134/68 67/136/68 89/132/68
f 67/136/68 88/137/68 89/132/68
f 68/138/68 88/137/68 67/136/68
f 68/138/68 87/139/68 88/137/68
f 68/138/68 86/140/68 87/139/68
f 69/141/68 86/140/68 68/138/68
f 69/141/68 85/142/68 86/140/68
f 69/141/68 79/143/68 85/142/68
f 79/143/68 84/144/68 85/142/68
f 70/145/68 79/143/68 69/141/68
f 70/145/68 76/146/68 79/143/68
f 76/146/68 78/147/68 79/143/68
f 80/148/68 84/144/68 79/143/68
f 80/148/68 83/149/68 84/144/68
f 70/145/68 75/150/68 76/146/68
f 77/151/68 78/147/68 76/146/68
f 81/152/68 83/149/68 80/148/68
f 81/152/68 82/153/68 83/149/68
f 71/154/68 75/150/68 70/145/68
f 71/154/68 74/155/68 75/150/68
f 72/156/68 74/155/68 71/154/68
f 72/156/68 73/157/68 74/155/68
f 181/158/68 191/159/68 192/160/68
f 182/161/68 191/159/68 181/158/68
f 182/161/68 190/162/68 191/159/68
f 183/163/68 190/162/68 182/161/68
f 183/163/68 189/164/68 190/162/68
f 184/165/68 189/164/68 183/163/68
f 186/166/68 184/165/68 185/167/68
f 186/166/68 189/164/68 184/165/68
f 186/166/68 188/168/68 189/164/68
f 186/166/68 187/169/68 188/168/68
f 202/170/68 200/171/68 201/172/68
f 194/173/68 213/174/68 193/175/68
f 203/176/68 200/171/68 202/170/68
f 194/173/68 212/177/68 213/174/68
f 195/178/68 212/177/68 194/173/68
f 203/176/68 199/179/68 200/171/68
f 204/180/68 199/179/68 203/176/68
f 195/178/68 211/181/68 212/177/68
f 204/180/68 198/182/68 199/179/68
f 196/183/68 211/181/68 195/178/68
f 205/184/68 198/182/68 204/180/68
f 196/183/68 210/185/68 211/181/68
f 205/184/68 197/186/68 198/182/68
f 207/187/68 205/184/68 206/188/68
f 207/187/68 197/186/68 205/184/68
f 207/187/68 196/183/68 197/186/68
f 207/187/68 210/185/68 196/183/68
f 207/187/68 209/189/68 210/185/68
f 207/187/68 208/190/68 209/189/68
f 223/191/68 219/192/68 222/193/68
f 219/192/68 243/194/68 222/193/68
f 219/192/68 220/195/68 243/194/68
f 220/195/68 242/196/68 243/194/68
f 223/191/68 218/197/68 219/192/68
f 221/198/68 242/196/68 220/195/68
f 223/191/68 214/199/68 218/197/68
f 214/199/68 221/198/68 218/197/68
f 214/199/68 215/200/68 221/198/68
f 215/200/68 242/196/68 221/198/68
f 223/191/68 217/201/68 214/199/68
f 216/202/68 242/196/68 215/200/68
f 223/191/68 225/203/68 217/201/68
f 225/203/68 216/202/68 217/201/68
f 225/203/68 226/204/68 216/202/68
f 226/204/68 242/196/68 216/202/68
f 223/191/68 224/205/68 225/203/68
f 227/206/68 242/196/68 226/204/68
f 228/207/68 242/196/68 227/206/68
f 228/207/68 241/208/68 242/196/68
f 229/209/68 241/208/68 228/207/68
f 230/210/68 241/208/68 229/209/68
f 234/211/68 232/212/68 233/213/68
f 231/214/68 241/208/68 230/210/68
f 234/211/68 231/214/68 232/212/68
f 234/211/68 241/208/68 231/214/68
f 234/211/68 240/215/68 241/208/68
f 235/216/68 240/215/68 234/211/68
f 235/216/68 239/217/68 240/215/68
f 236/218/68 239/217/68 235/216/68
f 236/218/68 238/219/68 239/217/68
f 236/218/68 237/220/68 238/219/68
f 177/221/68 175/222/68 176/223/68
f 177/221/68 174/224/68 175/222/68
f 177/221/68 171/225/68 174/224/68
f 171/225/68 173/226/68 174/224/68
f 171/225/68 172/227/68 173/226/68
f 177/221/68 170/228/68 171/225/68
f 177/221/68 169/229/68 170/228/68
f 177/221/68 178/230/68 169/229/68
f 178/230/68 168/231/68 169/229/68
f 179/232/68 168/231/68 178/230/68
f 132/233/68 179/232/68 180/234/68
f 132/233/68 168/231/68 179/232/68
f 133/235/68 167/236/68 132/233/68
f 167/236/68 168/231/68 132/233/68
f 133/235/68 166/237/68 167/236/68
f 133/235/68 163/238/68 166/237/68
f 163/238/68 165/239/68 166/237/68
f 163/238/68 164/240/68 165/239/68
f 133/235/68 162/241/68 163/238/68
f 133/235/68 159/242/68 162/241/68
f 159/242/68 161/243/68 162/241/68
f 159/242/68 160/244/68 161/243/68
f 133/235/68 158/245/68 159/242/68
f 133/235/68 155/246/68 158/245/68
f 155/246/68 157/247/68 158/245/68
f 155/246/68 156/248/68 157/247/68
f 133/235/68 154/249/68 155/246/68
f 146/250/68 144/251/68 145/252/68
f 146/250/68 143/253/68 144/251/68
f 146/250/68 142/254/68 143/253/68
f 146/250/68 141/255/68 142/254/68
f 134/256/68 154/249/68 133/235/68
f 134/256/68 153/257/68 154/249/68
f 147/258/68 141/255/68 146/250/68
f 134/256/68 152/259/68 153/257/68
f 148/260/68 141/255/68 147/258/68
f 134/256/68 151/261/68 152/259/68
f 134/256/68 150/262/68 151/261/68
f 134/256/68 149/263/68 150/262/68
f 134/256/68 148/260/68 149/263/68
f 134/256/68 141/255/68 148/260/68
f 134/256/68 140/264/68 141/255/68
f 135/265/68 140/264/68 134/256/68
f 135/265/68 139/266/68 140/264/68
f 136/267/68 139/266/68 135/265/68
f 137/268/69 139/268/69 136/268/69
f 138/269/70 139/270/70 137/271/70
f 245/272/71 244/273/71 280/274/71
f 245/272/71 280/274/71 279/275/71
f 245/272/71 279/275/71 278/276/71
f 245/272/71 278/276/71 277/277/71
f 245/272/71 277/277/71 246/278/71
f 246/278/71 277/277/71 255/279/71
f 255/279/71 277/277/71 256/280/71
f 256/280/71 277/277/71 276/281/71
f 247/282/71 246/278/71 255/279/71
f 247/282/71 255/279/71 254/283/71
f 257/284/71 256/280/71 276/281/71
f 248/285/71 247/282/71 254/283/71
f 248/285/71 254/283/71 253/286/71
f 258/287/71 257/284/71 276/281/71
f 258/287/71 276/281/71 275/288/71
f 249/289/71 248/285/71 253/286/71
f 249/289/71 253/286/71 250/290/71
f 250/290/71 253/286/71 251/291/71
f 251/291/71 253/286/71 252/292/71
f 259/293/71 258/287/71 275/288/71
f 259/293/71 275/288/71 274/294/71
f 260/295/71 259/293/71 274/294/71
f 266/296/71 265/297/71 264/298/71
f 261/299/71 260/295/71 274/294/71
f 266/296/71 264/298/71 263/300/71
f 262/301/71 261/299/71 274/294/71
f 266/296/71 263/300/71 262/301/71
f 266/296/71 262/301/71 274/294/71
f 267/302/71 266/296/71 274/294/71
f 267/302/71 274/294/71 273/303/71
f 268/304/71 267/302/71 273/303/71
f 268/304/71 273/303/71 272/305/71
f 268/304/71 272/305/71 271/306/71
f 269/307/71 268/304/71 271/306/71
f 269/307/71 271/306/71 270/308/71
f 308/309/71 315/310/71 314/311/71
f 309/312/71 308/309/71 314/311/71
f 309/312/71 314/311/71 313/313/71
f 310/314/71 309/312/71 313/313/71
f 310/314/71 313/313/71 312/315/71
f 311/316/71 310/314/71 312/315/71
f 333/317/71 332/318/71 347/319/71
f 333/317/71 347/319/71 346/320/71
f 335/321/71 334/322/71 321/323/71
f 321/323/71 334/322/71 333/317/71
f 321/323/71 333/317/71 346/320/71
f 321/323/71 346/320/71 345/324/71
f 321/323/71 345/324/71 322/325/71
f 322/325/71 345/324/71 330/326/71
f 330/326/71 345/324/71 331/327/71
f 331/327/71 345/324/71 344/328/71
f 335/321/71 321/323/71 320/329/71
f 323/330/71 322/325/71 330/326/71
f 323/330/71 330/326/71 329/331/71
f 328/332/71 331/327/71 344/328/71
f 335/321/71 320/329/71 316/333/71
f 316/333/71 320/329/71 323/330/71
f 316/333/71 323/330/71 329/331/71
f 316/333/71 329/331/71 328/332/71
f 316/333/71 328/332/71 317/334/71
f 317/334/71 328/332/71 327/335/71
f 327/335/71 328/332/71 324/336/71
f 324/336/71 328/332/71 344/328/71
f 335/321/71 316/333/71 319/337/71
f 318/338/71 317/334/71 327/335/71
f 318/338/71 327/335/71 326/339/71
f 325/340/71 324/336/71 344/328/71
f 335/321/71 319/337/71 337/341/71
f 337/341/71 319/337/71 318/338/71
f 337/341/71 318/338/71 326/339/71
f 337/341/71 326/339/71 325/340/71
f 337/341/71 325/340/71 338/342/71
f 338/342/71 325/340/71 341/343/71
f 341/343/71 325/340/71 342/344/71
f 342/344/71 325/340/71 344/328/71
f 335/321/71 337/341/71 336/345/71
f 339/346/71 338/342/71 341/343/71
f 339/346/71 341/343/71 340/347/71
f 343/348/71 342/344/71 344/328/71
f 307/349/71 306/350/71 305/351/71
f 282/352/71 281/353/71 307/349/71
f 282/352/71 307/349/71 305/351/71
f 282/352/71 305/351/71 283/354/71
f 283/354/71 305/351/71 304/355/71
f 284/356/71 283/354/71 304/355/71
f 284/356/71 304/355/71 303/357/71
f 284/356/71 303/357/71 302/358/71
f 285/359/71 284/356/71 302/358/71
f 285/359/71 302/358/71 301/360/71
f 285/359/71 301/360/71 295/361/71
f 295/361/71 301/360/71 300/362/71
f 286/363/71 285/359/71 295/361/71
f 286/363/71 295/361/71 292/364/71
f 292/364/71 295/361/71 294/365/71
f 296/366/71 295/361/71 300/362/71
f 296/366/71 300/362/71 299/367/71
f 286/363/71 292/364/71 291/368/71
f 293/369/71 292/364/71 294/365/71
f 297/370/71 296/366/71 299/367/71
f 297/370/71 299/367/71 298/371/71
f 287/372/71 286/363/71 291/368/71
f 287/372/71 291/368/71 290/373/71
f 288/374/71 287/372/71 290/373/71
f 288/374/71 290/373/71 289/375/71
f 397/376/71 408/377/71 407/378/71
f 398/379/71 397/376/71 407/378/71
f 398/379/71 407/378/71 406/380/71
f 399/381/71 398/379/71 406/380/71
f 399/381/71 406/380/71 405/382/71
f 400/383/71 399/381/71 405/382/71
f 402/166/71 401/384/71 400/383/71
f 402/166/71 400/383/71 405/382/71
f 402/166/71 405/382/71 404/385/71
f 402/166/71 404/385/71 403/169/71
f 418/386/71 417/387/71 416/388/71
f 410/389/71 409/390/71 429/391/71
f 419/392/71 418/386/71 416/388/71
f 410/389/71 429/391/71 428/393/71
f 411/394/71 410/389/71 428/393/71
f 419/392/71 416/388/71 415/395/71
f 420/396/71 419/392/71 415/395/71
f 411/394/71 428/393/71 427/397/71
f 420/396/71 415/395/71 414/398/71
f 412/399/71 411/394/71 427/397/71
f 421/400/71 420/396/71 414/398/71
f 412/399/71 427/397/71 426/401/71
f 421/400/71 414/398/71 413/402/71
f 423/403/71 422/404/71 421/400/71
f 423/403/71 421/400/71 413/402/71
f 423/403/71 413/402/71 412/399/71
f 423/403/71 412/399/71 426/401/71
f 423/403/71 426/401/71 425/405/71
f 423/403/71 425/405/71 424/406/71
f 439/407/71 438/408/71 435/409/71
f 435/409/71 438/408/71 459/410/71
f 435/409/71 459/410/71 436/411/71
f 436/411/71 459/410/71 458/412/71
f 439/407/71 435/409/71 434/413/71
f 437/414/71 436/411/71 458/412/71
f 439/407/71 434/413/71 430/415/71
f 430/415/71 434/413/71 437/414/71
f 430/415/71 437/414/71 431/416/71
f 431/416/71 437/414/71 458/412/71
f 439/407/71 430/415/71 433/417/71
f 432/418/71 431/416/71 458/412/71
f 439/407/71 433/417/71 441/419/71
f 441/419/71 433/417/71 432/418/71
f 441/419/71 432/418/71 442/420/71
f 442/420/71 432/418/71 458/412/71
f 439/407/71 441/419/71 440/421/71
f 443/422/71 442/420/71 458/412/71
f 444/423/71 443/422/71 458/412/71
f 444/423/71 458/412/71 457/424/71
f 445/425/71 444/423/71 457/424/71
f 446/426/71 445/425/71 457/424/71
f 450/427/71 449/428/71 448/429/71
f 447/430/71 446/426/71 457/424/71
f 450/427/71 448/429/71 447/430/71
f 450/427/71 447/430/71 457/424/71
f 450/427/71 457/424/71 456/431/71
f 451/432/71 450/427/71 456/431/71
f 451/432/71 456/431/71 455/433/71
f 452/434/71 451/432/71 455/433/71
f 452/434/71 455/433/71 454/435/71
f 452/434/71 454/435/71 453/436/71
f 393/437/71 392/438/71 391/439/71
f 393/437/71 391/439/71 390/440/71
f 393/437/71 390/440/71 387/441/71
f 387/441/71 390/440/71 389/442/71
f 387/441/71 389/442/71 388/443/71
f 393/437/71 387/441/71 386/444/71
f 393/437/71 386/444/71 385/445/71
f 393/437/71 385/445/71 394/446/71
f 394/446/71 385/445/71 384/447/71
f 395/448/71 394/446/71 384/447/71
f 348/449/71 396/450/71 395/448/71
f 348/449/71 395/448/71 384/447/71
f 349/451/71 348/449/71 383/452/71
f 383/452/71 348/449/71 384/447/71
f 349/451/71 383/452/71 382/453/71
f 349/451/71 382/453/71 379/454/71
f 379/454/71 382/453/71 381/455/71
f 379/454/71 381/455/71 380/456/71
f 349/451/71 379/454/71 378/457/71
f 349/451/71 378/457/71 375/458/71
f 375/458/71 378/457/71 377/459/71
f 375/458/71 377/459/71 376/460/71
f 349/451/71 375/458/71 374/461/71
f 349/451/71 374/461/71 371/462/71
f 371/462/71 374/461/71 373/463/71
f 371/462/71 373/463/71 372/464/71
f 349/451/71 371/462/71 370/465/71
f 362/466/71 361/467/71 360/468/71
f 362/466/71 360/468/71 359/469/71
f 362/466/71 359/469/71 358/470/71
f 362/466/71 358/470/71 357/471/71
f 350/472/71 349/451/71 370/465/71
f 350/472/71 370/465/71 369/473/71
f 363/474/71 362/466/71 357/471/71
f 350/472/71 369/473/71 368/475/71
f 364/476/71 363/474/71 357/471/71
f 350/472/71 368/475/71 367/477/71
f 350/472/71 367/477/71 366/478/71
f 350/472/71 366/478/71 365/479/71
f 350/472/71 365/479/71 364/476/71
f 350/472/71 364/476/71 357/471/71
f 350/472/71 357/471/71 356/480/71
f 351/481/71 350/472/71 356/480/71
f 351/481/71 356/480/71 355/482/71
f 352/483/71 351/481/71 355/482/71
f 353/268/69 352/268/69 355/268/69
f 354/484/70 353/485/70 355/486/70
f 29/487/72 28/488/72 244/489/72 245/490/72
f 28/491/73 64/492/73 280/493/73 244/494/73
f 64/495/74 63/496/74 279/497/74 280/498/74
f 63/499/75 62/500/75 278/501/75 279/502/75
f 62/503/76 61/504/76 277/505/76 278/506/76
f 30/507/70 29/508/70 245/509/70 246/510/70
f 40/511/70 39/512/70 255/513/70 256/514/70
f 61/504/77 60/515/77 276/516/77 277/505/77
f 31/517/78 30/518/78 246/519/78 247/520/78
f 39/521/79 38/522/79 254/523/79 255/524/79
f 41/525/80 40/526/80 256/527/80 257/528/80
f 32/529/81 31/530/81 247/531/81 248/532/81
f 38/533/82 37/534/82 253/535/82 254/536/82
f 42/537/78 41/538/78 257/539/78 258/540/78
f 60/541/83 59/542/83 275/543/83 276/544/83
f 33/545/84 32/546/84 248/547/84 249/548/84
f 34/549/85 33/550/85 249/551/85 250/552/85
f 35/553/86 34/554/86 250/555/86 251/556/86
f 36/557/87 35/558/87 251/559/87 252/560/87
f 37/561/88 36/562/88 252/563/88 253/564/88
f 43/565/89 42/566/89 258/567/89 259/568/89
f 59/569/90 58/570/90 274/571/90 275/572/90
f 44/573/91 43/574/91 259/575/91 260/576/91
f 50/577/92 49/578/92 265/579/92 266/551/92
f 49/580/93 48/581/93 264/582/93 265/583/93
f 45/584/94 44/585/94 260/586/94 261/587/94
f 48/588/95 47/589/95 263/590/95 264/591/95
f 46/592/96 45/593/96 261/594/96 262/595/96
f 47/596/97 46/597/97 262/598/97 263/599/97
f 51/600/98 50/601/98 266/602/98 267/603/98
f 58/604/99 57/605/99 273/606/99 274/607/99
f 52/608/100 51/609/100 267/610/100 268/611/100
f 57/612/101 56/613/101 272/614/101 273/615/101
f 56/616/102 55/617/102 271/618/102 272/619/102
f 53/620/103 52/621/103 268/622/103 269/623/103
f 54/624/104 53/625/104 269/626/104 270/627/104
f 55/628/105 54/629/105 270/630/105 271/631/105
f 92/632/106 99/633/106 315/634/106 308/635/106
f 99/636/107 98/637/107 314/638/107 315/639/107
f 93/640/108 92/641/108 308/642/108 309/643/108
f 98/644/109 97/645/109 313/646/109 314/647/109
f 94/648/110 93/649/110 309/650/110 310/651/110
f 97/652/111 96/653/111 312/654/111 313/655/111
f 95/656/112 94/657/112 310/658/112 311/659/112
f 96/660/113 95/661/113 311/662/113 312/663/113
f 117/664/72 116/519/72 332/518/72 333/665/72
f 116/666/73 131/667/73 347/668/73 332/669/73
f 131/670/114 130/671/114 346/672/114 347/673/114
f 119/674/72 118/675/72 334/676/72 335/677/72
f 118/678/73 117/679/73 333/680/73 334/681/73
f 130/682/73 129/683/73 345/684/73 346/685/73
f 106/686/70 105/687/70 321/664/70 322/688/70
f 115/689/70 114/690/70 330/691/70 331/692/70
f 129/693/114 128/694/114 344/695/114 345/696/114
f 105/697/114 104/698/114 320/699/114 321/700/114
f 107/701/72 106/702/72 322/703/72 323/704/72
f 114/705/114 113/706/114 329/707/114 330/708/114
f 112/709/72 115/710/72 331/711/72 328/712/72
f 104/688/73 107/713/73 323/714/73 320/715/73
f 113/716/73 112/717/73 328/718/73 329/719/73
f 101/720/70 100/721/70 316/722/70 317/723/70
f 108/724/70 111/725/70 327/726/70 324/727/70
f 100/728/114 103/729/114 319/679/114 316/730/114
f 102/731/72 101/732/72 317/733/72 318/734/72
f 111/735/114 110/736/114 326/737/114 327/738/114
f 109/739/72 108/740/72 324/732/72 325/731/72
f 103/741/73 102/742/73 318/743/73 319/744/73
f 110/745/73 109/746/73 325/747/73 326/748/73
f 122/749/70 121/750/70 337/751/70 338/752/70
f 126/753/70 125/754/70 341/755/70 342/756/70
f 120/757/70 119/758/70 335/759/70 336/760/70
f 121/761/114 120/762/114 336/763/114 337/764/114
f 123/765/72 122/766/72 338/767/72 339/768/72
f 124/669/70 123/769/70 339/770/70 340/666/70
f 125/771/114 124/523/114 340/522/114 341/772/114
f 127/773/72 126/774/72 342/775/72 343/776/72
f 128/777/70 127/778/70 343/779/70 344/780/70
f 91/781/115 90/782/115 306/783/115 307/784/115
f 90/785/116 89/786/116 305/787/116 306/788/116
f 66/789/72 65/790/72 281/727/72 282/791/72
f 65/169/73 91/792/73 307/793/73 281/794/73
f 67/795/70 66/796/70 282/797/70 283/798/70
f 89/799/117 88/800/117 304/801/117 305/802/117
f 68/803/118 67/804/118 283/805/118 284/806/118
f 88/807/119 87/489/119 303/808/119 304/809/119
f 87/810/120 86/811/120 302/812/120 303/813/120
f 69/814/121 68/815/121 284/816/121 285/817/121
f 86/818/122 85/819/122 301/820/122 302/821/122
f 85/822/123 84/823/123 300/824/123 301/825/123
f 70/826/124 69/827/124 285/828/124 286/829/124
f 79/830/114 78/831/114 294/832/114 295/833/114
f 80/834/125 79/835/125 295/836/125 296/837/125
f 84/838/126 83/839/126 299/840/126 300/783/126
f 76/841/127 75/842/127 291/843/127 292/844/127
f 77/845/72 76/846/72 292/847/72 293/848/72
f 78/849/70 77/850/70 293/851/70 294/852/70
f 81/853/128 80/743/128 296/854/128 297/855/128
f 82/856/129 81/857/129 297/858/129 298/859/129
f 83/860/130 82/861/130 298/862/130 299/863/130
f 71/864/131 70/865/131 286/866/131 287/867/131
f 75/868/132 74/869/132 290/870/132 291/871/132
f 72/872/133 71/620/133 287/623/133 288/873/133
f 73/874/134 72/875/134 288/876/134 289/877/134
f 74/878/135 73/879/135 289/880/135 290/881/135
f 181/882/136 192/883/136 408/884/136 397/885/136
f 192/886/137 191/887/137 407/888/137 408/889/137
f 182/890/138 181/891/138 397/892/138 398/893/138
f 191/894/139 190/895/139 406/896/139 407/897/139
f 183/898/140 182/899/140 398/900/140 399/901/140
f 190/902/141 189/903/141 405/904/141 406/905/141
f 184/906/142 183/907/142 399/908/142 400/909/142
f 186/621/72 185/816/72 401/910/72 402/622/72
f 185/911/73 184/912/73 400/913/73 401/914/73
f 189/915/73 188/916/73 404/917/73 405/918/73
f 187/919/70 186/920/70 402/921/70 403/922/70
f 188/923/114 187/747/114 403/746/114 404/924/114
f 202/925/143 201/602/143 417/601/143 418/926/143
f 201/927/144 200/928/144 416/929/144 417/930/144
f 194/578/145 193/923/145 409/924/145 410/579/145
f 193/931/146 213/932/146 429/933/146 409/934/146
f 203/935/147 202/936/147 418/937/147 419/938/147
f 213/939/148 212/940/148 428/941/148 429/942/148
f 195/943/149 194/944/149 410/945/149 411/946/149
f 200/819/150 199/947/150 415/948/150 416/949/150
f 204/599/151 203/950/151 419/651/151 420/596/151
f 212/951/152 211/775/152 427/952/152 428/953/152
f 199/954/153 198/955/153 414/956/153 415/957/153
f 196/958/154 195/959/154 411/960/154 412/961/154
f 205/962/155 204/963/155 420/912/155 421/964/155
f 211/965/156 210/966/156 426/967/156 427/968/156
f 198/969/157 197/970/157 413/971/157 414/972/157
f 207/973/72 206/974/72 422/975/72 423/976/72
f 206/977/73 205/978/73 421/979/73 422/980/73
f 197/981/73 196/982/73 412/496/73 413/983/73
f 210/984/73 209/985/73 425/986/73 426/987/73
f 208/988/70 207/989/70 423/990/70 424/991/70
f 209/992/114 208/993/114 424/994/114 425/995/114
f 223/996/72 222/997/72 438/998/72 439/529/72
f 222/999/73 243/1000/73 459/548/73 438/1001/73
f 220/1002/70 219/1003/70 435/1004/70 436/1005/70
f 243/1006/114 242/1007/114 458/1008/114 459/1009/114
f 219/1010/114 218/1011/114 434/1012/114 435/1013/114
f 221/1014/72 220/1015/72 436/1016/72 437/1017/72
f 218/1018/73 221/1019/73 437/1020/73 434/1021/73
f 215/1022/70 214/1023/70 430/1024/70 431/1025/70
f 214/1026/114 217/671/114 433/1027/114 430/1028/114
f 216/672/72 215/1029/72 431/1030/72 432/1031/72
f 217/1032/73 216/1033/73 432/1034/73 433/1035/73
f 226/1036/70 225/1037/70 441/780/70 442/1038/70
f 224/1039/70 223/1040/70 439/1041/70 440/1042/70
f 225/828/114 224/1043/114 440/1044/114 441/169/114
f 227/1045/72 226/1046/72 442/1047/72 443/1048/72
f 228/1049/158 227/1050/158 443/1051/158 444/1052/158
f 242/1053/159 241/868/159 457/871/159 458/1054/159
f 229/1055/160 228/1056/160 444/1057/160 445/1058/160
f 230/552/161 229/1059/161 445/1060/161 446/549/161
f 234/1061/162 233/1062/162 449/1063/162 450/718/162
f 233/1064/163 232/1065/163 448/1066/163 449/1067/163
f 231/1068/164 230/1069/164 446/1070/164 447/1071/164
f 232/1072/73 231/1073/73 447/1074/73 448/1075/73
f 241/1076/165 240/1077/165 456/1078/165 457/1079/165
f 235/595/166 234/1053/166 450/1054/166 451/592/166
f 240/1080/167 239/1081/167 455/1082/167 456/1083/167
f 236/1084/168 235/906/168 451/909/168 452/1085/168
f 239/1086/169 238/1087/169 454/1088/169 455/1089/169
f 237/1090/170 236/1091/170 452/1092/170 453/1093/170
f 238/1094/171 237/1095/171 453/1096/171 454/1097/171
f 177/1098/72 176/1099/72 392/1100/72 393/1101/72
f 176/1102/73 175/1103/73 391/1104/73 392/1105/73
f 175/1106/114 174/1107/114 390/1108/114 391/1109/114
f 174/1110/73 173/1111/73 389/1112/73 390/1113/73
f 172/1114/70 171/527/70 387/526/70 388/1115/70
f 173/1116/114 172/1117/114 388/1118/114 389/1119/114
f 171/1120/114 170/986/114 386/978/114 387/1121/114
f 170/1122/73 169/1123/73 385/1124/73 386/503/73
f 178/1125/70 177/1126/70 393/1127/70 394/1128/70
f 169/1111/114 168/1129/114 384/1130/114 385/1131/114
f 179/1132/72 178/1133/72 394/1134/72 395/794/72
f 132/1135/72 180/1136/72 396/772/72 348/1137/72
f 180/848/73 179/1138/73 395/1139/73 396/1140/73
f 133/1141/72 132/1135/72 348/1137/72 349/1142/72
f 168/1126/70 167/1143/70 383/1144/70 384/1145/70
f 167/1146/114 166/1147/114 382/1148/114 383/1149/114
f 166/1150/73 165/1151/73 381/1152/73 382/1153/73
f 164/1154/70 163/1155/70 379/536/70 380/1156/70
f 165/723/114 164/954/114 380/957/114 381/720/114
f 163/1157/114 162/1158/114 378/1159/114 379/1160/114
f 162/725/73 161/690/73 377/1161/73 378/1000/73
f 160/1000/70 159/1162/70 375/1163/70 376/725/70
f 161/1164/114 160/1165/114 376/752/114 377/1166/114
f 159/1167/114 158/1168/114 374/821/114 375/1169/114
f 158/922/73 157/1170/73 373/1171/73 374/919/73
f 156/1172/70 155/1173/70 371/991/70 372/1174/70
f 157/1175/114 156/1176/114 372/1177/114 373/1178/114
f 155/1179/114 154/1180/114 370/1181/114 371/1182/114
f 146/1183/172 145/1184/172 361/1185/172 362/584/172
f 145/1186/173 144/1187/173 360/1188/173 361/1189/173
f 144/1190/174 143/1191/174 359/1192/174 360/1193/174
f 143/1194/175 142/1195/175 358/1196/175 359/1197/175
f 142/1198/176 141/759/176 357/1199/176 358/1200/176
f 134/1201/177 133/1202/177 349/710/177 350/1203/177
f 154/1204/178 153/1071/178 369/576/178 370/1205/178
f 147/1206/179 146/1207/179 362/1208/179 363/1209/179
f 153/893/180 152/1210/180 368/1211/180 369/890/180
f 148/1212/181 147/1213/181 363/1214/181 364/1215/181
f 152/603/182 151/1186/182 367/1189/182 368/600/182
f 151/1216/73 150/1217/73 366/1218/73 367/652/73
f 150/1217/73 149/1219/73 365/1220/73 366/1218/73
f 149/1219/73 148/1221/73 364/1222/73 365/1220/73
f 141/1223/183 140/1224/183 356/1225/183 357/1226/183
f 135/1227/184 134/1228/184 350/1229/184 351/1230/184
f 140/1231/185 139/939/185 355/942/185 356/496/185
f 136/1232/186 135/190/186 351/641/186 352/1233/186
f 137/1234/70 136/962/70 352/964/70 353/1092/70
f 138/985/72 137/985/72 353/985/72 354/985/72
f 139/985/72 138/985/72 354/985/72 355/985/72
s 1
g blade_default
usemtl default
f 460/1235/187 461/1236/188 464/1237/189
f 460/1235/187 466/1238/190 461/1236/188
f 465/1239/191 462/1240/192 460/1235/187
f 460/1235/187 463/1241/193 466/1238/190
f 464/1237/189 465/1239/191 460/1235/187
f 466/1238/190 463/1241/193 467/1242/194
f 461/1243/195 466/1244/196 468/1245/197
f 466/1244/196 467/1246/198 469/1247/199
f 471/1248/200 468/1245/197 466/1244/196
f 469/1247/199 470/1249/201 466/1244/196
f 470/1249/201 471/1248/200 466/1244/196
f 472/1250/202 471/1251/203 473/1252/204
f 468/1253/205 471/1251/203 472/1250/202
f 470/1249/201 473/1254/206 471/1248/200
f 473/1252/204 470/1255/207 474/1256/208
f 473/1252/204 474/1256/208 472/1250/202
f 475/1257/209 474/1258/210 470/1259/211
f 463/1241/193 475/1257/212 467/1242/194
f 475/1257/209 470/1259/211 469/1260/213
f 475/1257/212 469/1260/214 467/1242/194
f 468/1253/205 472/1250/202 476/1261/215
f 468/1253/205 476/1261/215 477/1262/216
f 462/1240/217 478/1263/218 477/1262/219
f 477/1262/216 478/1263/220 479/1264/221
f 477/1262/216 479/1264/221 468/1253/205
f 468/1245/197 479/1265/222 478/1266/223
f 478/1266/223 465/1267/224 468/1245/197
f 462/1240/217 465/1239/225 478/1263/218
f 468/1245/197 465/1267/224 461/1243/195
f 464/1268/226 461/1243/195 465/1267/224
f 481/1269/227 480/1270/228 483/1271/227
f 481/1272/229 482/1273/229 480/1274/229
f 482/1275/230 483/1276/230 480/1277/230
f 482/1275/230 484/1278/230 483/1276/230
f 484/1279/231 485/1280/231 483/1281/231
f 483/1271/227 485/1282/228 486/1283/228
f 486/1283/228 481/1269/227 483/1271/227
f 487/1284/228 486/1283/228 485/1282/228
f 487/1285/232 488/1286/232 486/1287/232
f 486/1288/233 489/1289/233 481/1290/233
f 486/1288/233 488/1291/233 489/1289/233
f 481/1272/229 489/1292/229 482/1273/229
f 484/1293/234 482/1294/235 489/1295/234
f 489/1295/234 488/1296/234 490/1297/234
f 490/1297/234 484/1293/234 489/1295/234
f 490/1298/236 491/1299/236 492/1300/236
f 491/1301/234 490/1297/234 488/1296/234
f 484/1279/231 490/1302/231 485/1280/231
f 490/1298/236 492/1300/236 485/1303/236
f 485/1282/228 492/1304/228 487/1284/228
f 492/1304/228 493/1305/228 487/1284/228
f 491/1306/237 493/1307/237 492/1308/237
f 493/1305/228 494/1309/228 496/1310/228
f 495/1311/238 494/1312/238 493/1313/238
f 491/1306/237 495/1314/237 493/1307/237
f 487/1284/228 493/1305/228 496/1310/228
f 497/1315/228 496/1310/228 494/1309/228
f 497/1316/239 498/1317/239 496/1318/239
f 496/1319/240 499/1320/240 487/1321/240
f 496/1319/240 498/1322/240 499/1320/240
f 487/1285/232 499/1323/232 488/1286/232
f 488/1296/234 499/1324/234 491/1301/234
f 499/1324/234 498/1325/234 491/1301/234
f 497/1316/239 500/1326/239 498/1317/239
f 498/1325/234 500/1327/241 495/1328/235
f 491/1301/234 498/1325/234 495/1328/235
f 504/1329/242 501/1330/242 500/1331/242
f 500/1327/241 501/1332/234 502/1333/234
f 504/1329/242 500/1331/242 497/1334/243
f 503/1335/234 495/1328/235 500/1327/241
f 502/1333/234 503/1335/234 500/1327/241
f 505/1336/228 504/1337/228 506/1338/228
f 505/1339/244 501/1340/244 504/1341/244
f 504/1337/228 497/1315/228 494/1309/228
f 494/1309/228 506/1338/228 504/1337/228
f 503/1342/245 506/1343/245 494/1344/245
f 506/1338/228 507/1345/228 505/1336/228
f 502/1346/246 507/1347/246 506/1348/246
f 503/1342/245 502/1349/245 506/1343/245
f 507/1345/228 508/1350/228 505/1336/228
f 509/1351/247 508/1352/247 507/1353/247
f 502/1346/246 509/1354/246 507/1347/246
f 509/1351/247 510/1355/247 508/1352/247
f 509/1356/234 512/1357/234 510/1358/234
f 509/1356/234 502/1333/234 501/1332/234
f 501/1332/234 511/1359/234 509/1356/234
f 511/1359/234 512/1357/234 509/1356/234
f 514/1360/248 512/1361/248 511/1362/248
f 515/1363/249 513/1364/249 512/1365/249
f 512/1357/234 513/1366/234 510/1358/234
f 515/1363/249 512/1365/249 514/1367/249
f 516/1368/228 515/1369/228 517/1370/228
f 516/1371/250 513/1372/250 515/1373/250
f 515/1369/228 514/1374/228 517/1370/228
f 508/1350/228 517/1370/228 514/1374/228
f 510/1375/251 517/1376/251 508/1377/251
f 517/1370/228 518/1378/228 516/1368/228
f 519/1379/252 518/1380/252 517/1381/252
f 510/1375/251 519/1382/251 517/1376/251
f 519/1379/252 520/1383/252 518/1380/252
f 520/1384/234 519/1385/234 513/1366/234
f 519/1385/234 510/1358/234 513/1366/234
f 520/1386/253 521/1387/254 523/1388/253
f 521/1389/234 520/1384/234 522/1390/234
f 520/1386/253 523/1388/253 518/1391/253
f 513/1366/234 522/1390/234 520/1384/234
f 518/1378/228 523/1392/227 525/1393/227
f 523/1392/227 524/1394/228 525/1393/227
f 521/1395/255 524/1396/255 523/1397/255
f 525/1393/227 524/1394/228 526/1398/228
f 526/1399/256 527/1400/256 525/1401/256
f 525/1393/227 516/1368/228 518/1378/228
f 525/1402/257 522/1403/257 516/1404/257
f 525/1402/257 527/1405/257 522/1403/257
f 522/1390/234 527/1406/234 521/1389/234
f 526/1399/256 528/1407/256 527/1400/256
f 527/1406/234 528/1408/234 521/1389/234
f 531/1409/258 529/1410/258 528/1411/258
f 528/1408/234 529/1412/259 530/1413/234
f 531/1409/258 528/1411/258 526/1414/258
f 521/1389/234 528/1408/234 530/1413/234
f 532/1415/228 531/1416/228 533/1417/228
f 532/1418/260 529/1419/260 531/1420/260
f 531/1416/228 526/1398/228 533/1417/228
f 524/1394/228 533/1417/228 526/1398/228
f 530/1421/261 533/1422/261 524/1423/261
f 533/1417/228 534/1424/228 532/1415/228
f 535/1425/262 534/1426/262 533/1427/262
f 530/1421/261 535/1428/261 533/1422/261
f 535/1425/262 536/1429/262 534/1426/262
f 536/1430/263 535/1431/264 537/1432/263
f 535/1431/264 530/1413/234 529/1412/259
f 529/1412/259 537/1432/263 535/1431/264
f 540/1433/265 537/1434/266 538/1435/267
f 529/1412/259 538/1436/268 537/1432/263
f 539/1437/269 537/1438/270 540/1439/271
f 537/1432/263 539/1440/272 541/1441/263
f 541/1441/263 536/1430/263 537/1432/263
f 542/1442/273 541/1443/274 539/1444/274
f 536/1445/275 541/1446/275 542/1447/275
f 534/1424/228 542/1448/227 540/1449/227
f 536/1445/275 542/1447/275 534/1450/275
f 542/1448/227 543/1451/228 540/1449/227
f 542/1442/273 539/1444/274 543/1452/276
f 539/1437/269 540/1439/271 543/1453/277
f 540/1449/227 532/1415/228 534/1424/228
f 540/1433/265 538/1435/267 532/1454/278
f 532/1418/260 538/1455/260 529/1419/260
f 521/1395/255 530/1456/255 524/1396/255
f 516/1371/250 522/1457/250 513/1372/250
f 505/1336/228 508/1350/228 514/1374/228
f 514/1360/248 511/1362/248 505/1458/248
f 505/1339/244 511/1459/244 501/1340/244
f 495/1311/238 503/1460/238 494/1312/238
