# Blender 4.5.5 LTS
# www.blender.org
mtllib dragon_god_sword_sheathed.mtl
o dragon_godsword_sheathed
v -0.016433 0.061732 -2.125000
v -0.019306 0.052608 -2.117921
v 0.016434 0.061732 -2.125000
v -0.016433 0.044118 -0.099443
v -0.019306 0.034994 -0.099523
v 0.016434 0.044118 -0.099443
v -0.006729 0.029584 -0.057517
v 0.006731 0.029584 -0.057517
v -0.006799 0.005227 -0.057730
v -0.019306 -0.038708 -0.100167
v 0.000001 -0.036579 -0.058094
v -0.016433 -0.047833 -0.100247
v 0.016434 -0.047833 -0.100247
v 0.006799 0.005227 -0.057730
v 0.019308 -0.038708 -0.100167
v 0.019308 0.034994 -0.099523
v 0.019308 0.052608 -2.117921
v 0.019307 -0.021094 -2.065184
v -0.019306 -0.021094 -2.065184
v 0.016434 -0.030218 -2.057560
v -0.016433 -0.030218 -2.057560
v -0.019306 0.034389 -0.030308
v -0.016433 0.043513 -0.030228
v 0.016434 0.043513 -0.030228
v -0.006729 0.029346 -0.030352
v 0.006731 0.029346 -0.030352
v -0.006799 0.004989 -0.030565
v -0.019306 -0.039313 -0.030951
v 0.000001 -0.036817 -0.030929
v -0.016433 -0.048437 -0.031032
v 0.016434 -0.048437 -0.031032
v 0.006799 0.004989 -0.030565
v 0.019308 -0.039313 -0.030951
v 0.019308 0.034389 -0.030308
v -0.005666 0.016588 -1.990842
v -0.008179 0.005124 -0.080543
v -0.009493 0.029459 -0.080370
v -0.008181 -0.000676 -0.080578
v 0.000785 -0.037908 -0.080790
v 0.000501 -0.038304 -0.029645
v -0.008263 -0.000980 -0.029365
v 0.001054 0.029801 -2.087251
v 0.003175 -0.011831 -2.021255
v 0.003615 -0.021047 -1.991050
v 0.002058 0.010360 -2.063724
v 0.002517 0.001329 -2.048676
v -0.006891 0.041252 -2.045746
v 0.000415 0.041959 -2.096695
v -0.010773 0.030467 -0.029181
v -0.010691 0.030770 -0.080364
v 0.000680 -0.035969 -0.080772
v -0.002873 0.029817 -0.080357
v 0.008786 0.017368 -1.990814
v 0.003747 0.030174 -0.080344
v 0.005062 0.005839 -0.080517
v 0.007543 0.041970 -2.035265
v 0.005688 0.000073 -0.080551
v 0.005606 -0.000231 -0.029337
v 0.007560 0.042032 -2.045718
v 0.004797 0.031606 -0.080334
v 0.004715 0.031303 -0.029152
v 0.017793 -0.038041 -0.016423
v 0.017332 -0.041196 0.514327
v 0.014191 0.029857 -0.017436
v 0.015663 -0.046614 -0.017835
v -0.014607 -0.048260 -0.018547
v 0.010630 -0.049747 0.514267
v -0.010439 -0.051382 0.514204
v -0.018253 -0.043117 0.514251
v -0.017694 -0.040004 -0.019090
v -0.021921 0.024804 0.514683
v -0.021363 0.027917 -0.018640
v -0.014858 0.033355 0.514741
v 0.013664 0.026725 0.514757
v 0.006208 0.034991 0.514804
v 0.011094 0.038119 -0.017613
v -0.019166 0.036466 -0.018691
v -0.001222 0.061863 -0.028940
v -0.001382 0.061780 -0.018470
v 0.011268 0.060583 -0.028755
v -0.013713 0.060600 -0.029138
v -0.025725 0.056842 -0.029340
v -0.013873 0.060516 -0.018667
v -0.025886 0.056759 -0.018869
v -0.036958 0.050650 -0.019068
v -0.046665 0.042426 -0.019256
v -0.036798 0.050733 -0.029538
v -0.046504 0.042509 -0.029726
v -0.054472 0.032485 -0.029896
v -0.060396 0.021047 -0.030041
v -0.054633 0.032402 -0.019426
v -0.060556 0.020963 -0.019571
v -0.064207 0.008550 -0.019686
v -0.065445 -0.004362 -0.019765
v -0.064047 0.008633 -0.030156
v -0.065284 -0.004278 -0.030236
v -0.064062 -0.017191 -0.030278
v -0.060426 -0.029609 -0.030281
v -0.064223 -0.017275 -0.019808
v -0.060587 -0.029693 -0.019811
v -0.054677 -0.041140 -0.019775
v -0.046721 -0.051174 -0.019700
v -0.054517 -0.041056 -0.030245
v -0.046561 -0.051091 -0.030171
v -0.036864 -0.059328 -0.030061
v -0.025799 -0.065452 -0.029920
v -0.037024 -0.059412 -0.019591
v -0.025959 -0.065536 -0.019450
v -0.013875 -0.069305 -0.019028
v -0.001385 -0.070590 -0.019092
v -0.013791 -0.069226 -0.029754
v -0.001301 -0.070507 -0.029569
v 0.011190 -0.069243 -0.029371
v 0.023202 -0.065486 -0.029169
v 0.011029 -0.069327 -0.018901
v 0.023042 -0.065569 -0.018699
v 0.034114 -0.059460 -0.018500
v 0.043821 -0.051236 -0.018312
v 0.034275 -0.059377 -0.028970
v 0.043982 -0.051153 -0.028783
v 0.051950 -0.041129 -0.028613
v 0.057873 -0.029690 -0.028468
v 0.051789 -0.041212 -0.018142
v 0.057712 -0.029774 -0.017998
v 0.061363 -0.017360 -0.017883
v 0.062601 -0.004449 -0.017803
v 0.061524 -0.017277 -0.028353
v 0.062762 -0.004365 -0.028273
v 0.061539 0.008548 -0.028231
v 0.057904 0.020966 -0.028227
v 0.061379 0.008464 -0.017760
v 0.057743 0.020882 -0.017757
v 0.051833 0.032329 -0.017793
v 0.043877 0.042364 -0.017868
v 0.051994 0.032413 -0.028264
v 0.044038 0.042447 -0.028338
v 0.034341 0.050685 -0.028448
v 0.023276 0.056809 -0.028589
v 0.034180 0.050601 -0.017977
v 0.023115 0.056725 -0.018118
v 0.011107 0.060499 -0.018284
v 0.016234 -0.045471 0.514297
v -0.016702 -0.047250 0.514227
v -0.020824 0.029080 0.514712
v 0.012112 0.030858 0.514781
v 0.001604 0.024699 -0.182945
v 0.001604 0.024699 -0.185349
v 0.001604 0.018163 -0.185349
v 0.001604 0.018727 -0.193268
v 0.001604 0.020810 -0.200913
v 0.001604 0.025645 -0.206788
v 0.001604 0.025169 -0.207388
v 0.001604 0.024731 -0.208095
v 0.001604 0.024398 -0.208780
v 0.001604 0.019309 -0.202340
v 0.001604 0.017038 -0.194023
v 0.001604 0.016378 -0.185349
v 0.001604 0.008789 -0.185349
v 0.001604 0.009113 -0.196300
v 0.001604 0.009567 -0.202677
v 0.001604 0.010208 -0.205365
v 0.001604 0.010478 -0.205701
v 0.001604 0.010797 -0.205861
v 0.001604 0.011197 -0.205902
v 0.001604 0.012042 -0.205894
v 0.001604 0.013304 -0.205837
v 0.001604 0.014809 -0.205681
v 0.001604 0.014524 -0.206506
v 0.001604 0.014326 -0.207416
v 0.001604 0.014228 -0.208242
v 0.001604 0.012851 -0.208357
v 0.001604 0.011578 -0.208380
v 0.001604 0.010573 -0.208305
v 0.001604 0.009824 -0.208104
v 0.001604 0.009208 -0.207664
v 0.001604 0.008660 -0.206851
v 0.001604 0.007893 -0.203705
v 0.001604 0.007419 -0.196674
v 0.001604 0.007068 -0.184337
v 0.001604 0.007053 -0.183807
v 0.001604 0.007048 -0.183222
v 0.001604 0.007047 -0.182945
v 0.001604 0.025430 -0.147056
v 0.001604 0.025430 -0.149238
v 0.001604 0.019969 -0.149238
v 0.001604 0.021592 -0.153080
v 0.001604 0.023635 -0.156473
v 0.001604 0.025860 -0.159072
v 0.001604 0.025600 -0.159719
v 0.001604 0.025339 -0.160585
v 0.001604 0.025151 -0.161380
v 0.001604 0.024258 -0.160359
v 0.001604 0.023356 -0.159197
v 0.001604 0.022463 -0.157902
v 0.001604 0.022463 -0.170677
v 0.001604 0.020979 -0.170677
v 0.001604 0.020979 -0.156985
v 0.001604 0.020143 -0.158426
v 0.001604 0.019358 -0.159854
v 0.001604 0.018765 -0.161001
v 0.001604 0.017797 -0.159040
v 0.001604 0.018529 -0.157883
v 0.001604 0.019624 -0.156234
v 0.001604 0.020657 -0.154740
v 0.001604 0.019653 -0.152574
v 0.001604 0.018773 -0.150275
v 0.001604 0.018055 -0.147878
v 0.001604 0.018872 -0.146961
v 0.001604 0.019152 -0.147056
v 0.001604 0.023194 -0.142692
v 0.001604 0.022453 -0.144099
v 0.001604 0.021770 -0.145576
v 0.001604 0.021259 -0.146898
v 0.001604 0.019947 -0.145633
v 0.001604 0.020480 -0.144396
v 0.001604 0.021185 -0.142991
v 0.001604 0.021947 -0.141649
v 0.001604 0.015862 -0.155277
v 0.001604 0.012852 -0.155277
v 0.001604 0.012852 -0.159767
v 0.001604 0.015862 -0.159767
v 0.001604 0.015862 -0.153159
v 0.001604 0.015862 -0.148763
v 0.001604 0.012852 -0.148763
v 0.001604 0.012852 -0.153159
v 0.001604 0.008208 -0.155277
v 0.001604 0.008208 -0.159767
v 0.001604 0.011283 -0.159767
v 0.001604 0.011283 -0.155277
v 0.001604 0.008208 -0.153159
v 0.001604 0.011283 -0.153159
v 0.001604 0.011283 -0.148763
v 0.001604 0.008208 -0.148763
v 0.001604 0.012852 -0.141617
v 0.001604 0.012852 -0.146613
v 0.001604 0.017346 -0.146613
v 0.001604 0.017346 -0.163404
v 0.001604 0.015862 -0.163404
v 0.001604 0.015862 -0.161918
v 0.001604 0.012852 -0.161918
v 0.001604 0.012852 -0.170677
v 0.001604 0.011283 -0.170677
v 0.001604 0.011283 -0.161918
v 0.001604 0.008208 -0.161918
v 0.001604 0.008208 -0.163182
v 0.001604 0.006660 -0.163182
v 0.001604 0.006660 -0.146613
v 0.001604 0.011283 -0.146613
v 0.001604 0.011283 -0.141617
v 0.001604 0.014658 -0.116510
v 0.001604 0.014658 -0.129317
v 0.001604 0.014427 -0.131342
v 0.001604 0.013613 -0.132319
v 0.001604 0.012035 -0.132574
v 0.001604 0.010899 -0.132574
v 0.006311 0.009180 -0.132574
v 0.001604 0.008058 -0.132574
v 0.001604 0.006768 -0.132246
v 0.001604 0.006071 -0.131089
v 0.001604 0.005757 -0.128842
v 0.001604 0.006249 -0.128635
v 0.001604 0.006756 -0.128343
v 0.001604 0.007176 -0.127989
v 0.001604 0.007303 -0.129616
v 0.001604 0.007593 -0.130387
v 0.001604 0.008165 -0.130581
v 0.001604 0.009305 -0.130581
v 0.001604 0.010837 -0.130581
v 0.001604 0.011863 -0.130581
v 0.001604 0.012649 -0.130485
v 0.001604 0.013005 -0.130108
v 0.001604 0.013089 -0.129317
v 0.001604 0.013089 -0.127957
v 0.001604 0.006918 -0.127957
v 0.001604 0.006918 -0.126407
v 0.001604 0.013089 -0.126407
v 0.001604 0.013089 -0.124384
v 0.001604 0.007133 -0.124384
v 0.001604 0.007133 -0.122803
v 0.001604 0.013089 -0.122803
v 0.001604 0.013089 -0.120874
v 0.001604 0.007025 -0.120874
v 0.001604 0.007025 -0.119293
v 0.001604 0.013089 -0.119293
v 0.001604 0.013089 -0.117332
v 0.001604 0.007004 -0.117332
v 0.001604 0.007004 -0.110724
v 0.001604 0.013089 -0.110724
v 0.001604 0.013089 -0.108162
v 0.001604 0.006165 -0.108162
v 0.001604 0.006165 -0.106170
v 0.001604 0.013089 -0.106170
v 0.001604 0.013089 -0.103672
v 0.001604 0.014658 -0.103672
v 0.001604 0.014658 -0.112621
v 0.001604 0.008574 -0.112621
v 0.001604 0.008574 -0.115467
v 0.001604 0.014658 -0.115467
v 0.001604 0.021797 -0.104052
v 0.001604 0.021584 -0.104800
v 0.001604 0.021386 -0.105612
v 0.001604 0.021216 -0.106423
v 0.001604 0.025258 -0.106423
v 0.001604 0.025258 -0.108478
v 0.001604 0.016120 -0.108478
v 0.001604 0.016120 -0.106423
v 0.001604 0.019668 -0.106423
v 0.001604 0.019877 -0.105472
v 0.001604 0.020139 -0.104465
v 0.001604 0.020420 -0.103514
v 0.001604 0.018765 -0.108763
v 0.001604 0.019053 -0.110067
v 0.001604 0.019437 -0.111497
v 0.001604 0.019840 -0.112842
v 0.001604 0.022184 -0.112842
v 0.001604 0.021689 -0.112652
v 0.001604 0.021883 -0.111447
v 0.001604 0.022176 -0.110074
v 0.001604 0.022528 -0.108763
v 0.001604 0.023839 -0.109206
v 0.001604 0.023544 -0.110423
v 0.001604 0.023288 -0.111689
v 0.001604 0.023108 -0.112842
v 0.001604 0.025645 -0.112842
v 0.001604 0.025645 -0.114898
v 0.001604 0.015733 -0.114898
v 0.001604 0.015733 -0.112842
v 0.001604 0.018399 -0.112842
v 0.001604 0.018029 -0.111705
v 0.001604 0.017659 -0.110491
v 0.001604 0.017303 -0.109269
v 0.001604 0.022936 -0.122487
v 0.001604 0.018313 -0.122487
v 0.001604 0.018313 -0.124795
v 0.001604 0.022936 -0.124795
v 0.001604 0.022936 -0.120811
v 0.001604 0.022936 -0.118566
v 0.001604 0.018313 -0.118566
v 0.001604 0.018313 -0.120811
v 0.001604 0.024463 -0.116763
v 0.001604 0.024463 -0.132763
v 0.001604 0.022936 -0.132763
v 0.001604 0.022936 -0.126471
v 0.001604 0.018313 -0.126471
v 0.001604 0.018313 -0.129917
v 0.001604 0.018345 -0.130188
v 0.001604 0.018454 -0.130332
v 0.001604 0.018657 -0.130392
v 0.001604 0.019079 -0.130413
v 0.001604 0.019763 -0.130413
v 0.001604 0.020614 -0.130392
v 0.001604 0.020408 -0.131076
v 0.001604 0.020211 -0.131837
v 0.001604 0.020076 -0.132542
v 0.001604 0.018980 -0.132520
v 0.001604 0.018098 -0.132406
v 0.001604 0.017432 -0.132131
v 0.001604 0.017009 -0.131658
v 0.001604 0.016787 -0.130960
v 0.001604 0.016722 -0.129981
v 0.001604 0.016722 -0.116763
v 0.006311 0.024699 -0.182945
v 0.006311 0.024699 -0.185349
v 0.006311 0.018163 -0.185349
v 0.006311 0.018727 -0.193268
v 0.006311 0.020810 -0.200913
v 0.006311 0.025645 -0.206788
v 0.006311 0.025169 -0.207388
v 0.006311 0.024731 -0.208095
v 0.006311 0.024398 -0.208780
v 0.006311 0.019309 -0.202340
v 0.006311 0.017038 -0.194023
v 0.006311 0.016378 -0.185349
v 0.006311 0.008789 -0.185349
v 0.006311 0.009113 -0.196300
v 0.006311 0.009567 -0.202677
v 0.006311 0.010208 -0.205365
v 0.006311 0.010478 -0.205701
v 0.006311 0.010797 -0.205861
v 0.006311 0.011197 -0.205902
v 0.006311 0.012042 -0.205894
v 0.006311 0.013304 -0.205837
v 0.006311 0.014809 -0.205681
v 0.006311 0.014524 -0.206506
v 0.006311 0.014326 -0.207416
v 0.006311 0.014228 -0.208242
v 0.006311 0.012851 -0.208357
v 0.006311 0.011578 -0.208380
v 0.006311 0.010573 -0.208305
v 0.006311 0.009824 -0.208104
v 0.006311 0.009208 -0.207664
v 0.006311 0.008660 -0.206851
v 0.006311 0.007893 -0.203705
v 0.006311 0.007419 -0.196674
v 0.006311 0.007068 -0.184337
v 0.006311 0.007053 -0.183807
v 0.006311 0.007048 -0.183222
v 0.006311 0.007047 -0.182945
v 0.006311 0.025430 -0.147056
v 0.006311 0.025430 -0.149238
v 0.006311 0.019969 -0.149238
v 0.006311 0.021592 -0.153080
v 0.006311 0.023635 -0.156473
v 0.006311 0.025860 -0.159072
v 0.006311 0.025600 -0.159719
v 0.006311 0.025339 -0.160585
v 0.006311 0.025151 -0.161380
v 0.006311 0.024258 -0.160359
v 0.006311 0.023356 -0.159197
v 0.006311 0.022463 -0.157902
v 0.006311 0.022463 -0.170677
v 0.006311 0.020979 -0.170677
v 0.006311 0.020979 -0.156985
v 0.006311 0.020143 -0.158426
v 0.006311 0.019358 -0.159854
v 0.006311 0.018765 -0.161001
v 0.006311 0.017797 -0.159040
v 0.006311 0.018529 -0.157883
v 0.006311 0.019624 -0.156234
v 0.006311 0.020657 -0.154740
v 0.006311 0.019653 -0.152574
v 0.006311 0.018773 -0.150275
v 0.006311 0.018055 -0.147878
v 0.006311 0.018872 -0.146961
v 0.006311 0.019152 -0.147056
v 0.006311 0.023194 -0.142692
v 0.006311 0.022453 -0.144099
v 0.006311 0.021770 -0.145576
v 0.006311 0.021259 -0.146898
v 0.006311 0.019947 -0.145633
v 0.006311 0.020480 -0.144396
v 0.006311 0.021185 -0.142991
v 0.006311 0.021947 -0.141649
v 0.006311 0.015862 -0.155277
v 0.006311 0.012852 -0.155277
v 0.006311 0.012852 -0.159767
v 0.006311 0.015862 -0.159767
v 0.006311 0.015862 -0.153159
v 0.006311 0.015862 -0.148763
v 0.006311 0.012852 -0.148763
v 0.006311 0.012852 -0.153159
v 0.006311 0.008208 -0.155277
v 0.006311 0.008208 -0.159767
v 0.006311 0.011283 -0.159767
v 0.006311 0.011283 -0.155277
v 0.006311 0.008208 -0.153159
v 0.006311 0.011283 -0.153159
v 0.006311 0.011283 -0.148763
v 0.006311 0.008208 -0.148763
v 0.006311 0.012852 -0.141617
v 0.006311 0.012852 -0.146613
v 0.006311 0.017346 -0.146613
v 0.006311 0.017346 -0.163404
v 0.006311 0.015862 -0.163404
v 0.006311 0.015862 -0.161918
v 0.006311 0.012852 -0.161918
v 0.006311 0.012852 -0.170677
v 0.006311 0.011283 -0.170677
v 0.006311 0.011283 -0.161918
v 0.006311 0.008208 -0.161918
v 0.006311 0.008208 -0.163182
v 0.006311 0.006660 -0.163182
v 0.006311 0.006660 -0.146613
v 0.006311 0.011283 -0.146613
v 0.006311 0.011283 -0.141617
v 0.006311 0.014658 -0.116510
v 0.006311 0.014658 -0.129317
v 0.006311 0.014427 -0.131342
v 0.006311 0.013613 -0.132319
v 0.006311 0.012035 -0.132574
v 0.006311 0.010899 -0.132574
v 0.001604 0.009180 -0.132574
v 0.006311 0.008058 -0.132574
v 0.006311 0.006768 -0.132246
v 0.006311 0.006071 -0.131089
v 0.006311 0.005757 -0.128842
v 0.006311 0.006249 -0.128635
v 0.006311 0.006756 -0.128343
v 0.006311 0.007176 -0.127989
v 0.006311 0.007303 -0.129616
v 0.006311 0.007593 -0.130387
v 0.006311 0.008165 -0.130581
v 0.006311 0.009305 -0.130581
v 0.006311 0.010837 -0.130581
v 0.006311 0.011863 -0.130581
v 0.006311 0.012649 -0.130485
v 0.006311 0.013005 -0.130108
v 0.006311 0.013089 -0.129317
v 0.006311 0.013089 -0.127957
v 0.006311 0.006918 -0.127957
v 0.006311 0.006918 -0.126407
v 0.006311 0.013089 -0.126407
v 0.006311 0.013089 -0.124384
v 0.006311 0.007133 -0.124384
v 0.006311 0.007133 -0.122803
v 0.006311 0.013089 -0.122803
v 0.006311 0.013089 -0.120874
v 0.006311 0.007025 -0.120874
v 0.006311 0.007025 -0.119293
v 0.006311 0.013089 -0.119293
v 0.006311 0.013089 -0.117332
v 0.006311 0.007004 -0.117332
v 0.006311 0.007004 -0.110724
v 0.006311 0.013089 -0.110724
v 0.006311 0.013089 -0.108162
v 0.006311 0.006165 -0.108162
v 0.006311 0.006165 -0.106170
v 0.006311 0.013089 -0.106170
v 0.006311 0.013089 -0.103672
v 0.006311 0.014658 -0.103672
v 0.006311 0.014658 -0.112621
v 0.006311 0.008574 -0.112621
v 0.006311 0.008574 -0.115467
v 0.006311 0.014658 -0.115467
v 0.006311 0.021797 -0.104052
v 0.006311 0.021584 -0.104800
v 0.006311 0.021386 -0.105612
v 0.006311 0.021216 -0.106423
v 0.006311 0.025258 -0.106423
v 0.006311 0.025258 -0.108478
v 0.006311 0.016120 -0.108478
v 0.006311 0.016120 -0.106423
v 0.006311 0.019668 -0.106423
v 0.006311 0.019877 -0.105472
v 0.006311 0.020139 -0.104465
v 0.006311 0.020420 -0.103514
v 0.006311 0.018765 -0.108763
v 0.006311 0.019053 -0.110067
v 0.006311 0.019437 -0.111497
v 0.006311 0.019840 -0.112842
v 0.006311 0.022184 -0.112842
v 0.006311 0.021689 -0.112652
v 0.006311 0.021883 -0.111447
v 0.006311 0.022176 -0.110074
v 0.006311 0.022528 -0.108763
v 0.006311 0.023839 -0.109206
v 0.006311 0.023544 -0.110423
v 0.006311 0.023288 -0.111689
v 0.006311 0.023108 -0.112842
v 0.006311 0.025645 -0.112842
v 0.006311 0.025645 -0.114898
v 0.006311 0.015733 -0.114898
v 0.006311 0.015733 -0.112842
v 0.006311 0.018399 -0.112842
v 0.006311 0.018029 -0.111705
v 0.006311 0.017659 -0.110491
v 0.006311 0.017303 -0.109269
v 0.006311 0.022936 -0.122487
v 0.006311 0.018313 -0.122487
v 0.006311 0.018313 -0.124795
v 0.006311 0.022936 -0.124795
v 0.006311 0.022936 -0.120811
v 0.006311 0.022936 -0.118566
v 0.006311 0.018313 -0.118566
v 0.006311 0.018313 -0.120811
v 0.006311 0.024463 -0.116763
v 0.006311 0.024463 -0.132763
v 0.006311 0.022936 -0.132763
v 0.006311 0.022936 -0.126471
v 0.006311 0.018313 -0.126471
v 0.006311 0.018313 -0.129917
v 0.006311 0.018345 -0.130188
v 0.006311 0.018454 -0.130332
v 0.006311 0.018657 -0.130392
v 0.006311 0.019079 -0.130413
v 0.006311 0.019763 -0.130413
v 0.006311 0.020614 -0.130392
v 0.006311 0.020408 -0.131076
v 0.006311 0.020211 -0.131837
v 0.006311 0.020076 -0.132542
v 0.006311 0.018980 -0.132520
v 0.006311 0.018098 -0.132406
v 0.006311 0.017432 -0.132131
v 0.006311 0.017009 -0.131658
v 0.006311 0.016787 -0.130960
v 0.006311 0.016722 -0.129981
v 0.006311 0.016722 -0.116763
vn -0.9258 0.3770 0.0273
vn -0.9248 0.3802 -0.0172
vn -0.0032 -0.6608 -0.7506
vn -0.0000 -0.6446 -0.7645
vn 0.0032 -0.6608 -0.7506
vn -0.0000 0.9974 0.0721
vn -0.9855 -0.1647 0.0418
vn -0.6191 -0.7818 0.0746
vn -0.9893 -0.1387 -0.0448
vn 0.6192 0.7816 -0.0752
vn 0.9880 0.1472 0.0461
vn 0.9867 0.1565 -0.0438
vn -0.6191 0.7818 -0.0746
vn 0.5580 0.8248 0.0911
vn 0.5580 -0.8248 -0.0911
vn -0.5573 -0.8251 -0.0929
vn 0.9939 -0.1093 0.0117
vn 0.9808 -0.1947 -0.0145
vn -0.9806 0.1960 0.0060
vn -0.5573 0.8251 0.0929
vn 0.9870 0.1605 0.0014
vn 0.6192 -0.7816 0.0752
vn 0.9258 0.3771 0.0273
vn 0.9248 0.3802 -0.0172
vn 0.9242 0.3818 0.0126
vn 1.0000 -0.0000 -0.0000
vn 0.0039 -0.6582 -0.7528
vn -0.0039 -0.6582 -0.7528
vn -0.0015 -0.6876 -0.7261
vn 0.9258 -0.3771 -0.0274
vn 0.9240 -0.3824 -0.0049
vn 0.9256 -0.3777 0.0262
vn -0.0000 -0.9974 -0.0724
vn -0.9258 -0.3770 -0.0274
vn -0.9239 -0.3825 -0.0049
vn -1.0000 -0.0000 -0.0000
vn -0.0000 0.0533 0.9986
vn -0.0000 0.0534 0.9986
vn 0.0002 0.0534 0.9986
vn -0.9942 0.1071 -0.0034
vn -0.9870 0.1605 0.0014
vn -0.0000 -1.0000 -0.0087
vn 1.0000 -0.0028 -0.0000
vn -1.0000 -0.0028 -0.0000
vn -0.0533 0.9985 0.0156
vn -0.0545 0.9985 -0.0040
vn -0.0637 0.9979 0.0064
vn -0.0635 0.9979 0.0079
vn -0.0443 0.9990 0.0041
vn -0.9738 -0.2205 -0.0555
vn -0.9738 -0.2204 -0.0554
vn -0.9694 -0.2414 0.0449
vn -0.9574 -0.2776 -0.0793
vn -0.9819 -0.1243 -0.1432
vn -0.9517 -0.2821 -0.1210
vn 0.9865 -0.0176 -0.1630
vn 0.9855 -0.1319 -0.1071
vn 0.9851 -0.0223 -0.1707
vn -0.9975 -0.0685 -0.0197
vn -0.9958 -0.0906 0.0155
vn -0.9710 -0.2348 0.0449
vn -0.9710 -0.2347 0.0450
vn -0.9756 -0.2136 -0.0517
vn -0.9989 -0.0457 0.0123
vn -0.9978 -0.0650 0.0103
vn -0.9983 -0.0563 -0.0179
vn 0.9923 -0.1198 0.0312
vn 0.9897 -0.1410 -0.0256
vn 0.9978 0.0648 -0.0096
vn 0.9989 0.0457 -0.0119
vn 0.9991 0.0421 -0.0091
vn 0.9998 0.0172 0.0080
vn 0.9992 0.0392 -0.0045
vn 0.9938 -0.1077 0.0269
vn 0.9938 -0.1077 0.0270
vn 0.9913 -0.1289 -0.0257
vn 0.0094 0.0062 -0.9999
vn -0.0006 0.0142 -0.9999
vn -0.0004 0.0138 -0.9999
vn -0.0137 0.0078 -0.9999
vn 0.0096 0.0079 -0.9999
vn -0.0011 0.0068 -1.0000
vn -0.0441 0.9990 0.0069
vn -0.0636 0.9980 0.0052
vn 0.8851 -0.4641 -0.0342
vn 0.8895 -0.4520 0.0674
vn 0.9699 -0.2433 0.0127
vn 0.9366 0.3502 0.0160
vn 0.9725 -0.2324 0.0129
vn 0.0633 -0.9979 -0.0157
vn 0.0632 -0.9979 -0.0157
vn 0.0643 -0.9979 0.0039
vn -0.8267 -0.5559 0.0871
vn -0.7978 -0.5908 -0.1204
vn -0.9334 -0.3585 -0.0142
vn -0.9700 0.2429 -0.0109
vn -0.9359 -0.3519 -0.0140
vn -0.8606 0.5090 -0.0156
vn -0.8706 0.4869 0.0712
vn 0.8450 0.5265 0.0934
vn 0.8383 0.5436 -0.0428
vn 0.7969 0.5962 -0.0972
vn -0.0638 0.9978 0.0155
vn -0.0634 0.9979 0.0155
vn -0.0646 0.9979 -0.0041
vn -0.1007 0.9949 0.0064
vn 0.1018 0.9948 0.0095
vn 0.0153 0.0048 -0.9999
vn 0.0153 0.0047 -0.9999
vn -0.2986 0.9544 0.0030
vn -0.0153 -0.0045 0.9999
vn -0.0151 -0.0045 0.9999
vn -0.4831 0.8756 -0.0004
vn -0.6464 0.7630 -0.0038
vn -0.7827 0.6223 -0.0070
vn -0.8879 0.4599 -0.0099
vn -0.8879 0.4599 -0.0100
vn -0.9593 0.2822 -0.0125
vn -0.9953 0.0955 -0.0145
vn -0.9954 -0.0942 -0.0160
vn -0.9596 -0.2809 -0.0170
vn -0.8884 -0.4587 -0.0173
vn -0.7834 -0.6213 -0.0170
vn -0.6472 -0.7621 -0.0160
vn -0.4840 -0.8749 -0.0144
vn -0.2984 -0.9544 -0.0106
vn -0.2987 -0.9543 -0.0109
vn -0.2986 -0.9543 -0.0108
vn -0.1021 -0.9947 -0.0085
vn -0.1021 -0.9947 -0.0084
vn -0.1022 -0.9947 -0.0084
vn 0.1011 -0.9949 -0.0067
vn 0.1010 -0.9949 -0.0068
vn 0.1010 -0.9949 -0.0067
vn 0.2986 -0.9544 -0.0030
vn 0.4831 -0.8756 0.0004
vn 0.6464 -0.7630 0.0038
vn 0.7827 -0.6223 0.0070
vn 0.8879 -0.4599 0.0100
vn 0.9593 -0.2822 0.0125
vn 0.9953 -0.0955 0.0145
vn 0.9954 0.0942 0.0160
vn 0.9596 0.2809 0.0170
vn 0.8884 0.4587 0.0173
vn 0.7834 0.6213 0.0170
vn 0.6472 0.7621 0.0160
vn 0.4840 0.8749 0.0144
vn 0.2997 0.9540 0.0122
vn -0.0051 -0.0123 0.9999
vn 0.0059 -0.0079 1.0000
vn 0.0054 -0.0032 1.0000
vn -0.9694 -0.2415 0.0449
vn -0.9589 -0.2783 -0.0554
vn -0.9631 -0.2686 -0.0165
vn -0.9662 -0.2327 -0.1110
vn -0.9698 -0.2438 -0.0068
vn -0.9617 -0.2348 -0.1415
vn 0.9937 -0.1108 -0.0177
vn 0.9842 -0.1253 -0.1252
vn 0.9837 -0.1545 -0.0923
vn 0.9859 -0.0954 -0.1373
vn 0.9865 -0.0732 -0.1463
vn -0.9958 -0.0906 0.0156
vn -0.9756 -0.2135 -0.0517
vn -0.9990 -0.0428 -0.0136
vn 0.9897 -0.1409 -0.0256
vn 0.9990 0.0429 0.0142
vn 0.9983 0.0562 0.0180
vn 0.9992 0.0393 -0.0045
vn 0.9913 -0.1289 -0.0256
vn -0.0103 0.0039 -0.9999
vn 0.0016 0.0052 -1.0000
vn 0.0097 0.0079 -0.9999
vn 0.0036 -0.0012 -1.0000
vn 0.0042 -0.0008 -1.0000
vn -0.0534 0.9984 0.0158
vn -0.0533 0.9985 0.0157
vn -0.0544 0.9985 -0.0038
vn 0.8715 -0.4900 0.0188
vn 0.9347 0.3551 0.0148
vn 0.0644 -0.9979 0.0038
vn -0.8375 -0.5442 -0.0501
vn -0.9700 0.2427 -0.0110
vn -0.8821 0.4702 -0.0300
vn -0.0647 0.9979 -0.0041
vn -0.0153 -0.0047 0.9999
vn -0.0153 -0.0044 0.9999
vn -0.2985 -0.9543 -0.0108
vn 0.8879 -0.4599 0.0099
vn -0.0031 -0.0139 0.9999
vn 0.0060 -0.0079 1.0000
vn -0.0079 -0.0106 0.9999
vn 0.0034 -0.0008 1.0000
vn -0.0086 -0.0033 1.0000
vn -0.0002 -0.0138 0.9999
vn 0.0030 -0.0005 1.0000
vn -0.0065 -0.0012 1.0000
vn -0.0000 -0.0000 1.0000
vn -0.0000 -0.0000 -1.0000
vn -0.0000 -0.0000 -0.0000
vn -0.0000 1.0000 -0.0000
vn -0.0000 -1.0000 -0.0029
vn -0.0000 -1.0000 -0.0095
vn -0.0000 -0.9996 -0.0286
vn -0.0000 -0.9996 -0.0284
vn -0.0000 0.9975 0.0710
vn -0.0000 -0.9971 -0.0759
vn -0.0000 0.9996 0.0297
vn -0.0000 0.9648 0.2629
vn -0.0000 -0.9647 -0.2634
vn -0.0000 -0.9977 -0.0673
vn -0.0000 0.7721 0.6355
vn -0.0000 0.7837 -0.6212
vn -0.0000 0.8498 -0.5270
vn -0.0000 0.8995 -0.4370
vn -0.0000 -0.7846 -0.6200
vn -0.0000 0.9728 0.2317
vn -0.0000 -0.9716 -0.2366
vn -0.0000 0.7788 0.6273
vn -0.0000 0.9455 -0.3256
vn -0.0000 -0.1029 0.9947
vn -0.0000 0.4498 0.8931
vn -0.0000 -0.0454 0.9990
vn -0.0000 0.1021 0.9948
vn -0.0000 -0.0097 1.0000
vn -0.0000 0.9771 -0.2129
vn -0.0000 -0.8288 -0.5595
vn -0.0000 0.9930 -0.1178
vn -0.0000 -0.5818 -0.8133
vn -0.0000 -0.2596 -0.9657
vn -0.0000 0.0830 -0.9965
vn -0.0000 0.0184 -0.9998
vn -0.0000 -0.0744 -0.9972
vn -0.0000 0.6418 0.7669
vn -0.0000 -0.8696 0.4938
vn -0.0000 0.8848 -0.4659
vn -0.0000 -0.8939 0.4483
vn -0.0000 0.9076 -0.4199
vn -0.0000 -0.9184 0.3956
vn -0.0000 0.9327 -0.3606
vn -0.0000 -0.6942 -0.7198
vn -0.0000 -1.0000 -0.0000
vn -0.0000 0.3214 0.9469
vn -0.0000 -0.7466 0.6652
vn -0.0000 -0.9580 -0.2867
vn -0.0000 0.9212 0.3891
vn -0.0000 -0.9339 -0.3575
vn -0.0000 -0.9072 -0.4207
vn -0.0000 0.8566 0.5159
vn -0.0000 -0.8226 0.5686
vn -0.0000 -0.8331 0.5532
vn -0.0000 0.7596 0.6504
vn -0.0000 0.8648 -0.5021
vn -0.0000 -0.8451 0.5345
vn -0.0000 -0.8234 -0.5675
vn -0.0000 0.8764 -0.4815
vn -0.0000 0.8881 -0.4596
vn -0.0000 -0.8967 -0.4426
vn -0.0000 0.9278 -0.3731
vn -0.0000 -0.7898 -0.6134
vn -0.0000 0.9576 -0.2881
vn -0.0000 0.9730 -0.2309
vn -0.0000 -0.7529 -0.6581
vn -0.0000 0.3639 0.9314
vn -0.0000 -0.9590 0.2835
vn -0.0000 0.9619 -0.2733
vn -0.0000 -0.9678 0.2517
vn -0.0000 0.9714 -0.2373
vn -0.0000 -0.9766 0.2151
vn -0.0000 0.9789 -0.2046
vn -0.0000 0.3198 0.9475
vn -0.0000 -0.9659 0.2588
vn -0.0000 0.9764 0.2159
vn -0.0000 -0.3270 0.9450
vn -0.0000 0.9719 -0.2353
vn -0.0000 -0.9601 -0.2798
vn -0.0000 0.9658 0.2592
vn -0.0000 -0.9779 0.2092
vn -0.0000 0.9801 -0.1985
vn -0.0000 -0.9565 -0.2916
vn -0.0000 -0.9874 0.1585
vn -0.0000 0.9580 0.2869
vn -0.0000 0.9880 -0.1541
vn -0.0000 -0.9509 -0.3096
vn -0.0000 -0.3582 -0.9336
vn -0.0000 0.9931 0.1169
vn -0.0000 -0.9978 -0.0657
vn -0.0000 0.7993 0.6009
vn -0.0000 0.2812 0.9597
vn -0.0000 0.9574 -0.2887
vn -0.0000 -0.0247 0.9997
vn -0.0000 0.0500 0.9988
vn -0.0000 -0.9529 -0.3033
vn -0.0000 0.9682 -0.2502
vn -0.0000 -0.7456 -0.6664
vn -0.0000 0.9823 -0.1875
vn -0.0000 -0.3816 -0.9243
vn -0.0000 -0.0203 -0.9998
vn -0.0000 -0.1278 -0.9918
vn -0.0000 0.9970 0.0780
vn -0.0000 -0.6450 0.7642
vn -0.0000 -0.4990 0.8666
vn -0.0000 -0.3881 0.9216
vn -0.0000 -0.9903 -0.1387
vn -0.0000 0.9936 -0.1133
vn -0.0000 -0.9945 0.1050
vn -0.0000 0.9360 0.3521
vn -0.0000 -0.7272 0.6864
vn -0.0000 0.3219 0.9468
vn -0.0000 -0.1213 0.9926
vn -0.0000 -0.8567 -0.5159
vn -0.0000 0.7686 -0.6397
vn -0.0000 -0.2465 -0.9691
vn -0.0000 0.1590 -0.9873
vn -0.9242 0.3818 0.0126
vn -0.0000 -0.6445 -0.7646
vn 0.0015 -0.6876 -0.7261
vn 0.9258 -0.3770 -0.0274
vn -0.9255 -0.3777 0.0263
vn -0.0000 -0.1030 0.9947
vn -0.0000 -0.0455 0.9990
vn -0.0000 0.1020 0.9948
vn -0.0000 0.0830 -0.9966
vn -0.0000 0.6417 0.7669
vn -0.0000 -0.8452 0.5345
vn -0.0000 0.3639 0.9315
vn -0.0000 -0.3582 -0.9337
vn -0.0000 0.2813 0.9596
vn -0.0000 -0.3817 -0.9243
vn -0.0000 -0.0202 -0.9998
vn -0.0000 -0.3882 0.9216
vn -0.0000 -0.1212 0.9926
vt 0.637900 0.294300
vt 0.618700 0.766300
vt 0.618700 0.294300
vt 0.875600 0.668900
vt 0.853600 0.582600
vt 0.875600 0.589500
vt 0.180000 0.294300
vt 0.023300 0.766300
vt 0.023300 0.294300
vt 0.793485 0.697868
vt 0.787356 0.697868
vt 0.690592 0.697868
vt 0.696721 0.697868
vt 0.684071 0.697868
vt 0.737853 0.697868
vt 0.731724 0.697868
vt 0.835248 0.697868
vt 0.829183 0.697868
vt 0.000000 0.000000
vt 0.199400 0.766300
vt 0.180000 0.766300
vt 0.199400 0.294300
vt 0.310200 0.766300
vt 0.675600 0.675800
vt 0.675600 0.582600
vt 0.653500 0.589500
vt 0.310200 0.294300
vt 0.329600 0.766300
vt 0.486300 0.294300
vt 0.329600 0.294300
vt 0.505700 0.294300
vt 0.486300 0.766300
vt 0.505700 0.766300
vt 0.853600 0.773100
vt 0.841400 0.742700
vt 0.875600 0.766200
vt 0.875600 0.686800
vt 0.841400 0.710200
vt 0.675600 0.773100
vt 0.782600 0.742900
vt 0.681600 0.726500
vt 0.653500 0.766200
vt 0.653500 0.686800
vt 0.675600 0.679900
vt 0.853600 0.679900
vt 0.782600 0.710100
vt 0.888700 0.718575
vt 0.974500 0.695867
vt 0.974500 0.718499
vt 0.958000 0.856665
vt 0.963000 0.856665
vt 0.987300 0.875384
vt 0.888700 0.639481
vt 0.974387 0.571209
vt 0.974500 0.639481
vt 0.031000 0.922258
vt 0.039600 0.940133
vt 0.019800 0.933151
vt 0.979300 0.982117
vt 0.983800 0.988945
vt 0.959500 0.989022
vt 0.888700 0.695944
vt 0.065500 0.904689
vt 0.995149 0.930888
vt 0.065700 0.926324
vt 0.995149 0.944544
vt 0.974500 0.774962
vt 0.888700 0.843163
vt 0.888700 0.775039
vt 0.015300 0.983484
vt 0.933400 0.975290
vt 0.954600 0.989022
vt 0.015300 0.969752
vt 0.933600 0.953732
vt 0.932100 0.494716
vt 0.963800 0.477685
vt 0.973800 0.479833
vt 0.798000 0.401889
vt 0.711600 0.253136
vt 0.818900 0.422373
vt 0.963100 0.893949
vt 0.330032 0.245391
vt 0.329379 0.427505
vt 0.317057 0.427018
vt 0.203295 0.245395
vt 0.316762 0.245392
vt 0.488671 0.245391
vt 0.488387 0.427301
vt 0.494123 0.245392
vt 0.499575 0.245392
vt 0.615793 0.424784
vt 0.499815 0.425587
vt 0.623397 0.245476
vt 0.654138 0.426183
vt 0.187866 0.427063
vt 0.183412 0.245399
vt 0.193354 0.245397
vt 0.021577 0.245397
vt 0.253285 0.171731
vt 0.269205 0.186372
vt 0.253285 0.186376
vt 0.091311 0.172168
vt 0.075391 0.186809
vt 0.075391 0.172164
vt 0.308422 0.003142
vt 0.327511 0.003047
vt 0.346234 0.005906
vt 0.269396 0.156897
vt 0.285317 0.171568
vt 0.269396 0.171579
vt 0.169865 0.147723
vt 0.133386 0.156632
vt 0.062187 0.139853
vt 0.059279 0.172221
vt 0.075200 0.186953
vt 0.059279 0.186972
vt 0.091503 0.172190
vt 0.107423 0.187004
vt 0.091503 0.187030
vt 0.204287 0.172033
vt 0.220207 0.186938
vt 0.204287 0.186969
vt 0.187983 0.171912
vt 0.172063 0.156923
vt 0.187983 0.156888
vt 0.139647 0.171979
vt 0.123727 0.156925
vt 0.139647 0.156888
vt 0.059087 0.172016
vt 0.043167 0.156927
vt 0.059087 0.156888
vt 0.236980 0.172014
vt 0.221060 0.156925
vt 0.236981 0.156886
vt 0.107423 0.171979
vt 0.091503 0.156925
vt 0.107423 0.156888
vt 0.204095 0.171913
vt 0.188175 0.156923
vt 0.204095 0.156888
vt 0.237172 0.156917
vt 0.253093 0.171822
vt 0.237172 0.171853
vt 0.155950 0.172120
vt 0.171871 0.186935
vt 0.155951 0.186960
vt 0.236980 0.186952
vt 0.221060 0.172220
vt 0.236981 0.172201
vt 0.107615 0.172263
vt 0.123535 0.186933
vt 0.107615 0.186945
vt 0.285472 0.171728
vt 0.269397 0.186371
vt 0.269543 0.171727
vt 0.253285 0.186523
vt 0.269213 0.201082
vt 0.253285 0.201167
vt 0.059087 0.172214
vt 0.043167 0.186884
vt 0.043167 0.172202
vt 0.188175 0.186845
vt 0.204095 0.172114
vt 0.204095 0.186865
vt 0.187983 0.172120
vt 0.172063 0.186935
vt 0.172063 0.172095
vt 0.237172 0.186936
vt 0.253093 0.172031
vt 0.253093 0.186967
vt 0.155950 0.171912
vt 0.171871 0.156923
vt 0.171870 0.171947
vt 0.075391 0.171979
vt 0.091311 0.156926
vt 0.091311 0.172017
vt 0.059279 0.172016
vt 0.075200 0.156927
vt 0.075199 0.172055
vt 0.027055 0.172016
vt 0.042975 0.156927
vt 0.042975 0.172055
vt 0.123535 0.156925
vt 0.107615 0.171979
vt 0.107615 0.156888
vt 0.139839 0.171913
vt 0.155759 0.156923
vt 0.155759 0.171948
vt 0.204287 0.171824
vt 0.220207 0.156919
vt 0.220207 0.171855
vt 0.139839 0.186935
vt 0.155759 0.172120
vt 0.155759 0.186960
vt 0.042975 0.172221
vt 0.027055 0.186953
vt 0.027055 0.172202
vt 0.269205 0.156898
vt 0.253284 0.171568
vt 0.253285 0.156886
vt 0.869473 0.666686
vt 0.847669 0.671972
vt 0.847663 0.601085
vt 0.888700 0.571356
vt 0.038200 0.917194
vt 0.051200 0.909830
vt 0.015300 0.939979
vt 0.948000 0.958795
vt 0.961000 0.966160
vt 0.968100 0.971224
vt 0.994988 0.907336
vt 0.974387 0.843290
vt 0.015500 0.946277
vt 0.882200 0.388311
vt 0.864400 0.366293
vt 0.705100 0.246001
vt 0.899700 0.519649
vt 0.900400 0.511748
vt 0.014800 0.890804
vt 0.014700 0.873696
vt 0.014700 0.856588
vt 0.323397 0.245392
vt 0.203886 0.427054
vt 0.614701 0.245471
vt 0.632092 0.245481
vt 0.008124 0.424610
vt 0.269205 0.171727
vt 0.091311 0.186813
vt 0.363870 0.011607
vt 0.289700 0.006185
vt 0.379741 0.019934
vt 0.272064 0.012062
vt 0.393239 0.030564
vt 0.403845 0.043090
vt 0.256192 0.020545
vt 0.411150 0.057030
vt 0.232089 0.043940
vt 0.414874 0.071849
vt 0.224784 0.057953
vt 0.414874 0.086977
vt 0.411150 0.101833
vt 0.221060 0.072809
vt 0.403845 0.115846
vt 0.224784 0.102756
vt 0.393240 0.128477
vt 0.232089 0.116696
vt 0.379742 0.139241
vt 0.363870 0.147724
vt 0.242695 0.129222
vt 0.346234 0.153601
vt 0.272065 0.148179
vt 0.327512 0.156644
vt 0.289701 0.153880
vt 0.308422 0.156739
vt 0.256193 0.139852
vt 0.221060 0.087937
vt 0.242695 0.031309
vt 0.285317 0.156886
vt 0.078059 0.012063
vt 0.095695 0.006186
vt 0.169864 0.011607
vt 0.114417 0.003142
vt 0.152228 0.005906
vt 0.133506 0.003047
vt 0.185736 0.019933
vt 0.199234 0.030563
vt 0.209839 0.043089
vt 0.062186 0.020546
vt 0.217144 0.057029
vt 0.038084 0.043942
vt 0.220869 0.071848
vt 0.030778 0.057954
vt 0.220869 0.086976
vt 0.217145 0.101832
vt 0.027054 0.072810
vt 0.209839 0.115845
vt 0.030779 0.102757
vt 0.199234 0.128476
vt 0.038084 0.116698
vt 0.185737 0.139240
vt 0.048689 0.129223
vt 0.152233 0.153609
vt 0.114297 0.156741
vt 0.095693 0.153884
vt 0.078058 0.148180
vt 0.027055 0.087938
vt 0.048689 0.031310
vt 0.075200 0.172202
vt 0.107423 0.172164
vt 0.220207 0.172002
vt 0.172063 0.171947
vt 0.123727 0.172017
vt 0.043167 0.172055
vt 0.221060 0.172054
vt 0.091503 0.172017
vt 0.188175 0.171947
vt 0.253093 0.156886
vt 0.171871 0.172095
vt 0.221060 0.186971
vt 0.123922 0.172164
vt 0.285704 0.186371
vt 0.269205 0.186526
vt 0.059087 0.186896
vt 0.188175 0.172095
vt 0.187983 0.186960
vt 0.237172 0.172000
vt 0.155950 0.156888
vt 0.075391 0.156888
vt 0.059279 0.156888
vt 0.027055 0.156888
vt 0.123535 0.172017
vt 0.139839 0.156888
vt 0.204287 0.156888
vt 0.139839 0.172095
vt 0.042975 0.186972
vt 0.269205 0.171580
vt 0.660400 0.603733
vt 0.671355 0.601088
vt 0.649445 0.606378
vt 0.671349 0.671967
vt 0.858568 0.603728
vt 0.869474 0.606370
vt 0.858571 0.669329
vt 0.660397 0.669322
vt 0.649445 0.666676
vt 0.027778 0.000000
vt 1.000000 0.000000
vt 0.972222 0.000000
vt 0.944444 0.000000
vt 0.916667 0.000000
vt 0.055556 0.000000
vt 0.305556 0.000000
vt 0.333333 0.000000
vt 0.888889 0.000000
vt 0.083333 0.000000
vt 0.277778 0.000000
vt 0.361111 0.000000
vt 0.111111 0.000000
vt 0.250000 0.000000
vt 0.388889 0.000000
vt 0.861111 0.000000
vt 0.138889 0.000000
vt 0.166667 0.000000
vt 0.194444 0.000000
vt 0.222222 0.000000
vt 0.416667 0.000000
vt 0.833333 0.000000
vt 0.444444 0.000000
vt 0.611111 0.000000
vt 0.555556 0.000000
vt 0.583333 0.000000
vt 0.472222 0.000000
vt 0.527778 0.000000
vt 0.500000 0.000000
vt 0.638889 0.000000
vt 0.805556 0.000000
vt 0.666667 0.000000
vt 0.777778 0.000000
vt 0.750000 0.000000
vt 0.694444 0.000000
vt 0.722222 0.000000
vt 0.409091 0.000000
vt 0.515152 0.000000
vt 0.424242 0.000000
vt 0.484848 0.000000
vt 0.439394 0.000000
vt 0.469697 0.000000
vt 0.454545 0.000000
vt 0.787879 0.000000
vt 0.772727 0.000000
vt 0.984848 0.000000
vt 0.818182 0.000000
vt 0.606061 0.000000
vt 0.803030 0.000000
vt 0.969697 0.000000
vt 0.621212 0.000000
vt 0.742424 0.000000
vt 0.757576 0.000000
vt 0.954545 0.000000
vt 0.590909 0.000000
vt 0.636364 0.000000
vt 0.727273 0.000000
vt 0.712121 0.000000
vt 0.530303 0.000000
vt 0.545455 0.000000
vt 0.696970 0.000000
vt 0.651515 0.000000
vt 0.575758 0.000000
vt 0.560606 0.000000
vt 0.681818 0.000000
vt 0.848485 0.000000
vt 0.863636 0.000000
vt 0.909091 0.000000
vt 0.924242 0.000000
vt 0.878788 0.000000
vt 0.893939 0.000000
vt 0.939394 0.000000
vt 0.393939 0.000000
vt 0.363636 0.000000
vt 0.378788 0.000000
vt 0.015152 0.000000
vt 0.030303 0.000000
vt 0.348485 0.000000
vt 0.045455 0.000000
vt 0.318182 0.000000
vt 0.060606 0.000000
vt 0.303030 0.000000
vt 0.212121 0.000000
vt 0.287879 0.000000
vt 0.075758 0.000000
vt 0.196970 0.000000
vt 0.227273 0.000000
vt 0.272727 0.000000
vt 0.151515 0.000000
vt 0.181818 0.000000
vt 0.242424 0.000000
vt 0.257576 0.000000
vt 0.090909 0.000000
vt 0.136364 0.000000
vt 0.106061 0.000000
vt 0.121212 0.000000
vt 0.441441 0.000000
vt 0.531532 0.000000
vt 0.540541 0.000000
vt 0.450450 0.000000
vt 0.522523 0.000000
vt 0.459459 0.000000
vt 0.513514 0.000000
vt 0.468468 0.000000
vt 0.486486 0.000000
vt 0.477477 0.000000
vt 0.504505 0.000000
vt 0.495495 0.000000
vt 0.630631 0.000000
vt 0.612613 0.000000
vt 0.621622 0.000000
vt 0.558559 0.000000
vt 0.729730 0.000000
vt 0.549550 0.000000
vt 0.639640 0.000000
vt 0.720721 0.000000
vt 0.567568 0.000000
vt 0.603604 0.000000
vt 0.648649 0.000000
vt 0.711712 0.000000
vt 0.594595 0.000000
vt 0.576577 0.000000
vt 0.657658 0.000000
vt 0.702703 0.000000
vt 0.585586 0.000000
vt 0.675676 0.000000
vt 0.693694 0.000000
vt 0.684685 0.000000
vt 0.819820 0.000000
vt 0.783784 0.000000
vt 0.810811 0.000000
vt 0.792793 0.000000
vt 0.990991 0.000000
vt 0.774775 0.000000
vt 0.801802 0.000000
vt 0.738739 0.000000
vt 0.747748 0.000000
vt 0.765766 0.000000
vt 0.756757 0.000000
vt 0.837838 0.000000
vt 0.846847 0.000000
vt 0.828829 0.000000
vt 0.855856 0.000000
vt 0.864865 0.000000
vt 0.981982 0.000000
vt 0.873874 0.000000
vt 0.882883 0.000000
vt 0.918919 0.000000
vt 0.900901 0.000000
vt 0.909910 0.000000
vt 0.891892 0.000000
vt 0.972973 0.000000
vt 0.927928 0.000000
vt 0.963964 0.000000
vt 0.936937 0.000000
vt 0.954955 0.000000
vt 0.945946 0.000000
vt 0.405405 0.000000
vt 0.387387 0.000000
vt 0.396396 0.000000
vt 0.378378 0.000000
vt 0.351351 0.000000
vt 0.369369 0.000000
vt 0.360360 0.000000
vt 0.342342 0.000000
vt 0.414414 0.000000
vt 0.324324 0.000000
vt 0.423423 0.000000
vt 0.432432 0.000000
vt 0.009009 0.000000
vt 0.315315 0.000000
vt 0.306306 0.000000
vt 0.279279 0.000000
vt 0.297297 0.000000
vt 0.288288 0.000000
vt 0.270270 0.000000
vt 0.243243 0.000000
vt 0.261261 0.000000
vt 0.252252 0.000000
vt 0.234234 0.000000
vt 0.207207 0.000000
vt 0.225225 0.000000
vt 0.216216 0.000000
vt 0.198198 0.000000
vt 0.126126 0.000000
vt 0.108108 0.000000
vt 0.117117 0.000000
vt 0.099099 0.000000
vt 0.090090 0.000000
vt 0.081081 0.000000
vt 0.018018 0.000000
vt 0.189189 0.000000
vt 0.135135 0.000000
vt 0.180180 0.000000
vt 0.144144 0.000000
vt 0.171171 0.000000
vt 0.162162 0.000000
vt 0.153153 0.000000
vt 0.072072 0.000000
vt 0.027027 0.000000
vt 0.063063 0.000000
vt 0.036036 0.000000
vt 0.045045 0.000000
vt 0.054054 0.000000
vt 0.637900 0.766300
vt 0.853600 0.675800
vt 0.653500 0.668900
s 1
usemtl sheath
f 4/1/1 2/2/2 5/3/1
f 3/4/3 2/5/4 1/6/5
f 6/7/6 1/8/6 4/9/6
f 10/10/7 30/11/8 28/10/9
f 6/12/10 34/13/11 16/13/12
f 4/14/13 24/12/14 6/12/10
f 13/15/15 30/11/8 12/11/16
f 15/16/17 34/13/11 33/16/18
f 4/17/13 22/18/19 23/17/20
s 0
f 11/19/21 27/19/21 29/19/21
s 1
f 15/16/17 31/15/22 13/15/15
f 6/7/23 17/20/24 3/21/25
f 16/22/26 18/23/26 17/20/26
f 2/5/4 18/24/27 19/25/28
f 18/24/27 21/26/29 19/25/28
f 15/27/30 20/28/31 18/23/32
f 12/29/33 20/28/33 13/30/33
f 10/31/34 21/32/35 12/29/34
f 5/3/36 19/33/36 10/31/36
f 22/34/37 25/35/37 23/36/37
f 24/37/37 25/35/37 26/38/37
f 22/34/37 28/39/38 27/40/39
f 28/39/38 29/41/37 27/40/39
f 30/42/37 31/43/37 29/41/37
f 33/44/38 29/41/37 31/43/37
f 33/44/38 34/45/37 32/46/38
f 34/45/37 26/38/37 32/46/38
f 10/10/7 22/18/19 5/18/40
s 0
f 11/19/41 32/19/41 14/19/41
f 8/19/42 25/19/42 7/19/42
f 7/19/43 27/19/43 9/19/43
f 8/19/44 32/19/44 26/19/44
s 1
f 4/1/1 1/530/315 2/2/2
f 3/4/3 17/531/316 2/5/4
f 6/7/6 3/21/6 1/8/6
f 10/10/7 12/11/16 30/11/8
f 6/12/10 24/12/14 34/13/11
f 4/14/13 23/14/20 24/12/14
f 13/15/15 31/15/22 30/11/8
f 15/16/17 16/13/12 34/13/11
f 4/17/13 5/18/40 22/18/19
s 0
f 11/19/21 9/19/21 27/19/21
s 1
f 15/16/17 33/16/18 31/15/22
f 6/7/23 16/22/23 17/20/24
f 16/22/26 15/27/26 18/23/26
f 2/5/4 17/531/316 18/24/27
f 18/24/27 20/532/317 21/26/29
f 15/27/30 13/30/318 20/28/31
f 12/29/33 21/32/33 20/28/33
f 10/31/34 19/33/319 21/32/35
f 5/3/36 2/2/36 19/33/36
f 22/34/37 27/40/39 25/35/37
f 24/37/37 23/36/37 25/35/37
f 28/39/38 30/42/37 29/41/37
f 33/44/38 32/46/38 29/41/37
f 34/45/37 24/37/37 26/38/37
f 10/10/7 28/10/9 22/18/19
s 0
f 11/19/41 29/19/41 32/19/41
f 8/19/42 26/19/42 25/19/42
f 7/19/43 25/19/43 27/19/43
f 8/19/44 14/19/44 32/19/44
s 1
usemtl sword
f 60/47/45 49/48/45 61/49/46
f 56/50/47 59/51/48 48/52/49
f 38/53/50 40/54/51 41/55/52
f 45/56/53 47/57/54 42/58/55
f 42/59/56 48/60/57 59/61/58
f 41/55/59 50/62/59 38/53/60
f 44/63/61 36/64/62 35/65/63
f 35/65/64 37/66/65 47/57/66
f 58/67/67 39/68/67 57/69/68
f 54/70/69 53/71/70 56/72/71
f 58/67/72 60/47/72 61/49/73
f 55/73/74 44/74/75 53/71/76
f 52/75/77 37/76/78 50/77/79
f 57/78/80 51/79/81 55/80/82
f 56/50/47 48/52/83 47/81/84
f 67/82/85 65/83/86 62/84/87
f 62/84/87 74/85/88 63/86/89
f 65/83/90 68/87/91 66/88/92
f 66/88/93 143/89/94 69/90/95
f 69/90/95 72/91/96 70/92/97
f 144/93/98 77/94/99 72/91/96
f 76/95/100 75/96/101 145/97/102
f 76/95/103 73/98/104 75/96/105
f 81/99/106 79/100/106 78/101/106
f 79/102/107 80/103/107 78/104/107
f 81/105/108 78/106/109 80/107/108
f 82/108/110 83/109/110 81/110/110
f 107/111/111 109/112/111 117/113/112
f 87/114/113 84/115/113 82/116/113
f 88/117/114 85/118/114 87/119/114
f 89/120/115 86/121/115 88/122/115
f 90/123/116 91/124/116 89/125/117
f 95/126/118 92/127/118 90/128/118
f 96/129/119 93/130/119 95/131/119
f 97/132/120 94/133/120 96/134/120
f 98/135/121 99/136/121 97/137/121
f 103/138/122 100/139/122 98/140/122
f 104/141/123 101/142/123 103/143/123
f 105/144/124 102/145/124 104/146/124
f 106/147/125 107/148/125 105/149/125
f 111/150/126 108/151/127 106/152/128
f 110/153/129 111/154/130 112/155/131
f 113/156/132 110/157/133 112/158/134
f 116/159/135 113/160/135 114/161/135
f 117/162/136 114/163/136 119/164/136
f 118/165/137 119/166/137 120/167/137
f 123/168/138 120/169/138 121/170/138
f 124/171/139 121/172/139 122/173/139
f 125/174/140 122/175/140 127/176/140
f 126/177/141 127/178/141 128/179/141
f 131/180/142 128/181/142 129/182/142
f 132/183/143 129/184/143 130/185/143
f 133/186/144 130/187/144 135/188/144
f 134/189/145 135/190/145 136/191/145
f 139/192/146 136/193/146 137/194/146
f 140/195/147 137/196/147 138/197/147
f 141/198/148 138/199/148 80/200/148
f 73/201/149 71/202/150 74/203/151
f 60/47/45 50/62/46 49/48/45
f 38/53/50 39/204/152 40/54/51
f 45/56/53 46/205/153 47/57/54
f 46/205/153 43/206/154 47/57/54
f 43/206/154 44/63/155 35/65/156
f 35/65/156 47/57/54 43/206/154
f 47/57/54 48/207/157 42/58/55
f 59/61/58 53/71/158 43/208/159
f 53/71/158 44/74/160 43/208/159
f 59/61/58 43/208/159 46/209/161
f 46/209/161 45/210/162 59/61/58
f 45/210/162 42/59/56 59/61/58
f 41/55/59 49/48/163 50/62/59
f 44/63/61 51/211/164 36/64/62
f 35/65/64 36/64/165 37/66/65
f 58/67/67 40/212/166 39/68/67
f 55/73/167 53/71/70 54/70/69
f 53/71/70 59/61/168 56/72/71
f 58/67/72 57/69/169 60/47/72
f 55/73/74 51/213/170 44/74/75
f 36/214/171 51/79/81 38/215/172
f 51/79/81 39/216/173 38/215/172
f 60/217/174 57/78/80 55/80/82
f 60/217/174 55/80/82 54/218/175
f 37/76/78 36/214/171 50/77/79
f 36/214/171 38/215/172 50/77/79
f 50/77/79 60/217/174 52/75/77
f 60/217/174 54/218/175 52/75/77
f 57/78/80 39/216/173 51/79/81
f 47/81/84 37/219/176 56/50/47
f 37/219/176 52/220/177 56/50/47
f 52/220/177 54/221/178 56/50/47
f 62/84/87 63/86/89 142/222/179
f 142/222/179 67/82/85 62/84/87
f 62/84/87 64/223/180 74/85/88
f 65/83/90 67/82/181 68/87/91
f 69/90/95 70/92/97 66/88/93
f 66/88/93 68/87/182 143/89/94
f 69/90/95 71/224/183 72/91/96
f 72/91/96 71/224/183 144/93/98
f 144/93/98 73/225/184 77/94/99
f 74/85/88 64/223/180 145/97/102
f 64/223/180 76/95/100 145/97/102
f 76/95/103 77/226/185 73/98/104
f 81/99/106 83/227/106 79/100/106
f 79/102/107 141/228/107 80/103/107
f 80/107/108 138/229/109 82/230/109
f 138/229/109 137/231/109 87/232/109
f 137/231/109 136/233/109 87/232/109
f 136/233/109 135/234/109 88/235/109
f 87/232/109 136/233/109 88/235/109
f 135/234/109 130/236/109 90/237/109
f 130/236/109 129/238/109 95/239/109
f 129/238/109 128/240/109 95/239/109
f 128/240/109 127/241/109 96/242/109
f 95/239/109 128/240/109 96/242/109
f 127/241/109 122/243/109 98/244/109
f 122/243/109 121/245/108 103/246/108
f 121/245/108 120/247/109 103/246/108
f 120/247/109 119/248/109 104/249/109
f 103/246/108 120/247/109 104/249/109
f 119/248/109 114/250/109 106/251/109
f 114/250/109 113/252/108 111/253/108
f 113/252/108 112/254/109 111/253/108
f 111/253/108 106/251/109 114/250/109
f 106/251/109 105/255/109 119/248/109
f 105/255/109 104/249/109 119/248/109
f 103/246/108 98/244/109 122/243/109
f 98/244/109 97/256/109 127/241/109
f 97/256/109 96/242/109 127/241/109
f 95/239/109 90/237/109 130/236/109
f 90/237/109 89/257/109 135/234/109
f 89/257/109 88/235/109 135/234/109
f 87/232/109 82/230/109 138/229/109
f 82/230/109 81/105/108 80/107/108
f 82/108/110 84/258/110 83/109/110
f 139/259/186 140/260/186 84/261/186
f 140/260/186 141/262/186 83/263/186
f 141/262/186 79/264/187 83/263/186
f 83/263/186 84/261/186 140/260/186
f 84/261/186 85/265/186 139/259/186
f 85/265/186 86/266/186 139/259/186
f 86/266/186 91/267/187 134/268/187
f 139/259/186 86/266/186 134/268/187
f 91/267/187 92/269/187 132/270/186
f 92/269/187 93/271/187 131/272/186
f 93/271/187 94/273/186 131/272/186
f 94/273/186 99/274/186 126/275/186
f 131/272/186 94/273/186 126/275/186
f 99/274/186 100/276/186 124/277/186
f 100/276/186 101/278/186 123/279/186
f 101/278/186 102/280/186 123/279/186
f 102/280/186 107/111/111 118/281/186
f 123/279/186 102/280/186 118/281/186
f 107/111/111 108/282/111 109/112/111
f 109/112/111 110/283/111 115/284/111
f 115/284/111 116/285/111 109/112/111
f 116/285/111 117/113/112 109/112/111
f 117/113/112 118/281/186 107/111/111
f 123/279/186 124/277/186 100/276/186
f 124/277/186 125/286/186 99/274/186
f 125/286/186 126/275/186 99/274/186
f 131/272/186 132/270/186 92/269/187
f 132/270/186 133/287/186 91/267/187
f 133/287/186 134/268/187 91/267/187
f 87/114/113 85/288/113 84/115/113
f 88/117/114 86/289/114 85/118/114
f 89/120/115 91/290/115 86/121/115
f 90/123/116 92/291/116 91/124/116
f 95/126/118 93/292/118 92/127/118
f 96/129/119 94/293/119 93/130/119
f 97/132/120 99/294/120 94/133/120
f 98/135/121 100/295/121 99/136/121
f 103/138/122 101/296/122 100/139/122
f 104/141/123 102/297/123 101/142/123
f 105/144/124 107/298/124 102/145/124
f 106/147/125 108/299/125 107/148/125
f 111/150/126 109/300/188 108/151/127
f 110/153/129 109/301/130 111/154/130
f 113/156/132 115/302/133 110/157/133
f 116/159/135 115/303/135 113/160/135
f 117/162/136 116/304/136 114/163/136
f 118/165/137 117/305/137 119/166/137
f 123/168/138 118/306/138 120/169/138
f 124/171/139 123/307/189 121/172/139
f 125/174/140 124/308/140 122/175/140
f 126/177/141 125/309/141 127/178/141
f 131/180/142 126/310/142 128/181/142
f 132/183/143 131/311/143 129/184/143
f 133/186/144 132/312/144 130/187/144
f 134/189/145 133/313/145 135/190/145
f 139/192/146 134/314/146 136/193/146
f 140/195/147 139/315/147 137/196/147
f 141/198/148 140/316/148 138/199/148
f 142/317/190 63/318/191 67/319/192
f 63/318/191 74/203/151 69/320/151
f 74/203/151 145/321/193 75/322/194
f 75/322/194 73/201/149 74/203/151
f 73/201/149 144/323/195 71/202/150
f 71/202/150 69/320/151 74/203/151
f 69/320/151 143/324/196 68/325/197
f 68/325/197 67/319/192 69/320/151
f 69/320/151 67/319/192 63/318/191
s 0
usemtl Material
f 147/326/36 182/327/36 146/19/36
f 147/326/36 181/328/36 182/327/36
f 147/326/36 180/329/36 181/328/36
f 147/326/36 179/330/36 180/329/36
f 147/326/36 148/331/36 179/330/36
f 148/331/36 157/332/36 179/330/36
f 157/332/36 158/333/36 179/330/36
f 158/333/36 178/334/36 179/330/36
f 149/335/36 157/332/36 148/331/36
f 149/335/36 156/336/36 157/332/36
f 159/337/36 178/334/36 158/333/36
f 150/338/36 156/336/36 149/335/36
f 150/338/36 155/339/36 156/336/36
f 160/340/36 178/334/36 159/337/36
f 160/340/36 177/341/36 178/334/36
f 151/342/36 155/339/36 150/338/36
f 151/342/36 152/343/36 155/339/36
f 152/343/36 153/344/36 155/339/36
f 153/344/36 154/345/36 155/339/36
f 161/346/36 177/341/36 160/340/36
f 161/346/36 176/347/36 177/341/36
f 162/348/36 176/347/36 161/346/36
f 168/349/36 166/350/36 167/351/36
f 163/352/36 176/347/36 162/348/36
f 168/349/36 165/353/36 166/350/36
f 164/354/36 176/347/36 163/352/36
f 168/349/36 164/354/36 165/353/36
f 168/349/36 176/347/36 164/354/36
f 169/355/36 176/347/36 168/349/36
f 169/355/36 175/356/36 176/347/36
f 170/357/36 175/356/36 169/355/36
f 170/357/36 174/358/36 175/356/36
f 170/357/36 173/359/36 174/358/36
f 171/360/36 173/359/36 170/357/36
f 171/360/36 172/361/36 173/359/36
f 210/362/36 216/354/36 217/363/36
f 211/364/36 216/354/36 210/362/36
f 211/364/36 215/365/36 216/354/36
f 212/366/36 215/365/36 211/364/36
f 212/366/36 214/367/36 215/365/36
f 213/368/36 214/367/36 212/366/36
f 235/369/36 249/327/36 234/370/36
f 235/369/36 248/371/36 249/327/36
f 237/372/36 223/373/36 236/374/36
f 223/373/36 235/369/36 236/374/36
f 223/373/36 248/371/36 235/369/36
f 223/373/36 247/375/36 248/371/36
f 223/373/36 224/376/36 247/375/36
f 224/376/36 232/377/36 247/375/36
f 232/377/36 233/378/36 247/375/36
f 233/378/36 246/379/36 247/375/36
f 237/372/36 222/380/36 223/373/36
f 225/381/36 232/377/36 224/376/36
f 225/381/36 231/382/36 232/377/36
f 230/383/36 246/379/36 233/378/36
f 237/372/36 218/384/36 222/380/36
f 218/384/36 225/381/36 222/380/36
f 218/384/36 231/382/36 225/381/36
f 218/384/36 230/383/36 231/382/36
f 218/384/36 219/385/36 230/383/36
f 219/385/36 229/386/36 230/383/36
f 229/386/36 226/387/36 230/383/36
f 226/387/36 246/379/36 230/383/36
f 237/372/36 221/388/36 218/384/36
f 220/389/36 229/386/36 219/385/36
f 220/389/36 228/390/36 229/386/36
f 227/357/36 246/379/36 226/387/36
f 237/372/36 239/391/36 221/388/36
f 239/391/36 220/389/36 221/388/36
f 239/391/36 228/390/36 220/389/36
f 239/391/36 227/357/36 228/390/36
f 239/391/36 240/392/36 227/357/36
f 240/392/36 243/393/36 227/357/36
f 243/393/36 244/394/36 227/357/36
f 244/394/36 246/379/36 227/357/36
f 237/372/36 238/347/36 239/391/36
f 241/395/36 243/393/36 240/392/36
f 241/395/36 242/396/36 243/393/36
f 245/397/36 246/379/36 244/394/36
f 209/398/36 207/399/36 208/400/36
f 184/401/36 209/398/36 183/19/36
f 184/401/36 207/399/36 209/398/36
f 184/401/36 185/402/36 207/399/36
f 185/402/36 206/403/36 207/399/36
f 186/404/36 206/403/36 185/402/36
f 186/404/36 205/333/36 206/403/36
f 186/404/36 204/405/36 205/333/36
f 187/406/36 204/405/36 186/404/36
f 187/406/36 203/407/36 204/405/36
f 187/406/36 197/408/36 203/407/36
f 197/408/36 202/409/36 203/407/36
f 188/410/36 197/408/36 187/406/36
f 188/410/36 194/343/36 197/408/36
f 194/343/36 196/411/36 197/408/36
f 198/412/36 202/409/36 197/408/36
f 198/412/36 201/413/36 202/409/36
f 188/410/36 193/414/36 194/343/36
f 195/415/36 196/411/36 194/343/36
f 199/416/36 201/413/36 198/412/36
f 199/416/36 200/417/36 201/413/36
f 189/418/36 193/414/36 188/410/36
f 189/418/36 192/419/36 193/414/36
f 190/420/36 192/419/36 189/418/36
f 190/420/36 191/421/36 192/419/36
f 299/422/36 309/423/36 310/424/36
f 300/425/36 309/423/36 299/422/36
f 300/425/36 308/426/36 309/423/36
f 301/427/36 308/426/36 300/425/36
f 301/427/36 307/428/36 308/426/36
f 302/429/36 307/428/36 301/427/36
f 304/430/36 302/429/36 303/431/36
f 304/430/36 307/428/36 302/429/36
f 304/430/36 306/432/36 307/428/36
f 304/430/36 305/433/36 306/432/36
f 320/434/36 318/435/36 319/436/36
f 312/437/36 331/438/36 311/439/36
f 321/440/36 318/435/36 320/434/36
f 312/437/36 330/441/36 331/438/36
f 313/442/36 330/441/36 312/437/36
f 321/440/36 317/443/36 318/435/36
f 322/444/36 317/443/36 321/440/36
f 313/442/36 329/445/36 330/441/36
f 322/444/36 316/446/36 317/443/36
f 314/447/36 329/445/36 313/442/36
f 323/448/36 316/446/36 322/444/36
f 314/447/36 328/449/36 329/445/36
f 323/448/36 315/450/36 316/446/36
f 325/451/36 323/448/36 324/357/36
f 325/451/36 315/450/36 323/448/36
f 325/451/36 314/447/36 315/450/36
f 325/451/36 328/449/36 314/447/36
f 325/451/36 327/452/36 328/449/36
f 325/451/36 326/453/36 327/452/36
f 341/454/36 337/455/36 340/456/36
f 337/455/36 361/327/36 340/456/36
f 337/455/36 338/457/36 361/327/36
f 338/457/36 360/458/36 361/327/36
f 341/454/36 336/459/36 337/455/36
f 339/460/36 360/458/36 338/457/36
f 341/454/36 332/461/36 336/459/36
f 332/461/36 339/460/36 336/459/36
f 332/461/36 333/462/36 339/460/36
f 333/462/36 360/458/36 339/460/36
f 341/454/36 335/463/36 332/461/36
f 334/464/36 360/458/36 333/462/36
f 341/454/36 343/465/36 335/463/36
f 343/465/36 334/464/36 335/463/36
f 343/465/36 344/466/36 334/464/36
f 344/466/36 360/458/36 334/464/36
f 341/454/36 342/467/36 343/465/36
f 345/468/36 360/458/36 344/466/36
f 346/469/36 360/458/36 345/468/36
f 346/469/36 359/470/36 360/458/36
f 347/471/36 359/470/36 346/469/36
f 348/472/36 359/470/36 347/471/36
f 352/473/36 350/474/36 351/475/36
f 349/476/36 359/470/36 348/472/36
f 352/473/36 349/476/36 350/474/36
f 352/473/36 359/470/36 349/476/36
f 352/473/36 358/477/36 359/470/36
f 353/478/36 358/477/36 352/473/36
f 353/478/36 357/479/36 358/477/36
f 354/480/36 357/479/36 353/478/36
f 354/480/36 356/481/36 357/479/36
f 354/480/36 355/482/36 356/481/36
f 295/483/36 293/484/36 294/485/36
f 295/483/36 292/486/36 293/484/36
f 295/483/36 289/487/36 292/486/36
f 289/487/36 291/488/36 292/486/36
f 289/487/36 290/489/36 291/488/36
f 295/483/36 288/490/36 289/487/36
f 295/483/36 287/333/36 288/490/36
f 295/483/36 296/491/36 287/333/36
f 296/491/36 286/492/36 287/333/36
f 297/493/36 286/492/36 296/491/36
f 250/19/36 297/493/36 298/494/36
f 250/19/36 286/492/36 297/493/36
f 251/495/36 285/496/36 250/19/36
f 285/496/36 286/492/36 250/19/36
f 251/495/36 284/497/36 285/496/36
f 251/495/36 281/498/36 284/497/36
f 281/498/36 283/499/36 284/497/36
f 281/498/36 282/500/36 283/499/36
f 251/495/36 280/501/36 281/498/36
f 251/495/36 277/502/36 280/501/36
f 277/502/36 279/503/36 280/501/36
f 277/502/36 278/504/36 279/503/36
f 251/495/36 276/505/36 277/502/36
f 251/495/36 273/506/36 276/505/36
f 273/506/36 275/507/36 276/505/36
f 273/506/36 274/508/36 275/507/36
f 251/495/36 272/509/36 273/506/36
f 264/510/36 262/511/36 263/512/36
f 264/510/36 261/513/36 262/511/36
f 264/510/36 260/514/36 261/513/36
f 264/510/36 259/515/36 260/514/36
f 252/516/36 272/509/36 251/495/36
f 252/516/36 271/517/36 272/509/36
f 265/518/36 259/515/36 264/510/36
f 252/516/36 270/519/36 271/517/36
f 266/520/36 259/515/36 265/518/36
f 252/516/36 269/521/36 270/519/36
f 252/516/36 268/522/36 269/521/36
f 252/516/36 267/523/36 268/522/36
f 252/516/36 266/520/36 267/523/36
f 252/516/36 259/515/36 266/520/36
f 252/516/36 258/524/36 259/515/36
f 253/525/36 258/524/36 252/516/36
f 253/525/36 257/526/36 258/524/36
f 254/527/36 257/526/36 253/525/36
f 255/528/198 257/526/198 254/527/198
f 256/529/199 257/526/199 255/528/199
f 363/326/26 362/19/26 398/327/26
f 363/326/26 398/327/26 397/328/26
f 363/326/26 397/328/26 396/329/26
f 363/326/26 396/329/26 395/330/26
f 363/326/26 395/330/26 364/331/26
f 364/331/26 395/330/26 373/332/26
f 373/332/26 395/330/26 374/333/26
f 374/333/26 395/330/26 394/334/26
f 365/335/26 364/331/26 373/332/26
f 365/335/26 373/332/26 372/336/26
f 375/337/26 374/333/26 394/334/26
f 366/338/26 365/335/26 372/336/26
f 366/338/26 372/336/26 371/339/26
f 376/340/26 375/337/26 394/334/26
f 376/340/26 394/334/26 393/341/26
f 367/342/26 366/338/26 371/339/26
f 367/342/26 371/339/26 368/343/26
f 368/343/26 371/339/26 369/344/26
f 369/344/26 371/339/26 370/345/26
f 377/346/26 376/340/26 393/341/26
f 377/346/26 393/341/26 392/347/26
f 378/348/26 377/346/26 392/347/26
f 384/349/26 383/351/26 382/350/26
f 379/352/26 378/348/26 392/347/26
f 384/349/26 382/350/26 381/353/26
f 380/354/26 379/352/26 392/347/26
f 384/349/26 381/353/26 380/354/26
f 384/349/26 380/354/26 392/347/26
f 385/355/26 384/349/26 392/347/26
f 385/355/26 392/347/26 391/356/26
f 386/357/26 385/355/26 391/356/26
f 386/357/26 391/356/26 390/358/26
f 386/357/26 390/358/26 389/359/26
f 387/360/26 386/357/26 389/359/26
f 387/360/26 389/359/26 388/361/26
f 426/362/26 433/363/26 432/354/26
f 427/364/26 426/362/26 432/354/26
f 427/364/26 432/354/26 431/365/26
f 428/366/26 427/364/26 431/365/26
f 428/366/26 431/365/26 430/367/26
f 429/368/26 428/366/26 430/367/26
f 451/369/26 450/370/26 465/327/26
f 451/369/26 465/327/26 464/371/26
f 453/372/26 452/374/26 439/373/26
f 439/373/26 452/374/26 451/369/26
f 439/373/26 451/369/26 464/371/26
f 439/373/26 464/371/26 463/375/26
f 439/373/26 463/375/26 440/376/26
f 440/376/26 463/375/26 448/377/26
f 448/377/26 463/375/26 449/378/26
f 449/378/26 463/375/26 462/379/26
f 453/372/26 439/373/26 438/380/26
f 441/381/26 440/376/26 448/377/26
f 441/381/26 448/377/26 447/382/26
f 446/383/26 449/378/26 462/379/26
f 453/372/26 438/380/26 434/384/26
f 434/384/26 438/380/26 441/381/26
f 434/384/26 441/381/26 447/382/26
f 434/384/26 447/382/26 446/383/26
f 434/384/26 446/383/26 435/385/26
f 435/385/26 446/383/26 445/386/26
f 445/386/26 446/383/26 442/387/26
f 442/387/26 446/383/26 462/379/26
f 453/372/26 434/384/26 437/388/26
f 436/389/26 435/385/26 445/386/26
f 436/389/26 445/386/26 444/390/26
f 443/357/26 442/387/26 462/379/26
f 453/372/26 437/388/26 455/391/26
f 455/391/26 437/388/26 436/389/26
f 455/391/26 436/389/26 444/390/26
f 455/391/26 444/390/26 443/357/26
f 455/391/26 443/357/26 456/392/26
f 456/392/26 443/357/26 459/393/26
f 459/393/26 443/357/26 460/394/26
f 460/394/26 443/357/26 462/379/26
f 453/372/26 455/391/26 454/347/26
f 457/395/26 456/392/26 459/393/26
f 457/395/26 459/393/26 458/396/26
f 461/397/26 460/394/26 462/379/26
f 425/398/26 424/400/26 423/399/26
f 400/401/26 399/19/26 425/398/26
f 400/401/26 425/398/26 423/399/26
f 400/401/26 423/399/26 401/402/26
f 401/402/26 423/399/26 422/403/26
f 402/404/26 401/402/26 422/403/26
f 402/404/26 422/403/26 421/333/26
f 402/404/26 421/333/26 420/405/26
f 403/406/26 402/404/26 420/405/26
f 403/406/26 420/405/26 419/407/26
f 403/406/26 419/407/26 413/408/26
f 413/408/26 419/407/26 418/409/26
f 404/410/26 403/406/26 413/408/26
f 404/410/26 413/408/26 410/343/26
f 410/343/26 413/408/26 412/411/26
f 414/412/26 413/408/26 418/409/26
f 414/412/26 418/409/26 417/413/26
f 404/410/26 410/343/26 409/414/26
f 411/415/26 410/343/26 412/411/26
f 415/416/26 414/412/26 417/413/26
f 415/416/26 417/413/26 416/417/26
f 405/418/26 404/410/26 409/414/26
f 405/418/26 409/414/26 408/419/26
f 406/420/26 405/418/26 408/419/26
f 406/420/26 408/419/26 407/421/26
f 515/422/26 526/424/26 525/423/26
f 516/425/26 515/422/26 525/423/26
f 516/425/26 525/423/26 524/426/26
f 517/427/26 516/425/26 524/426/26
f 517/427/26 524/426/26 523/428/26
f 518/429/26 517/427/26 523/428/26
f 520/430/26 519/431/26 518/429/26
f 520/430/26 518/429/26 523/428/26
f 520/430/26 523/428/26 522/432/26
f 520/430/26 522/432/26 521/433/26
f 536/434/26 535/436/26 534/435/26
f 528/437/26 527/439/26 547/438/26
f 537/440/26 536/434/26 534/435/26
f 528/437/26 547/438/26 546/441/26
f 529/442/26 528/437/26 546/441/26
f 537/440/26 534/435/26 533/443/26
f 538/444/26 537/440/26 533/443/26
f 529/442/26 546/441/26 545/445/26
f 538/444/26 533/443/26 532/446/26
f 530/447/26 529/442/26 545/445/26
f 539/448/26 538/444/26 532/446/26
f 530/447/26 545/445/26 544/449/26
f 539/448/26 532/446/26 531/450/26
f 541/451/26 540/357/26 539/448/26
f 541/451/26 539/448/26 531/450/26
f 541/451/26 531/450/26 530/447/26
f 541/451/26 530/447/26 544/449/26
f 541/451/26 544/449/26 543/452/26
f 541/451/26 543/452/26 542/453/26
f 557/454/26 556/456/26 553/455/26
f 553/455/26 556/456/26 577/327/26
f 553/455/26 577/327/26 554/457/26
f 554/457/26 577/327/26 576/458/26
f 557/454/26 553/455/26 552/459/26
f 555/460/26 554/457/26 576/458/26
f 557/454/26 552/459/26 548/461/26
f 548/461/26 552/459/26 555/460/26
f 548/461/26 555/460/26 549/462/26
f 549/462/26 555/460/26 576/458/26
f 557/454/26 548/461/26 551/463/26
f 550/464/26 549/462/26 576/458/26
f 557/454/26 551/463/26 559/465/26
f 559/465/26 551/463/26 550/464/26
f 559/465/26 550/464/26 560/466/26
f 560/466/26 550/464/26 576/458/26
f 557/454/26 559/465/26 558/467/26
f 561/468/26 560/466/26 576/458/26
f 562/469/26 561/468/26 576/458/26
f 562/469/26 576/458/26 575/470/26
f 563/471/26 562/469/26 575/470/26
f 564/472/26 563/471/26 575/470/26
f 568/473/26 567/475/26 566/474/26
f 565/476/26 564/472/26 575/470/26
f 568/473/26 566/474/26 565/476/26
f 568/473/26 565/476/26 575/470/26
f 568/473/26 575/470/26 574/477/26
f 569/478/26 568/473/26 574/477/26
f 569/478/26 574/477/26 573/479/26
f 570/480/26 569/478/26 573/479/26
f 570/480/26 573/479/26 572/481/26
f 570/480/26 572/481/26 571/482/26
f 511/483/26 510/485/26 509/484/26
f 511/483/26 509/484/26 508/486/26
f 511/483/26 508/486/26 505/487/26
f 505/487/26 508/486/26 507/488/26
f 505/487/26 507/488/26 506/489/26
f 511/483/26 505/487/26 504/490/26
f 511/483/26 504/490/26 503/333/26
f 511/483/26 503/333/26 512/491/26
f 512/491/26 503/333/26 502/492/26
f 513/493/26 512/491/26 502/492/26
f 466/19/26 514/494/26 513/493/26
f 466/19/26 513/493/26 502/492/26
f 467/495/26 466/19/26 501/496/26
f 501/496/26 466/19/26 502/492/26
f 467/495/26 501/496/26 500/497/26
f 467/495/26 500/497/26 497/498/26
f 497/498/26 500/497/26 499/499/26
f 497/498/26 499/499/26 498/500/26
f 467/495/26 497/498/26 496/501/26
f 467/495/26 496/501/26 493/502/26
f 493/502/26 496/501/26 495/503/26
f 493/502/26 495/503/26 494/504/26
f 467/495/26 493/502/26 492/505/26
f 467/495/26 492/505/26 489/506/26
f 489/506/26 492/505/26 491/507/26
f 489/506/26 491/507/26 490/508/26
f 467/495/26 489/506/26 488/509/26
f 480/510/26 479/512/26 478/511/26
f 480/510/26 478/511/26 477/513/26
f 480/510/26 477/513/26 476/514/26
f 480/510/26 476/514/26 475/515/26
f 468/516/26 467/495/26 488/509/26
f 468/516/26 488/509/26 487/517/26
f 481/518/26 480/510/26 475/515/26
f 468/516/26 487/517/26 486/519/26
f 482/520/26 481/518/26 475/515/26
f 468/516/26 486/519/26 485/521/26
f 468/516/26 485/521/26 484/522/26
f 468/516/26 484/522/26 483/523/26
f 468/516/26 483/523/26 482/520/26
f 468/516/26 482/520/26 475/515/26
f 468/516/26 475/515/26 474/524/26
f 469/525/26 468/516/26 474/524/26
f 469/525/26 474/524/26 473/526/26
f 470/527/26 469/525/26 473/526/26
f 471/528/200 470/527/200 473/526/200
f 472/529/199 471/528/199 473/526/199
f 146/19/201 363/326/201 147/326/201
f 182/327/198 362/19/198 146/19/198
f 181/328/202 398/327/202 182/327/202
f 180/329/203 397/328/203 181/328/203
f 179/330/204 396/329/204 180/329/204
f 147/326/199 364/331/199 148/331/199
f 157/332/199 374/333/199 158/333/199
f 179/330/205 394/334/205 395/330/205
f 148/331/206 365/335/206 149/335/206
f 156/336/207 373/332/207 157/332/207
f 158/333/208 375/337/208 159/337/208
f 149/335/209 366/338/209 150/338/209
f 155/339/210 372/336/210 156/336/210
f 159/337/206 376/340/206 160/340/206
f 178/334/211 393/341/211 394/334/211
f 150/338/212 367/342/212 151/342/212
f 151/342/213 368/343/213 152/343/213
f 152/343/214 369/344/214 153/344/214
f 153/344/215 370/345/215 154/345/215
f 155/339/216 370/345/216 371/339/216
f 161/346/217 376/340/217 377/346/217
f 176/347/218 393/341/218 177/341/218
f 161/346/219 378/348/219 162/348/219
f 167/351/220 384/349/220 168/349/220
f 166/350/221 383/351/221 167/351/221
f 163/352/222 378/348/222 379/352/222
f 165/353/223 382/350/223 166/350/223
f 163/352/224 380/354/224 164/354/224
f 165/353/225 380/354/225 381/353/225
f 169/355/226 384/349/226 385/355/226
f 175/356/227 392/347/227 176/347/227
f 169/355/228 386/357/228 170/357/228
f 175/356/229 390/358/229 391/356/229
f 173/359/230 390/358/230 174/358/230
f 171/360/231 386/357/231 387/360/231
f 171/360/232 388/361/232 172/361/232
f 172/361/233 389/359/233 173/359/233
f 217/363/234 426/362/234 210/362/234
f 217/363/235 432/354/235 433/363/235
f 210/362/236 427/364/236 211/364/236
f 216/354/237 431/365/237 432/354/237
f 211/364/238 428/366/238 212/366/238
f 214/367/239 431/365/239 215/365/239
f 212/366/240 429/368/240 213/368/240
f 213/368/241 430/367/241 214/367/241
f 234/370/201 451/369/201 235/369/201
f 249/327/198 450/370/198 234/370/198
f 248/371/242 465/327/242 249/327/242
f 236/374/201 453/372/201 237/372/201
f 235/369/198 452/374/198 236/374/198
f 247/375/198 464/371/198 248/371/198
f 223/373/199 440/376/199 224/376/199
f 232/377/199 449/378/199 233/378/199
f 246/379/242 463/375/242 247/375/242
f 223/373/242 438/380/242 439/373/242
f 224/376/201 441/381/201 225/381/201
f 232/377/242 447/382/242 448/377/242
f 233/378/201 446/383/201 230/383/201
f 225/381/198 438/380/198 222/380/198
f 230/383/198 447/382/198 231/382/198
f 218/384/199 435/385/199 219/385/199
f 229/386/199 442/387/199 226/387/199
f 221/388/242 434/384/242 218/384/242
f 219/385/201 436/389/201 220/389/201
f 228/390/242 445/386/242 229/386/242
f 226/387/201 443/357/201 227/357/201
f 220/389/198 437/388/198 221/388/198
f 227/357/198 444/390/198 228/390/198
f 239/391/199 456/392/199 240/392/199
f 243/393/199 460/394/199 244/394/199
f 238/347/199 453/372/199 454/347/199
f 238/347/242 455/391/242 239/391/242
f 241/395/201 456/392/201 457/395/201
f 241/395/199 458/396/199 242/396/199
f 242/396/242 459/393/242 243/393/242
f 244/394/201 461/397/201 245/397/201
f 245/397/199 462/379/199 246/379/199
f 208/400/243 425/398/243 209/398/243
f 208/400/244 423/399/244 424/400/244
f 183/19/201 400/401/201 184/401/201
f 209/398/198 399/19/198 183/19/198
f 184/401/199 401/402/199 185/402/199
f 206/403/245 423/399/245 207/399/245
f 185/402/246 402/404/246 186/404/246
f 205/333/247 422/403/247 206/403/247
f 205/333/248 420/405/248 421/333/248
f 186/404/249 403/406/249 187/406/249
f 204/405/250 419/407/250 420/405/250
f 202/409/251 419/407/251 203/407/251
f 187/406/252 404/410/252 188/410/252
f 197/408/242 412/411/242 413/408/242
f 197/408/253 414/412/253 198/412/253
f 201/413/254 418/409/254 202/409/254
f 193/414/255 410/343/255 194/343/255
f 195/415/201 410/343/201 411/415/201
f 195/415/199 412/411/199 196/411/199
f 198/412/256 415/416/256 199/416/256
f 199/416/257 416/417/257 200/417/257
f 200/417/258 417/413/258 201/413/258
f 188/410/259 405/418/259 189/418/259
f 192/419/260 409/414/260 193/414/260
f 189/418/261 406/420/261 190/420/261
f 190/420/262 407/421/262 191/421/262
f 191/421/263 408/419/263 192/419/263
f 310/424/264 515/422/264 299/422/264
f 309/423/265 526/424/265 310/424/265
f 299/422/266 516/425/266 300/425/266
f 308/426/267 525/423/267 309/423/267
f 300/425/268 517/427/268 301/427/268
f 307/428/269 524/426/269 308/426/269
f 301/427/270 518/429/270 302/429/270
f 303/431/201 520/430/201 304/430/201
f 302/429/198 519/431/198 303/431/198
f 306/432/198 523/428/198 307/428/198
f 304/430/199 521/433/199 305/433/199
f 305/433/242 522/432/242 306/432/242
f 319/436/271 536/434/271 320/434/271
f 318/435/272 535/436/272 319/436/272
f 311/439/273 528/437/273 312/437/273
f 331/438/274 527/439/274 311/439/274
f 320/434/275 537/440/275 321/440/275
f 330/441/276 547/438/276 331/438/276
f 312/437/277 529/442/277 313/442/277
f 317/443/278 534/435/278 318/435/278
f 321/440/279 538/444/279 322/444/279
f 329/445/280 546/441/280 330/441/280
f 316/446/281 533/443/281 317/443/281
f 313/442/282 530/447/282 314/447/282
f 322/444/283 539/448/283 323/448/283
f 329/445/284 544/449/284 545/445/284
f 315/450/285 532/446/285 316/446/285
f 324/357/201 541/451/201 325/451/201
f 323/448/198 540/357/198 324/357/198
f 314/447/198 531/450/198 315/450/198
f 327/452/198 544/449/198 328/449/198
f 325/451/199 542/453/199 326/453/199
f 327/452/242 542/453/242 543/452/242
f 340/456/201 557/454/201 341/454/201
f 361/327/198 556/456/198 340/456/198
f 337/455/199 554/457/199 338/457/199
f 360/458/242 577/327/242 361/327/242
f 336/459/242 553/455/242 337/455/242
f 338/457/201 555/460/201 339/460/201
f 339/460/198 552/459/198 336/459/198
f 333/462/199 548/461/199 549/462/199
f 332/461/242 551/463/242 548/461/242
f 333/462/201 550/464/201 334/464/201
f 334/464/198 551/463/198 335/463/198
f 343/465/199 560/466/199 344/466/199
f 341/454/199 558/467/199 342/467/199
f 343/465/242 558/467/242 559/465/242
f 344/466/201 561/468/201 345/468/201
f 345/468/286 562/469/286 346/469/286
f 360/458/287 575/470/287 576/458/287
f 346/469/288 563/471/288 347/471/288
f 347/471/289 564/472/289 348/472/289
f 351/475/290 568/473/290 352/473/290
f 350/474/291 567/475/291 351/475/291
f 348/472/292 565/476/292 349/476/292
f 349/476/198 566/474/198 350/474/198
f 358/477/293 575/470/293 359/470/293
f 352/473/294 569/478/294 353/478/294
f 357/479/295 574/477/295 358/477/295
f 353/478/296 570/480/296 354/480/296
f 356/481/297 573/479/297 357/479/297
f 355/482/298 570/480/298 571/482/298
f 355/482/299 572/481/299 356/481/299
f 294/485/201 511/483/201 295/483/201
f 293/484/198 510/485/198 294/485/198
f 292/486/242 509/484/242 293/484/242
f 291/488/198 508/486/198 292/486/198
f 289/487/199 506/489/199 290/489/199
f 290/489/242 507/488/242 291/488/242
f 289/487/242 504/490/242 505/487/242
f 287/333/198 504/490/198 288/490/198
f 295/483/199 512/491/199 296/491/199
f 286/492/242 503/333/242 287/333/242
f 296/491/201 513/493/201 297/493/201
f 298/494/201 466/19/201 250/19/201
f 297/493/198 514/494/198 298/494/198
f 250/19/201 467/495/201 251/495/201
f 286/492/199 501/496/199 502/492/199
f 284/497/242 501/496/242 285/496/242
f 283/499/198 500/497/198 284/497/198
f 281/498/199 498/500/199 282/500/199
f 282/500/242 499/499/242 283/499/242
f 280/501/242 497/498/242 281/498/242
f 279/503/198 496/501/198 280/501/198
f 277/502/199 494/504/199 278/504/199
f 279/503/242 494/504/242 495/503/242
f 276/505/242 493/502/242 277/502/242
f 275/507/198 492/505/198 276/505/198
f 273/506/199 490/508/199 274/508/199
f 275/507/242 490/508/242 491/507/242
f 272/509/242 489/506/242 273/506/242
f 263/512/300 480/510/300 264/510/300
f 262/511/301 479/512/301 263/512/301
f 261/513/302 478/511/302 262/511/302
f 260/514/303 477/513/303 261/513/303
f 260/514/304 475/515/304 476/514/304
f 251/495/305 468/516/305 252/516/305
f 271/517/306 488/509/306 272/509/306
f 264/510/307 481/518/307 265/518/307
f 270/519/308 487/517/308 271/517/308
f 265/518/309 482/520/309 266/520/309
f 269/521/310 486/519/310 270/519/310
f 268/522/198 485/521/198 269/521/198
f 267/523/198 484/522/198 268/522/198
f 266/520/198 483/523/198 267/523/198
f 258/524/311 475/515/311 259/515/311
f 252/516/312 469/525/312 253/525/312
f 257/526/313 474/524/313 258/524/313
f 253/525/314 470/527/314 254/527/314
f 254/527/199 471/528/199 255/528/199
f 256/529/198 471/528/198 472/529/198
f 257/526/199 472/529/199 473/526/199
f 146/19/201 362/19/201 363/326/201
f 182/327/198 398/327/198 362/19/198
f 181/328/202 397/328/202 398/327/202
f 180/329/203 396/329/203 397/328/203
f 179/330/204 395/330/204 396/329/204
f 147/326/199 363/326/199 364/331/199
f 157/332/199 373/332/199 374/333/199
f 179/330/205 178/334/205 394/334/205
f 148/331/206 364/331/206 365/335/206
f 156/336/207 372/336/207 373/332/207
f 158/333/208 374/333/208 375/337/208
f 149/335/209 365/335/209 366/338/209
f 155/339/210 371/339/210 372/336/210
f 159/337/206 375/337/206 376/340/206
f 178/334/211 177/341/211 393/341/211
f 150/338/212 366/338/212 367/342/212
f 151/342/213 367/342/213 368/343/213
f 152/343/214 368/343/214 369/344/214
f 153/344/215 369/344/215 370/345/215
f 155/339/216 154/345/216 370/345/216
f 161/346/217 160/340/217 376/340/217
f 176/347/218 392/347/218 393/341/218
f 161/346/219 377/346/219 378/348/219
f 167/351/220 383/351/220 384/349/220
f 166/350/320 382/350/320 383/351/320
f 163/352/222 162/348/222 378/348/222
f 165/353/321 381/353/321 382/350/321
f 163/352/322 379/352/322 380/354/322
f 165/353/225 164/354/225 380/354/225
f 169/355/226 168/349/226 384/349/226
f 175/356/227 391/356/227 392/347/227
f 169/355/228 385/355/228 386/357/228
f 175/356/229 174/358/229 390/358/229
f 173/359/230 389/359/230 390/358/230
f 171/360/323 170/357/323 386/357/323
f 171/360/232 387/360/232 388/361/232
f 172/361/233 388/361/233 389/359/233
f 217/363/324 433/363/324 426/362/324
f 217/363/235 216/354/235 432/354/235
f 210/362/236 426/362/236 427/364/236
f 216/354/237 215/365/237 431/365/237
f 211/364/238 427/364/238 428/366/238
f 214/367/239 430/367/239 431/365/239
f 212/366/240 428/366/240 429/368/240
f 213/368/241 429/368/241 430/367/241
f 234/370/201 450/370/201 451/369/201
f 249/327/198 465/327/198 450/370/198
f 248/371/242 464/371/242 465/327/242
f 236/374/201 452/374/201 453/372/201
f 235/369/198 451/369/198 452/374/198
f 247/375/198 463/375/198 464/371/198
f 223/373/199 439/373/199 440/376/199
f 232/377/199 448/377/199 449/378/199
f 246/379/242 462/379/242 463/375/242
f 223/373/242 222/380/242 438/380/242
f 224/376/201 440/376/201 441/381/201
f 232/377/242 231/382/242 447/382/242
f 233/378/201 449/378/201 446/383/201
f 225/381/198 441/381/198 438/380/198
f 230/383/198 446/383/198 447/382/198
f 218/384/199 434/384/199 435/385/199
f 229/386/199 445/386/199 442/387/199
f 221/388/242 437/388/242 434/384/242
f 219/385/201 435/385/201 436/389/201
f 228/390/242 444/390/242 445/386/242
f 226/387/201 442/387/201 443/357/201
f 220/389/198 436/389/198 437/388/198
f 227/357/198 443/357/198 444/390/198
f 239/391/199 455/391/199 456/392/199
f 243/393/199 459/393/199 460/394/199
f 238/347/199 237/372/199 453/372/199
f 238/347/242 454/347/242 455/391/242
f 241/395/201 240/392/201 456/392/201
f 241/395/199 457/395/199 458/396/199
f 242/396/242 458/396/242 459/393/242
f 244/394/201 460/394/201 461/397/201
f 245/397/199 461/397/199 462/379/199
f 208/400/243 424/400/243 425/398/243
f 208/400/244 207/399/244 423/399/244
f 183/19/201 399/19/201 400/401/201
f 209/398/198 425/398/198 399/19/198
f 184/401/199 400/401/199 401/402/199
f 206/403/245 422/403/245 423/399/245
f 185/402/246 401/402/246 402/404/246
f 205/333/247 421/333/247 422/403/247
f 205/333/248 204/405/248 420/405/248
f 186/404/249 402/404/249 403/406/249
f 204/405/250 203/407/250 419/407/250
f 202/409/251 418/409/251 419/407/251
f 187/406/252 403/406/252 404/410/252
f 197/408/242 196/411/242 412/411/242
f 197/408/253 413/408/253 414/412/253
f 201/413/325 417/413/325 418/409/325
f 193/414/255 409/414/255 410/343/255
f 195/415/201 194/343/201 410/343/201
f 195/415/199 411/415/199 412/411/199
f 198/412/256 414/412/256 415/416/256
f 199/416/257 415/416/257 416/417/257
f 200/417/258 416/417/258 417/413/258
f 188/410/259 404/410/259 405/418/259
f 192/419/260 408/419/260 409/414/260
f 189/418/261 405/418/261 406/420/261
f 190/420/262 406/420/262 407/421/262
f 191/421/263 407/421/263 408/419/263
f 310/424/326 526/424/326 515/422/326
f 309/423/265 525/423/265 526/424/265
f 299/422/266 515/422/266 516/425/266
f 308/426/267 524/426/267 525/423/267
f 300/425/268 516/425/268 517/427/268
f 307/428/269 523/428/269 524/426/269
f 301/427/270 517/427/270 518/429/270
f 303/431/201 519/431/201 520/430/201
f 302/429/198 518/429/198 519/431/198
f 306/432/198 522/432/198 523/428/198
f 304/430/199 520/430/199 521/433/199
f 305/433/242 521/433/242 522/432/242
f 319/436/271 535/436/271 536/434/271
f 318/435/272 534/435/272 535/436/272
f 311/439/273 527/439/273 528/437/273
f 331/438/274 547/438/274 527/439/274
f 320/434/275 536/434/275 537/440/275
f 330/441/276 546/441/276 547/438/276
f 312/437/277 528/437/277 529/442/277
f 317/443/278 533/443/278 534/435/278
f 321/440/279 537/440/279 538/444/279
f 329/445/280 545/445/280 546/441/280
f 316/446/281 532/446/281 533/443/281
f 313/442/282 529/442/282 530/447/282
f 322/444/283 538/444/283 539/448/283
f 329/445/284 328/449/284 544/449/284
f 315/450/327 531/450/327 532/446/327
f 324/357/201 540/357/201 541/451/201
f 323/448/198 539/448/198 540/357/198
f 314/447/198 530/447/198 531/450/198
f 327/452/198 543/452/198 544/449/198
f 325/451/199 541/451/199 542/453/199
f 327/452/242 326/453/242 542/453/242
f 340/456/201 556/456/201 557/454/201
f 361/327/198 577/327/198 556/456/198
f 337/455/199 553/455/199 554/457/199
f 360/458/242 576/458/242 577/327/242
f 336/459/242 552/459/242 553/455/242
f 338/457/201 554/457/201 555/460/201
f 339/460/198 555/460/198 552/459/198
f 333/462/199 332/461/199 548/461/199
f 332/461/242 335/463/242 551/463/242
f 333/462/201 549/462/201 550/464/201
f 334/464/198 550/464/198 551/463/198
f 343/465/199 559/465/199 560/466/199
f 341/454/199 557/454/199 558/467/199
f 343/465/242 342/467/242 558/467/242
f 344/466/201 560/466/201 561/468/201
f 345/468/286 561/468/286 562/469/286
f 360/458/287 359/470/287 575/470/287
f 346/469/288 562/469/288 563/471/288
f 347/471/328 563/471/328 564/472/328
f 351/475/290 567/475/290 568/473/290
f 350/474/291 566/474/291 567/475/291
f 348/472/292 564/472/292 565/476/292
f 349/476/198 565/476/198 566/474/198
f 358/477/293 574/477/293 575/470/293
f 352/473/294 568/473/294 569/478/294
f 357/479/295 573/479/295 574/477/295
f 353/478/296 569/478/296 570/480/296
f 356/481/329 572/481/329 573/479/329
f 355/482/330 354/480/330 570/480/330
f 355/482/299 571/482/299 572/481/299
f 294/485/201 510/485/201 511/483/201
f 293/484/198 509/484/198 510/485/198
f 292/486/242 508/486/242 509/484/242
f 291/488/198 507/488/198 508/486/198
f 289/487/199 505/487/199 506/489/199
f 290/489/242 506/489/242 507/488/242
f 289/487/242 288/490/242 504/490/242
f 287/333/198 503/333/198 504/490/198
f 295/483/199 511/483/199 512/491/199
f 286/492/242 502/492/242 503/333/242
f 296/491/201 512/491/201 513/493/201
f 298/494/201 514/494/201 466/19/201
f 297/493/198 513/493/198 514/494/198
f 250/19/201 466/19/201 467/495/201
f 286/492/199 285/496/199 501/496/199
f 284/497/242 500/497/242 501/496/242
f 283/499/198 499/499/198 500/497/198
f 281/498/199 497/498/199 498/500/199
f 282/500/242 498/500/242 499/499/242
f 280/501/242 496/501/242 497/498/242
f 279/503/198 495/503/198 496/501/198
f 277/502/199 493/502/199 494/504/199
f 279/503/242 278/504/242 494/504/242
f 276/505/242 492/505/242 493/502/242
f 275/507/198 491/507/198 492/505/198
f 273/506/199 489/506/199 490/508/199
f 275/507/242 274/508/242 490/508/242
f 272/509/242 488/509/242 489/506/242
f 263/512/300 479/512/300 480/510/300
f 262/511/301 478/511/301 479/512/301
f 261/513/302 477/513/302 478/511/302
f 260/514/331 476/514/331 477/513/331
f 260/514/304 259/515/304 475/515/304
f 251/495/305 467/495/305 468/516/305
f 271/517/306 487/517/306 488/509/306
f 264/510/307 480/510/307 481/518/307
f 270/519/308 486/519/308 487/517/308
f 265/518/309 481/518/309 482/520/309
f 269/521/332 485/521/332 486/519/332
f 268/522/198 484/522/198 485/521/198
f 267/523/198 483/523/198 484/522/198
f 266/520/198 482/520/198 483/523/198
f 258/524/311 474/524/311 475/515/311
f 252/516/312 468/516/312 469/525/312
f 257/526/313 473/526/313 474/524/313
f 253/525/314 469/525/314 470/527/314
f 254/527/199 470/527/199 471/528/199
f 256/529/199 255/528/199 471/528/199
f 257/526/198 256/529/198 472/529/198
