# Blender 5.0.0
# www.blender.org
mtllib dragon_god_sword_sheath.mtl
o sheath
v -0.016433 0.061732 -2.125000
v -0.019306 0.052608 -2.117921
v 0.016434 0.061732 -2.125000
v -0.016433 0.044118 -0.099443
v -0.019306 0.034994 -0.099523
v 0.016434 0.044118 -0.099443
v -0.006729 0.029584 -0.057517
v 0.006731 0.029584 -0.057517
v -0.006799 0.005227 -0.057730
v -0.019306 -0.038708 -0.100167
v 0.000001 -0.036579 -0.058094
v -0.016433 -0.047833 -0.100247
v 0.016434 -0.047833 -0.100247
v 0.006799 0.005227 -0.057730
v 0.019308 -0.038708 -0.100167
v 0.019308 0.034994 -0.099523
v 0.019308 0.052608 -2.117921
v 0.019307 -0.021094 -2.065184
v -0.019306 -0.021094 -2.065184
v 0.016434 -0.030218 -2.057560
v -0.016433 -0.030218 -2.057560
v -0.019306 0.034389 -0.030308
v -0.016433 0.043513 -0.030228
v 0.016434 0.043513 -0.030228
v -0.006729 0.029346 -0.030352
v 0.006731 0.029346 -0.030352
v -0.006799 0.004989 -0.030565
v -0.019306 -0.039313 -0.030951
v 0.000001 -0.036817 -0.030929
v -0.016433 -0.048437 -0.031032
v 0.016434 -0.048437 -0.031032
v 0.006799 0.004989 -0.030565
v 0.019308 -0.039313 -0.030951
v 0.019308 0.034389 -0.030308
vn -0.9258 0.3770 0.0273
vn -0.9248 0.3802 -0.0172
vn -0.0032 -0.6608 -0.7506
vn -0.0000 -0.6446 -0.7645
vn 0.0032 -0.6608 -0.7506
vn -0.0000 0.9974 0.0721
vn -0.9855 -0.1647 0.0418
vn -0.6191 -0.7818 0.0746
vn -0.9893 -0.1387 -0.0448
vn 0.6192 0.7816 -0.0752
vn 0.9880 0.1472 0.0461
vn 0.9867 0.1565 -0.0438
vn -0.6191 0.7818 -0.0746
vn 0.5580 0.8248 0.0911
vn 0.5580 -0.8248 -0.0911
vn -0.5573 -0.8251 -0.0929
vn 0.9939 -0.1093 0.0117
vn 0.9808 -0.1947 -0.0145
vn -0.9806 0.1960 0.0060
vn -0.5573 0.8251 0.0929
vn 0.9870 0.1605 0.0014
vn 0.6192 -0.7816 0.0752
vn 0.9258 0.3771 0.0273
vn 0.9248 0.3802 -0.0172
vn 0.9242 0.3818 0.0126
vn 1.0000 -0.0000 -0.0000
vn 0.0039 -0.6582 -0.7528
vn -0.0039 -0.6582 -0.7528
vn -0.0015 -0.6876 -0.7261
vn 0.9258 -0.3771 -0.0274
vn 0.9240 -0.3824 -0.0049
vn 0.9256 -0.3777 0.0262
vn -0.0000 -0.9974 -0.0724
vn -0.9258 -0.3770 -0.0274
vn -0.9239 -0.3825 -0.0049
vn -1.0000 -0.0000 -0.0000
vn -0.0000 0.0533 0.9986
vn -0.0000 0.0534 0.9986
vn 0.0002 0.0534 0.9986
vn -0.9942 0.1071 -0.0034
vn -0.9870 0.1605 0.0014
vn -0.0000 -1.0000 -0.0087
vn 1.0000 -0.0028 -0.0000
vn -1.0000 -0.0028 -0.0000
vn -0.9242 0.3818 0.0126
vn -0.0000 -0.6445 -0.7646
vn 0.0015 -0.6876 -0.7261
vn 0.9258 -0.3770 -0.0274
vn -0.9255 -0.3777 0.0263
vt 0.637900 0.294300
vt 0.618700 0.766300
vt 0.618700 0.294300
vt 0.875600 0.668900
vt 0.853600 0.582600
vt 0.875600 0.589500
vt 0.180000 0.294300
vt 0.023300 0.766300
vt 0.023300 0.294300
vt 0.793485 0.697868
vt 0.787356 0.697868
vt 0.690592 0.697868
vt 0.696721 0.697868
vt 0.684071 0.697868
vt 0.737853 0.697868
vt 0.731724 0.697868
vt 0.835248 0.697868
vt 0.829183 0.697868
vt 0.000000 0.000000
vt 0.199400 0.766300
vt 0.180000 0.766300
vt 0.199400 0.294300
vt 0.310200 0.766300
vt 0.675600 0.675800
vt 0.675600 0.582600
vt 0.653500 0.589500
vt 0.310200 0.294300
vt 0.329600 0.766300
vt 0.486300 0.294300
vt 0.329600 0.294300
vt 0.505700 0.294300
vt 0.486300 0.766300
vt 0.505700 0.766300
vt 0.853600 0.773100
vt 0.841400 0.742700
vt 0.875600 0.766200
vt 0.875600 0.686800
vt 0.841400 0.710200
vt 0.675600 0.773100
vt 0.782600 0.742900
vt 0.681600 0.726500
vt 0.653500 0.766200
vt 0.653500 0.686800
vt 0.675600 0.679900
vt 0.853600 0.679900
vt 0.782600 0.710100
vt 0.637900 0.766300
vt 0.853600 0.675800
vt 0.653500 0.668900
s 1
usemtl 02___Default.001
f 4/1/1 2/2/2 5/3/1
f 3/4/3 2/5/4 1/6/5
f 6/7/6 1/8/6 4/9/6
f 10/10/7 30/11/8 28/10/9
f 6/12/10 34/13/11 16/13/12
f 4/14/13 24/12/14 6/12/10
f 13/15/15 30/11/8 12/11/16
f 15/16/17 34/13/11 33/16/18
f 4/17/13 22/18/19 23/17/20
s 0
f 11/19/21 27/19/21 29/19/21
s 1
f 15/16/17 31/15/22 13/15/15
f 6/7/23 17/20/24 3/21/25
f 16/22/26 18/23/26 17/20/26
f 2/5/4 18/24/27 19/25/28
f 18/24/27 21/26/29 19/25/28
f 15/27/30 20/28/31 18/23/32
f 12/29/33 20/28/33 13/30/33
f 10/31/34 21/32/35 12/29/34
f 5/3/36 19/33/36 10/31/36
f 22/34/37 25/35/37 23/36/37
f 24/37/37 25/35/37 26/38/37
f 22/34/37 28/39/38 27/40/39
f 28/39/38 29/41/37 27/40/39
f 30/42/37 31/43/37 29/41/37
f 33/44/38 29/41/37 31/43/37
f 33/44/38 34/45/37 32/46/38
f 34/45/37 26/38/37 32/46/38
f 10/10/7 22/18/19 5/18/40
s 0
f 11/19/41 32/19/41 14/19/41
f 8/19/42 25/19/42 7/19/42
f 7/19/43 27/19/43 9/19/43
f 8/19/44 32/19/44 26/19/44
s 1
f 4/1/1 1/47/45 2/2/2
f 3/4/3 17/48/46 2/5/4
f 6/7/6 3/21/6 1/8/6
f 10/10/7 12/11/16 30/11/8
f 6/12/10 24/12/14 34/13/11
f 4/14/13 23/14/20 24/12/14
f 13/15/15 31/15/22 30/11/8
f 15/16/17 16/13/12 34/13/11
f 4/17/13 5/18/40 22/18/19
s 0
f 11/19/21 9/19/21 27/19/21
s 1
f 15/16/17 33/16/18 31/15/22
f 6/7/23 16/22/23 17/20/24
f 16/22/26 15/27/26 18/23/26
f 2/5/4 17/48/46 18/24/27
f 18/24/27 20/49/47 21/26/29
f 15/27/30 13/30/48 20/28/31
f 12/29/33 21/32/33 20/28/33
f 10/31/34 19/33/49 21/32/35
f 5/3/36 2/2/36 19/33/36
f 22/34/37 27/40/39 25/35/37
f 24/37/37 23/36/37 25/35/37
f 28/39/38 30/42/37 29/41/37
f 33/44/38 32/46/38 29/41/37
f 34/45/37 24/37/37 26/38/37
f 10/10/7 28/10/9 22/18/19
s 0
f 11/19/41 29/19/41 32/19/41
f 8/19/42 26/19/42 25/19/42
f 7/19/43 25/19/43 27/19/43
f 8/19/44 14/19/44 32/19/44
