# Blender 4.5.4 LTS
# www.blender.org
mtllib dragon_god_sword_broken.mtl
o sword1.001
v -0.007435 0.004658 -0.073221
v -0.008630 0.026781 -0.073063
v -0.007437 -0.000615 -0.073253
v 0.000713 -0.034462 -0.073446
v 0.000455 -0.034822 -0.026950
v -0.007512 -0.000891 -0.026695
v -0.009794 0.027697 -0.026528
v -0.009719 0.027973 -0.073058
v 0.000618 -0.032699 -0.073429
v 0.003406 0.027431 -0.073040
v 0.004602 0.005308 -0.073198
v 0.005171 0.000067 -0.073228
v 0.005097 -0.000210 -0.026670
v 0.004361 0.028733 -0.073030
v 0.004286 0.028457 -0.026501
v 0.016175 -0.034583 -0.014930
v 0.015756 -0.037451 0.467570
v 0.012901 0.027142 -0.015851
v 0.014239 -0.042377 -0.016214
v -0.013279 -0.043873 -0.016861
v 0.009664 -0.045225 0.467516
v -0.009490 -0.046711 0.467458
v -0.016593 -0.039197 0.467501
v -0.016086 -0.036367 -0.017355
v -0.019928 0.022549 0.467893
v -0.019421 0.025379 -0.016945
v -0.013507 0.030323 0.467946
v 0.012421 0.024296 0.467961
v 0.005643 0.031810 0.468004
v 0.010085 0.034653 -0.016011
v -0.017423 0.033151 -0.016992
v -0.001110 0.056239 -0.026309
v -0.001256 0.056164 -0.016791
v 0.010244 0.055075 -0.026141
v -0.012466 0.055091 -0.026489
v -0.023386 0.051675 -0.026673
v -0.012612 0.055015 -0.016970
v -0.023532 0.051599 -0.017154
v -0.033598 0.046045 -0.017335
v -0.042423 0.038569 -0.017505
v -0.033452 0.046121 -0.026853
v -0.042277 0.038645 -0.027024
v -0.049520 0.029532 -0.027178
v -0.054905 0.019133 -0.027310
v -0.049666 0.029456 -0.017660
v -0.055051 0.019057 -0.017791
v -0.058370 0.007773 -0.017896
v -0.059495 -0.003965 -0.017969
v -0.058224 0.007848 -0.027414
v -0.059350 -0.003889 -0.027487
v -0.058238 -0.015628 -0.027526
v -0.054933 -0.026918 -0.027528
v -0.058384 -0.015704 -0.018007
v -0.055079 -0.026993 -0.018010
v -0.049707 -0.037400 -0.017977
v -0.042474 -0.046522 -0.017909
v -0.049561 -0.037324 -0.027496
v -0.042328 -0.046446 -0.027428
v -0.033513 -0.053935 -0.027328
v -0.023453 -0.059502 -0.027200
v -0.033659 -0.054011 -0.017810
v -0.023599 -0.059578 -0.017682
v -0.012614 -0.063005 -0.017298
v -0.001259 -0.064173 -0.017356
v -0.012537 -0.062933 -0.027049
v -0.001183 -0.064097 -0.026881
v 0.010173 -0.062949 -0.026701
v 0.021093 -0.059532 -0.026517
v 0.010027 -0.063024 -0.017183
v 0.020947 -0.059608 -0.016999
v 0.031013 -0.054055 -0.016818
v 0.039837 -0.046578 -0.016647
v 0.031159 -0.053979 -0.026337
v 0.039983 -0.046502 -0.026166
v 0.047227 -0.037390 -0.026012
v 0.052612 -0.026991 -0.025880
v 0.047081 -0.037466 -0.016493
v 0.052466 -0.027067 -0.016361
v 0.055785 -0.015782 -0.016257
v 0.056910 -0.004044 -0.016184
v 0.055931 -0.015706 -0.025775
v 0.057056 -0.003969 -0.025703
v 0.055945 0.007771 -0.025664
v 0.052640 0.019060 -0.025661
v 0.055799 0.007695 -0.016146
v 0.052494 0.018984 -0.016143
v 0.047121 0.029390 -0.016176
v 0.039889 0.038513 -0.016243
v 0.047267 0.029466 -0.025694
v 0.040034 0.038589 -0.025762
v 0.031219 0.046077 -0.025862
v 0.021160 0.051644 -0.025990
v 0.031073 0.046001 -0.016343
v 0.021014 0.051568 -0.016471
v 0.010098 0.054999 -0.016622
v 0.014758 -0.041338 0.467543
v -0.015183 -0.042954 0.467479
v -0.018931 0.026436 0.467920
v 0.011011 0.028053 0.467982
v 0.001458 0.022454 -0.166314
v 0.001458 0.022454 -0.168499
v 0.001458 0.016512 -0.168499
v 0.001458 0.017024 -0.175698
v 0.001458 0.018918 -0.182648
v 0.001458 0.023314 -0.187989
v 0.001458 0.022881 -0.188535
v 0.001458 0.022483 -0.189177
v 0.001458 0.022180 -0.189800
v 0.001458 0.017553 -0.183945
v 0.001458 0.015490 -0.176385
v 0.001458 0.014889 -0.168499
v 0.001458 0.007990 -0.168499
v 0.001458 0.008698 -0.184252
v 0.001458 0.009280 -0.186695
v 0.001458 0.009526 -0.187001
v 0.001458 0.009815 -0.187147
v 0.001458 0.010179 -0.187184
v 0.001458 0.013463 -0.186983
v 0.001458 0.013204 -0.187733
v 0.001458 0.013024 -0.188560
v 0.001458 0.012935 -0.189311
v 0.001458 0.010526 -0.189437
v 0.001458 0.009612 -0.189369
v 0.001458 0.008931 -0.189185
v 0.001458 0.008371 -0.188785
v 0.001458 0.007872 -0.188046
v 0.001458 0.007176 -0.185186
v 0.001458 0.006406 -0.166314
v 0.001458 0.023118 -0.133687
v 0.001458 0.023118 -0.135671
v 0.001458 0.018154 -0.135671
v 0.001458 0.019629 -0.139164
v 0.001458 0.021487 -0.142248
v 0.001458 0.023509 -0.144611
v 0.001458 0.023273 -0.145199
v 0.001458 0.022864 -0.146709
v 0.001458 0.022053 -0.145781
v 0.001458 0.020421 -0.143547
v 0.001458 0.020421 -0.155161
v 0.001458 0.019072 -0.155161
v 0.001458 0.019072 -0.142713
v 0.001458 0.017059 -0.146364
v 0.001458 0.016179 -0.144582
v 0.001458 0.018779 -0.140672
v 0.001458 0.017066 -0.136614
v 0.001458 0.016414 -0.134435
v 0.001458 0.017157 -0.133601
v 0.001458 0.017411 -0.133687
v 0.001458 0.021086 -0.129720
v 0.001458 0.019791 -0.132341
v 0.001458 0.019326 -0.133543
v 0.001458 0.018134 -0.132394
v 0.001458 0.019952 -0.128772
v 0.001458 0.014420 -0.141161
v 0.001458 0.011684 -0.141161
v 0.001458 0.011684 -0.145243
v 0.001458 0.014420 -0.145243
v 0.001458 0.014420 -0.139235
v 0.001458 0.014420 -0.135239
v 0.001458 0.011684 -0.135239
v 0.001458 0.011684 -0.139235
v 0.001458 0.007462 -0.141161
v 0.001458 0.007462 -0.145243
v 0.001458 0.010257 -0.145243
v 0.001458 0.010257 -0.141161
v 0.001458 0.007462 -0.139235
v 0.001458 0.010257 -0.139235
v 0.001458 0.010257 -0.135239
v 0.001458 0.007462 -0.135239
v 0.001458 0.011684 -0.128743
v 0.001458 0.011684 -0.133285
v 0.001458 0.015769 -0.133285
v 0.001458 0.015769 -0.148549
v 0.001458 0.014420 -0.148549
v 0.001458 0.014420 -0.147198
v 0.001458 0.011684 -0.147198
v 0.001458 0.011684 -0.155161
v 0.001458 0.010257 -0.155161
v 0.001458 0.010257 -0.147198
v 0.001458 0.007462 -0.147198
v 0.001458 0.007462 -0.148348
v 0.001458 0.006055 -0.148348
v 0.001458 0.006055 -0.133285
v 0.001458 0.010257 -0.133285
v 0.001458 0.010257 -0.128743
v 0.001458 0.013326 -0.117561
v 0.001458 0.013116 -0.119401
v 0.001458 0.012376 -0.120290
v 0.001458 0.010941 -0.120521
v 0.001458 0.009908 -0.120521
v 0.005737 0.008345 -0.120521
v 0.001458 0.007325 -0.120521
v 0.001458 0.006153 -0.120223
v 0.001458 0.005520 -0.119171
v 0.001458 0.005234 -0.117129
v 0.001458 0.005681 -0.116941
v 0.001458 0.006141 -0.116676
v 0.001458 0.006524 -0.116353
v 0.001458 0.006639 -0.117833
v 0.001458 0.006903 -0.118534
v 0.001458 0.007423 -0.118710
v 0.001458 0.010785 -0.118710
v 0.001458 0.011499 -0.118623
v 0.001458 0.011823 -0.118280
v 0.001458 0.011899 -0.117561
v 0.001458 0.011899 -0.116324
v 0.001458 0.006289 -0.116324
v 0.001458 0.006289 -0.114916
v 0.001458 0.011899 -0.114916
v 0.001458 0.011899 -0.113076
v 0.001458 0.006485 -0.113076
v 0.001458 0.006485 -0.111639
v 0.001458 0.011899 -0.111639
v 0.001458 0.011899 -0.109885
v 0.001458 0.006387 -0.109885
v 0.001458 0.006387 -0.108448
v 0.001458 0.011899 -0.108448
v 0.001458 0.011899 -0.106666
v 0.001458 0.006367 -0.106666
v 0.001458 0.006367 -0.100658
v 0.001458 0.011899 -0.100658
v 0.001458 0.011899 -0.098329
v 0.001458 0.005605 -0.098329
v 0.001458 0.005605 -0.096518
v 0.001458 0.011899 -0.096518
v 0.001458 0.011899 -0.094247
v 0.001458 0.013326 -0.094247
v 0.001458 0.013326 -0.102383
v 0.001458 0.007794 -0.102383
v 0.001458 0.007794 -0.104970
v 0.001458 0.013326 -0.104970
v 0.001458 0.019815 -0.094592
v 0.001458 0.019287 -0.096748
v 0.001458 0.022962 -0.096748
v 0.001458 0.022962 -0.098617
v 0.001458 0.014655 -0.098617
v 0.001458 0.014655 -0.096748
v 0.001458 0.017880 -0.096748
v 0.001458 0.018564 -0.094104
v 0.001458 0.017059 -0.098876
v 0.001458 0.018036 -0.102584
v 0.001458 0.020167 -0.102584
v 0.001458 0.019717 -0.102411
v 0.001458 0.020480 -0.098876
v 0.001458 0.021672 -0.099278
v 0.001458 0.021007 -0.102584
v 0.001458 0.023314 -0.102584
v 0.001458 0.023314 -0.104452
v 0.001458 0.014303 -0.104452
v 0.001458 0.014303 -0.102584
v 0.001458 0.016727 -0.102584
v 0.001458 0.015730 -0.099335
v 0.001458 0.020851 -0.111351
v 0.001458 0.016649 -0.111351
v 0.001458 0.016649 -0.113450
v 0.001458 0.020851 -0.113450
v 0.001458 0.020851 -0.109828
v 0.001458 0.020851 -0.107787
v 0.001458 0.016649 -0.107787
v 0.001458 0.016649 -0.109828
v 0.001458 0.022239 -0.106148
v 0.001458 0.022239 -0.120694
v 0.001458 0.020851 -0.120694
v 0.001458 0.020851 -0.114973
v 0.001458 0.016649 -0.114973
v 0.001458 0.016649 -0.118107
v 0.001458 0.016678 -0.118353
v 0.001458 0.016776 -0.118484
v 0.001458 0.016961 -0.118538
v 0.001458 0.017344 -0.118557
v 0.001458 0.017966 -0.118557
v 0.001458 0.018740 -0.118538
v 0.001458 0.018251 -0.120493
v 0.001458 0.017254 -0.120472
v 0.001458 0.016453 -0.120369
v 0.001458 0.015847 -0.120119
v 0.001458 0.015463 -0.119689
v 0.001458 0.015261 -0.119054
v 0.001458 0.015202 -0.118164
v 0.001458 0.015202 -0.106148
v 0.005737 0.022454 -0.166314
v 0.005737 0.022454 -0.168499
v 0.005737 0.016512 -0.168499
v 0.005737 0.017024 -0.175698
v 0.005737 0.018918 -0.182648
v 0.005737 0.023314 -0.187989
v 0.005737 0.022881 -0.188535
v 0.005737 0.022483 -0.189177
v 0.005737 0.022180 -0.189800
v 0.005737 0.017553 -0.183945
v 0.005737 0.015490 -0.176385
v 0.005737 0.014889 -0.168499
v 0.005737 0.007990 -0.168499
v 0.005737 0.008698 -0.184252
v 0.005737 0.009280 -0.186695
v 0.005737 0.009526 -0.187001
v 0.005737 0.009815 -0.187147
v 0.005737 0.010179 -0.187184
v 0.005737 0.013463 -0.186983
v 0.005737 0.013204 -0.187733
v 0.005737 0.013024 -0.188560
v 0.005737 0.012935 -0.189311
v 0.005737 0.010526 -0.189437
v 0.005737 0.009612 -0.189369
v 0.005737 0.008931 -0.189185
v 0.005737 0.008371 -0.188785
v 0.005737 0.007872 -0.188046
v 0.005737 0.007176 -0.185186
v 0.005737 0.006406 -0.166314
v 0.005737 0.023118 -0.133687
v 0.005737 0.023118 -0.135671
v 0.005737 0.018154 -0.135671
v 0.005737 0.019629 -0.139164
v 0.005737 0.021487 -0.142248
v 0.005737 0.023509 -0.144611
v 0.005737 0.023273 -0.145199
v 0.005737 0.022864 -0.146709
v 0.005737 0.022053 -0.145781
v 0.005737 0.020421 -0.143547
v 0.005737 0.020421 -0.155161
v 0.005737 0.019072 -0.155161
v 0.005737 0.019072 -0.142713
v 0.005737 0.017059 -0.146364
v 0.005737 0.016179 -0.144582
v 0.005737 0.018779 -0.140672
v 0.005737 0.017066 -0.136614
v 0.005737 0.016414 -0.134435
v 0.005737 0.017157 -0.133601
v 0.005737 0.017411 -0.133687
v 0.005737 0.021086 -0.129720
v 0.005737 0.019791 -0.132341
v 0.005737 0.019326 -0.133543
v 0.005737 0.018134 -0.132394
v 0.005737 0.019952 -0.128772
v 0.005737 0.014420 -0.141161
v 0.005737 0.011684 -0.141161
v 0.005737 0.011684 -0.145243
v 0.005737 0.014420 -0.145243
v 0.005737 0.014420 -0.139235
v 0.005737 0.014420 -0.135239
v 0.005737 0.011684 -0.135239
v 0.005737 0.011684 -0.139235
v 0.005737 0.007462 -0.141161
v 0.005737 0.007462 -0.145243
v 0.005737 0.010257 -0.145243
v 0.005737 0.010257 -0.141161
v 0.005737 0.007462 -0.139235
v 0.005737 0.010257 -0.139235
v 0.005737 0.010257 -0.135239
v 0.005737 0.007462 -0.135239
v 0.005737 0.011684 -0.128743
v 0.005737 0.011684 -0.133285
v 0.005737 0.015769 -0.133285
v 0.005737 0.015769 -0.148549
v 0.005737 0.014420 -0.148549
v 0.005737 0.014420 -0.147198
v 0.005737 0.011684 -0.147198
v 0.005737 0.011684 -0.155161
v 0.005737 0.010257 -0.155161
v 0.005737 0.010257 -0.147198
v 0.005737 0.007462 -0.147198
v 0.005737 0.007462 -0.148348
v 0.005737 0.006055 -0.148348
v 0.005737 0.006055 -0.133285
v 0.005737 0.010257 -0.133285
v 0.005737 0.010257 -0.128743
v 0.005737 0.013326 -0.117561
v 0.005737 0.013116 -0.119401
v 0.005737 0.012376 -0.120290
v 0.005737 0.010941 -0.120521
v 0.005737 0.009908 -0.120521
v 0.001458 0.008345 -0.120521
v 0.005737 0.007325 -0.120521
v 0.005737 0.006153 -0.120223
v 0.005737 0.005520 -0.119171
v 0.005737 0.005234 -0.117129
v 0.005737 0.005681 -0.116941
v 0.005737 0.006141 -0.116676
v 0.005737 0.006524 -0.116353
v 0.005737 0.006639 -0.117833
v 0.005737 0.006903 -0.118534
v 0.005737 0.007423 -0.118710
v 0.005737 0.010785 -0.118710
v 0.005737 0.011499 -0.118623
v 0.005737 0.011823 -0.118280
v 0.005737 0.011899 -0.117561
v 0.005737 0.011899 -0.116324
v 0.005737 0.006289 -0.116324
v 0.005737 0.006289 -0.114916
v 0.005737 0.011899 -0.114916
v 0.005737 0.011899 -0.113076
v 0.005737 0.006485 -0.113076
v 0.005737 0.006485 -0.111639
v 0.005737 0.011899 -0.111639
v 0.005737 0.011899 -0.109885
v 0.005737 0.006387 -0.109885
v 0.005737 0.006387 -0.108448
v 0.005737 0.011899 -0.108448
v 0.005737 0.011899 -0.106666
v 0.005737 0.006367 -0.106666
v 0.005737 0.006367 -0.100658
v 0.005737 0.011899 -0.100658
v 0.005737 0.011899 -0.098329
v 0.005737 0.005605 -0.098329
v 0.005737 0.005605 -0.096518
v 0.005737 0.011899 -0.096518
v 0.005737 0.011899 -0.094247
v 0.005737 0.013326 -0.094247
v 0.005737 0.013326 -0.102383
v 0.005737 0.007794 -0.102383
v 0.005737 0.007794 -0.104970
v 0.005737 0.013326 -0.104970
v 0.005737 0.019815 -0.094592
v 0.005737 0.019287 -0.096748
v 0.005737 0.022962 -0.096748
v 0.005737 0.022962 -0.098617
v 0.005737 0.014655 -0.098617
v 0.005737 0.014655 -0.096748
v 0.005737 0.017880 -0.096748
v 0.005737 0.018564 -0.094104
v 0.005737 0.017059 -0.098876
v 0.005737 0.018036 -0.102584
v 0.005737 0.020167 -0.102584
v 0.005737 0.019717 -0.102411
v 0.005737 0.020480 -0.098876
v 0.005737 0.021672 -0.099278
v 0.005737 0.021007 -0.102584
v 0.005737 0.023314 -0.102584
v 0.005737 0.023314 -0.104452
v 0.005737 0.014303 -0.104452
v 0.005737 0.014303 -0.102584
v 0.005737 0.016727 -0.102584
v 0.005737 0.015730 -0.099335
v 0.005737 0.020851 -0.111351
v 0.005737 0.016649 -0.111351
v 0.005737 0.016649 -0.113450
v 0.005737 0.020851 -0.113450
v 0.005737 0.020851 -0.109828
v 0.005737 0.020851 -0.107787
v 0.005737 0.016649 -0.107787
v 0.005737 0.016649 -0.109828
v 0.005737 0.022239 -0.106148
v 0.005737 0.022239 -0.120694
v 0.005737 0.020851 -0.120694
v 0.005737 0.020851 -0.114973
v 0.005737 0.016649 -0.114973
v 0.005737 0.016649 -0.118107
v 0.005737 0.016678 -0.118353
v 0.005737 0.016776 -0.118484
v 0.005737 0.016961 -0.118538
v 0.005737 0.017344 -0.118557
v 0.005737 0.017966 -0.118557
v 0.005737 0.018740 -0.118538
v 0.005737 0.018251 -0.120493
v 0.005737 0.017254 -0.120472
v 0.005737 0.016453 -0.120369
v 0.005737 0.015847 -0.120119
v 0.005737 0.015463 -0.119689
v 0.005737 0.015261 -0.119054
v 0.005737 0.015202 -0.106148
v 0.004007 0.029298 -0.382379
v -0.008220 0.028641 -0.382961
v -0.007040 0.006462 -0.373721
v 0.005186 0.007118 -0.373138
v 0.001055 -0.030477 -0.357903
vn -0.8270 -0.5555 0.0870
vn -0.7978 -0.5909 -0.1199
vn -0.9337 -0.3579 -0.0141
vn 0.0153 0.0047 -0.9999
vn -1.0000 -0.0000 -0.0000
vn -0.0153 -0.0044 0.9999
vn -0.0153 -0.0047 0.9999
vn 1.0000 -0.0000 -0.0000
vn -0.0000 0.3198 0.9475
vn -0.0000 -0.3582 -0.9336
vn 0.2997 0.9540 0.0122
vn 0.8453 0.5261 0.0932
vn 0.8380 0.5440 -0.0425
vn 0.7969 0.5962 -0.0971
vn 0.9954 0.0942 0.0160
vn 0.8879 -0.4599 0.0100
vn -0.0000 -0.0000 1.0000
vn -0.2985 -0.9544 -0.0107
vn -0.2986 -0.9543 -0.0108
vn -0.2984 -0.9544 -0.0106
vn -0.0000 1.0000 -0.0000
vn -0.0000 -0.9978 -0.0656
vn -0.0000 -0.9978 -0.0657
vn -0.0000 -1.0000 -0.0000
vn -0.0152 -0.0043 0.9999
vn -0.0000 -0.1278 -0.9918
vn -0.0000 -0.0000 -1.0000
vn 0.0644 -0.3809 -0.9224
vn 0.9700 -0.2427 0.0127
vn 0.9727 -0.2319 0.0128
vn 0.8715 -0.4900 0.0188
vn -0.8372 -0.5447 -0.0498
vn -0.8605 0.5091 -0.0156
vn -0.8821 0.4702 -0.0297
vn -0.8708 0.4864 0.0710
vn 0.0153 0.0048 -0.9999
vn 0.9978 0.0648 -0.0096
vn 0.9990 0.0429 0.0142
vn 0.9993 0.0378 0.0027
vn -0.0153 -0.0045 0.9999
vn -0.0156 -0.0050 0.9999
vn -0.0152 -0.0051 0.9999
vn 0.0096 0.0079 -0.9999
vn 0.0019 0.0061 -1.0000
vn -0.0103 0.0040 -0.9999
vn -0.0079 -0.0106 0.9999
vn 0.0059 -0.0079 1.0000
vn 0.0053 -0.0033 1.0000
vn 0.6464 -0.7630 0.0038
vn 0.9593 -0.2822 0.0125
vn -0.8879 0.4599 -0.0099
vn -0.8879 0.4599 -0.0100
vn -0.0000 0.7686 -0.6397
vn 0.6472 0.7621 0.0160
vn 0.8884 0.4587 0.0173
vn -0.0000 -0.0000 -0.0000
vn -0.2986 0.9544 0.0030
vn -0.0000 0.9360 0.3521
vn -0.0000 -0.7898 -0.6134
vn -0.0000 -0.8234 -0.5675
vn -0.0000 0.9789 -0.2046
vn -0.0000 0.9619 -0.2733
vn 0.0054 -0.0032 1.0000
vn -0.0000 -0.9716 -0.2366
vn -0.0000 0.9580 0.2868
vn -0.0000 0.9764 0.2159
vn -0.0000 0.9975 0.0710
vn -0.0000 0.8566 0.5159
vn -0.0000 0.7596 0.6504
vn -0.0000 0.1020 0.9948
vn -0.0000 -0.8967 -0.4426
vn -0.0000 -0.3270 0.9450
vn -0.0000 0.9455 -0.3256
vn -0.0000 -0.9766 0.2151
vn -0.0000 -0.9590 0.2835
vn -0.0000 -0.1029 0.9947
vn -0.0000 -0.0097 1.0000
vn 0.7834 0.6213 0.0170
vn -0.0000 -0.8288 -0.5595
vn -0.0000 0.9327 -0.3606
vn -0.0000 0.9574 -0.2887
vn -0.0000 0.9823 -0.1875
vn -0.0000 -0.8567 -0.5159
vn -0.0000 -0.3882 0.9216
vn -0.0000 -0.9529 -0.3033
vn -0.0000 0.7788 0.6273
vn -0.0000 0.9930 -0.1178
vn -0.0000 0.0500 0.9987
vn -0.0000 -0.2596 -0.9657
vn -0.9710 -0.2347 0.0449
vn -0.9782 -0.2041 0.0374
vn -0.9784 -0.2022 0.0439
vn -0.0000 -0.9580 -0.2867
vn -0.0000 -0.9647 -0.2634
vn -0.0000 -0.5818 -0.8133
vn -0.0000 0.9936 -0.1133
vn -0.0000 -0.7456 -0.6663
vn -0.0000 -0.0247 0.9997
vn -0.0000 -0.2465 -0.9691
vn -0.0550 0.9985 -0.0038
vn -0.0636 0.9980 0.0058
vn -0.0534 0.9984 0.0158
vn -0.0000 0.9719 -0.2353
vn -0.0000 0.9880 -0.1541
vn -0.0000 0.8498 -0.5270
vn -0.0000 -0.0744 -0.9972
vn -0.0000 0.7837 -0.6212
vn -0.0000 0.8995 -0.4370
vn -0.0000 0.1590 -0.9873
vn -0.0000 0.6417 0.7669
vn -0.0000 -0.9903 -0.1387
vn -0.0000 0.9996 0.0297
vn -0.0000 -0.8226 0.5686
vn -0.0000 -0.8451 0.5345
vn -0.0000 -0.9971 -0.0759
vn -0.0000 -0.8696 0.4937
vn -0.0000 -0.9184 0.3956
vn -0.0000 0.9728 0.2317
vn -0.0000 0.3219 0.9468
vn -0.0000 0.9931 0.1169
vn -0.0000 0.0830 -0.9965
vn -0.0000 0.0185 -0.9998
vn -0.0000 -0.9339 -0.3575
vn -0.0000 -0.9072 -0.4207
vn -0.0000 -0.6450 0.7642
vn -0.0000 0.9648 0.2629
vn -0.0000 -0.7846 -0.6200
vn 0.4840 0.8749 0.0144
vn -0.0000 -1.0000 -0.0029
vn -0.0000 -0.9977 -0.0674
vn -0.0000 0.0500 0.9988
vn -0.0000 0.7721 0.6355
vn -0.0000 0.2812 0.9597
vn -0.0000 -0.4990 0.8666
vn -0.0000 0.9076 -0.4199
vn -0.0000 0.8849 -0.4659
vn -0.0000 -0.9873 0.1586
vn -0.0000 -0.9659 0.2588
vn -0.0000 -0.0203 -0.9998
vn -0.0000 0.8881 -0.4596
vn -0.0000 0.8648 -0.5021
vn -0.0000 0.9278 -0.3730
vn -0.0000 0.9730 -0.2309
vn -0.0000 0.9576 -0.2881
vn -0.0000 -0.7529 -0.6581
vn -0.0000 0.4498 0.8931
vn -0.0000 0.3214 0.9470
vn -0.9953 0.0955 -0.0145
vn -0.9593 0.2822 -0.0125
vn -0.4831 0.8756 -0.0004
vn -0.2985 -0.9543 -0.0108
vn -0.1021 -0.9947 -0.0084
vn -0.1021 -0.9947 -0.0085
vn -0.1024 -0.9947 -0.0081
vn -0.0000 -0.7466 0.6652
vn -0.0634 0.9979 0.0155
vn -0.0638 0.9978 0.0155
vn -0.0646 0.9979 -0.0041
vn -0.9975 -0.0685 -0.0197
vn -0.9958 -0.0906 0.0156
vn -0.9701 0.2424 -0.0108
vn -0.9702 0.2422 -0.0109
vn -0.1007 0.9949 0.0064
vn -0.0004 0.0138 -0.9999
vn 0.0042 -0.0007 -1.0000
vn -0.0006 0.0142 -0.9999
vn -0.0152 -0.0042 0.9999
vn 0.7827 -0.6223 0.0070
vn -0.0149 -0.0044 0.9999
vn -0.9596 -0.2809 -0.0170
vn -0.7834 -0.6213 -0.0170
vn 0.0632 -0.9979 -0.0157
vn 0.0633 -0.9979 -0.0157
vn 0.0644 -0.9979 0.0038
vn 0.1010 -0.9949 -0.0068
vn 0.1011 -0.9949 -0.0067
vn -0.8884 -0.4587 -0.0173
vn 0.9367 0.3497 0.0159
vn 0.9349 0.3545 0.0148
vn 0.4831 -0.8756 0.0004
vn 0.9953 -0.0955 0.0145
vn 0.9998 0.0172 0.0080
vn 0.9992 0.0393 -0.0045
vn -0.6472 -0.7621 -0.0160
vn 0.9923 -0.1198 0.0311
vn 0.9897 -0.1409 -0.0255
vn -0.9738 -0.2204 -0.0553
vn -0.9738 -0.2205 -0.0555
vn -0.9694 -0.2415 0.0448
vn 0.9897 -0.1410 -0.0256
vn 0.8851 -0.4643 -0.0340
vn 0.1018 0.9948 0.0095
vn -0.6464 0.7630 -0.0038
vn -0.1022 -0.9947 -0.0084
vn 0.9992 0.0392 -0.0045
vn -0.4840 -0.8749 -0.0144
vn -0.9954 -0.0942 -0.0160
vn -0.7827 0.6223 -0.0070
vn 0.0097 0.0080 -0.9999
vn -0.0002 -0.0138 0.9999
vn -0.0051 -0.0123 0.9999
vn -0.0533 0.9985 0.0156
vn -0.0545 0.9985 -0.0040
vn 0.0030 -0.0005 1.0000
vn -0.0065 -0.0012 1.0000
vn -0.0031 -0.0139 0.9999
vn 0.0033 -0.0008 1.0000
vn -0.0086 -0.0033 1.0000
vn 0.1010 -0.9949 -0.0069
vn 0.0036 -0.0012 -1.0000
vn 0.2986 -0.9544 -0.0030
vn -0.9978 -0.0650 0.0103
vn -0.9989 -0.0448 0.0122
vn -0.9989 -0.0453 0.0116
vn -0.0000 -0.7272 0.6864
vn -0.0000 -0.9945 0.1050
vn -0.0000 -0.9601 -0.2798
vn -0.0000 -0.9509 -0.3096
vn -0.0000 0.9212 0.3891
vn -0.0000 0.9771 -0.2129
vn -0.9361 -0.3514 -0.0140
vn 0.9991 0.0425 -0.0088
vn -0.0000 0.3215 0.9469
vn -0.9958 -0.0906 0.0155
vn -0.9694 -0.2414 0.0449
vn 0.0643 -0.9979 0.0039
vn -0.0000 0.9970 0.0780
vn -0.0000 0.7993 0.6009
vn -0.0000 -0.3817 -0.9243
vn -0.0000 -0.1213 0.9926
vn 0.8897 -0.4516 0.0672
vn -0.0000 -0.6942 -0.7198
vn 0.9921 -0.1214 -0.0310
vn 0.9940 -0.1087 -0.0097
vn 0.9938 -0.1077 0.0269
vn -0.0000 0.3639 0.9315
vn 0.9913 -0.1289 -0.0256
vn -0.0137 0.0078 -0.9999
vn -0.0011 0.0068 -1.0000
vn -0.0000 0.8498 -0.5271
vn -0.0000 0.0499 0.9988
vn -0.0000 0.3639 0.9314
vn -0.0000 0.9278 -0.3731
vn -0.0000 -0.4989 0.8666
vn 0.9596 0.2809 0.0170
vn -0.0000 -0.3816 -0.9243
vn -0.0000 -0.8452 0.5345
vn -0.0000 -0.7456 -0.6664
vn -0.0000 -0.0248 0.9997
vn -0.9990 -0.0428 -0.0136
vn -0.9756 -0.2135 -0.0516
vn -0.0544 0.9985 -0.0038
vt 0.488387 0.427301
vt 0.494123 0.245392
vt 0.499575 0.245392
vt 0.403845 0.043090
vt 0.411150 0.057030
vt 0.232089 0.043940
vt 0.515152 0.000000
vt 0.409091 0.000000
vt 0.439394 0.000000
vt 0.220869 0.086976
vt 0.217145 0.101832
vt 0.027054 0.072810
vt 0.342342 0.000000
vt 0.333333 0.000000
vt 0.414414 0.000000
vt 0.630631 0.000000
vt 0.621622 0.000000
vt 0.861111 0.000000
vt 0.416667 0.000000
vt 0.833333 0.000000
vt 0.594595 0.000000
vt 0.585586 0.000000
vt 0.253284 0.171568
vt 0.253285 0.156886
vt 0.269205 0.156898
vt 0.969697 0.000000
vt 0.712121 0.000000
vt 0.651515 0.000000
vt 0.187866 0.427063
vt 0.183412 0.245399
vt 0.193354 0.245397
vt 0.042975 0.156927
vt 0.042975 0.172055
vt 0.027055 0.172016
vt 0.171871 0.156923
vt 0.171870 0.171947
vt 0.155950 0.171912
vt 0.396396 0.000000
vt 0.387387 0.000000
vt 0.123535 0.186933
vt 0.107615 0.186945
vt 0.107615 0.172263
vt 0.576577 0.000000
vt 0.138889 0.000000
vt 0.166667 0.000000
vt 0.250000 0.000000
vt 0.015152 0.000000
vt 0.000000 0.000000
vt 0.990991 0.000000
vt 0.981982 0.000000
vt 1.000000 0.000000
vt 0.984848 0.000000
vt 0.217144 0.057029
vt 0.038084 0.043942
vt 0.048689 0.031310
vt 0.360360 0.000000
vt 0.369369 0.000000
vt 0.378378 0.000000
vt 0.954955 0.000000
vt 0.945946 0.000000
vt 0.891892 0.000000
vt 0.900901 0.000000
vt 0.363636 0.000000
vt 0.348485 0.000000
vt 0.030303 0.000000
vt 0.054054 0.000000
vt 0.045045 0.000000
vt 0.063063 0.000000
vt 0.317057 0.427018
vt 0.316762 0.245392
vt 0.323397 0.245392
vt 0.030778 0.057954
vt 0.220869 0.071848
vt 0.488671 0.245391
vt 0.623397 0.245476
vt 0.632092 0.245481
vt 0.654138 0.426183
vt 0.171171 0.000000
vt 0.144144 0.000000
vt 0.393939 0.000000
vt 0.216216 0.000000
vt 0.207207 0.000000
vt 0.306306 0.000000
vt 0.297297 0.000000
vt 0.242695 0.129222
vt 0.232089 0.116696
vt 0.393240 0.128477
vt 0.469697 0.000000
vt 0.454545 0.000000
vt 0.015300 0.983484
vt 0.015300 0.969752
vt 0.173869 0.970708
vt 0.750000 0.000000
vt 0.472222 0.000000
vt 0.500000 0.000000
vt 0.169865 0.147723
vt 0.152233 0.153609
vt 0.133386 0.156632
vt 0.114297 0.156741
vt 0.095693 0.153884
vt 0.711600 0.253136
vt 0.864400 0.366293
vt 0.882200 0.388311
vt 0.649445 0.606378
vt 0.671355 0.601088
vt 0.671349 0.671967
vt 0.172063 0.186935
vt 0.172063 0.172095
vt 0.187983 0.172120
vt 0.091311 0.156926
vt 0.091311 0.172017
vt 0.075391 0.171979
vt 0.590909 0.000000
vt 0.530303 0.000000
vt 0.545455 0.000000
vt 0.172063 0.156923
vt 0.187983 0.156888
vt 0.187983 0.171912
vt 0.045455 0.000000
vt 0.837838 0.000000
vt 0.765766 0.000000
vt 0.819820 0.000000
vt 0.606061 0.000000
vt 0.787879 0.000000
vt 0.939394 0.000000
vt 0.924242 0.000000
vt 0.575758 0.000000
vt 0.818182 0.000000
vt 0.540541 0.000000
vt 0.513514 0.000000
vt 0.468468 0.000000
vt 0.277778 0.000000
vt 0.083333 0.000000
vt 0.111111 0.000000
vt 0.180180 0.000000
vt 0.027027 0.000000
vt 0.018018 0.000000
vt 0.351351 0.000000
vt 0.864865 0.000000
vt 0.873874 0.000000
vt 0.738739 0.000000
vt 0.810811 0.000000
vt 0.774775 0.000000
vt 0.801802 0.000000
vt 0.747748 0.000000
vt 0.196970 0.000000
vt 0.181818 0.000000
vt 0.495495 0.000000
vt 0.155759 0.172120
vt 0.155759 0.186960
vt 0.139839 0.186935
vt 0.155759 0.156923
vt 0.155759 0.171948
vt 0.139839 0.171913
vt 0.560606 0.000000
vt 0.243243 0.000000
vt 0.009009 0.000000
vt 0.234234 0.000000
vt 0.036036 0.000000
vt 0.963964 0.000000
vt 0.225225 0.000000
vt 0.388889 0.000000
vt 0.803030 0.000000
vt 0.027778 0.000000
vt 0.285317 0.171568
vt 0.269396 0.171579
vt 0.269396 0.156897
vt 0.444444 0.000000
vt 0.757576 0.000000
vt 0.675676 0.000000
vt 0.657658 0.000000
vt 0.846847 0.000000
vt 0.855856 0.000000
vt 0.432432 0.000000
vt 0.279279 0.000000
vt 0.270270 0.000000
vt 0.792793 0.000000
vt 0.638889 0.000000
vt 0.722222 0.000000
vt 0.135135 0.000000
vt 0.126126 0.000000
vt 0.136364 0.000000
vt 0.621212 0.000000
vt 0.441441 0.000000
vt 0.847663 0.601085
vt 0.847669 0.671972
vt 0.549550 0.000000
vt 0.055556 0.000000
vt 0.212121 0.000000
vt 0.060606 0.000000
vt 0.863636 0.000000
vt 0.909091 0.000000
vt 0.893939 0.000000
vt 0.075758 0.000000
vt 0.257576 0.000000
vt 0.272727 0.000000
vt 0.729730 0.000000
vt 0.583333 0.000000
vt 0.611111 0.000000
vt 0.882883 0.000000
vt 0.681818 0.000000
vt 0.666667 0.000000
vt 0.636364 0.000000
vt 0.220207 0.156919
vt 0.220207 0.171855
vt 0.204287 0.171824
vt 0.848485 0.000000
vt 0.305556 0.000000
vt 0.504505 0.000000
vt 0.805556 0.000000
vt 0.261261 0.000000
vt 0.909910 0.000000
vt 0.936937 0.000000
vt 0.081081 0.000000
vt 0.072072 0.000000
vt 0.099099 0.000000
vt 0.090090 0.000000
vt 0.972973 0.000000
vt 0.777778 0.000000
vt 0.995149 0.930888
vt 0.834321 0.930098
vt 0.842730 0.906902
vt 0.742424 0.000000
vt 0.772727 0.000000
vt 0.878788 0.000000
vt 0.288288 0.000000
vt 0.178890 0.856602
vt 0.179279 0.891349
vt 0.014800 0.890804
vt 0.324324 0.000000
vt 0.315315 0.000000
vt 0.702703 0.000000
vt 0.194444 0.000000
vt 0.727273 0.000000
vt 0.222222 0.000000
vt 0.693694 0.000000
vt 0.405405 0.000000
vt 0.696970 0.000000
vt 0.198198 0.000000
vt 0.318182 0.000000
vt 0.252252 0.000000
vt 0.684685 0.000000
vt 0.756757 0.000000
vt 0.954545 0.000000
vt 0.828829 0.000000
vt 0.783784 0.000000
vt 0.117117 0.000000
vt 0.108108 0.000000
vt 0.027055 0.186953
vt 0.027055 0.172202
vt 0.042975 0.172221
vt 0.486486 0.000000
vt 0.090909 0.000000
vt 0.121212 0.000000
vt 0.477477 0.000000
vt 0.030779 0.102757
vt 0.209839 0.115845
vt 0.199234 0.128476
vt 0.378788 0.000000
vt 0.414874 0.086977
vt 0.221060 0.072809
vt 0.414874 0.071849
vt 0.043167 0.156927
vt 0.059087 0.172016
vt 0.043167 0.172055
vt 0.123727 0.156925
vt 0.139647 0.171979
vt 0.123727 0.172017
vt 0.075200 0.186953
vt 0.059279 0.172221
vt 0.075200 0.172202
vt 0.123922 0.172164
vt 0.269397 0.186371
vt 0.285472 0.171728
vt 0.285704 0.186371
vt 0.021577 0.245397
vt 0.008124 0.424610
vt 0.888700 0.695944
vt 0.974500 0.639481
vt 0.974500 0.695867
vt 0.172063 0.171947
vt 0.027055 0.087938
vt 0.615793 0.424784
vt 0.614701 0.245471
vt 0.269205 0.186372
vt 0.253285 0.186376
vt 0.253285 0.171731
vt 0.403845 0.115846
vt 0.973800 0.479833
vt 0.900400 0.511748
vt 0.963800 0.477685
vt 0.062186 0.020546
vt 0.078059 0.012063
vt 0.185736 0.019933
vt 0.095695 0.006186
vt 0.169864 0.011607
vt 0.114417 0.003142
vt 0.133506 0.003047
vt 0.152228 0.005906
vt 0.199234 0.030563
vt 0.221060 0.087937
vt 0.253093 0.172031
vt 0.253093 0.186967
vt 0.237172 0.186936
vt 0.393239 0.030564
vt 0.242695 0.031309
vt 0.256192 0.020545
vt 0.185737 0.139240
vt 0.048689 0.129223
vt 0.062187 0.139853
vt 0.078058 0.148180
vt 0.059087 0.156888
vt 0.091503 0.156925
vt 0.107423 0.171979
vt 0.091503 0.172017
vt 0.253093 0.171822
vt 0.237172 0.156917
vt 0.253093 0.156886
vt 0.329379 0.427505
vt 0.330032 0.245391
vt 0.269213 0.201082
vt 0.253285 0.186523
vt 0.269205 0.186526
vt 0.188175 0.156923
vt 0.204095 0.171913
vt 0.188175 0.171947
vt 0.203295 0.245395
vt 0.203886 0.427054
vt 0.204095 0.172114
vt 0.188175 0.186845
vt 0.188175 0.172095
vt 0.075200 0.156927
vt 0.059279 0.172016
vt 0.059279 0.156888
vt 0.888700 0.718575
vt 0.974500 0.774962
vt 0.888700 0.775039
vt 0.171871 0.186935
vt 0.155950 0.172120
vt 0.171871 0.172095
vt 0.888700 0.843163
vt 0.974387 0.843290
vt 0.974387 0.571209
vt 0.888700 0.639481
vt 0.888700 0.571356
vt 0.189189 0.000000
vt 0.107423 0.156888
vt 0.059279 0.186972
vt 0.075391 0.186809
vt 0.091311 0.172168
vt 0.091311 0.186813
vt 0.107423 0.187004
vt 0.091503 0.172190
vt 0.107423 0.172164
vt 0.224784 0.057953
vt 0.038084 0.116698
vt 0.075199 0.172055
vt 0.209839 0.043089
vt 0.272064 0.012062
vt 0.379741 0.019934
vt 0.289700 0.006185
vt 0.308422 0.003142
vt 0.363870 0.011607
vt 0.327511 0.003047
vt 0.346234 0.005906
vt 0.269543 0.171727
vt 0.411150 0.101833
vt 0.974500 0.718499
vt 0.379742 0.139241
vt 0.363870 0.147724
vt 0.256193 0.139852
vt 0.346234 0.153601
vt 0.327512 0.156644
vt 0.272065 0.148179
vt 0.308422 0.156739
vt 0.289701 0.153880
vt 0.221060 0.172220
vt 0.236980 0.186952
vt 0.221060 0.186971
vt 0.269205 0.171727
vt 0.224784 0.102756
vt 0.221060 0.156925
vt 0.236980 0.172014
vt 0.221060 0.172054
vt 0.220207 0.186938
vt 0.204287 0.172033
vt 0.220207 0.172002
vt 0.705100 0.246001
vt 0.858571 0.669329
vt 0.869473 0.666686
vt 0.660397 0.669322
vt 0.649445 0.666676
vt 0.660400 0.603733
vt 0.858568 0.603728
vt 0.869474 0.606370
vt 0.253285 0.201167
vt 0.075391 0.172164
vt 0.899700 0.519649
vt 0.043167 0.186884
vt 0.059087 0.172214
vt 0.059087 0.186896
vt 0.204095 0.156888
vt 0.995149 0.944544
vt 0.829412 0.943779
vt 0.075391 0.156888
vt 0.139839 0.172095
vt 0.027055 0.156888
vt 0.139839 0.156888
vt 0.187983 0.186960
vt 0.269205 0.171580
vt 0.237172 0.172000
vt 0.236981 0.156886
vt 0.499815 0.425587
vt 0.178794 0.984448
vt 0.423423 0.000000
vt 0.236981 0.172201
vt 0.285317 0.156886
vt 0.043167 0.172202
vt 0.155950 0.156888
vt 0.237172 0.171853
vt 0.139647 0.156888
vt 0.155951 0.186960
vt 0.042975 0.186972
vt 0.204287 0.186969
vt 0.091503 0.187030
vt 0.165893 0.947498
vt 0.015500 0.946277
vt 0.204287 0.156888
vt 0.798000 0.401889
vt 0.818900 0.422373
vt 0.107615 0.171979
vt 0.107615 0.156888
vt 0.123535 0.156925
vt 0.204095 0.186865
vt 0.994988 0.907336
vt 0.014700 0.856588
vt 0.123535 0.172017
s 1
g sword1.001_default
usemtl default
f 20/1/1 97/2/2 23/3/3
f 89/4/4 84/5/4 44/6/4
f 48/10/6 53/11/7 80/12/7
f 92/23/11 34/24/11 95/25/11
f 30/29/12 29/30/13 99/31/14
f 82/32/15 83/33/15 85/34/15
f 75/35/16 76/36/16 78/37/16
f 62/40/18 60/41/19 65/42/20
f 46/53/7 86/54/25 87/55/7
s 0
f 461/48/28 464/48/28 463/48/28
s 1
f 16/69/29 17/70/30 96/71/31
f 85/72/7 86/54/25 47/73/7
f 20/1/1 22/74/32 97/2/2
f 98/75/33 27/76/34 31/77/35
f 58/85/4 57/86/36 75/87/36
f 10/90/37 11/91/38 464/92/39
f 61/96/40 62/97/41 63/98/40
f 63/98/40 64/99/42 69/100/40
f 9/101/43 3/102/44 1/103/45
f 21/104/46 17/105/47 23/106/48
f 73/107/49 74/108/49 72/109/49
f 76/110/50 81/111/50 79/112/50
f 45/116/51 43/117/52 44/118/51
f 90/149/54 91/150/54 93/151/54
f 84/152/55 89/153/55 87/154/55
f 37/165/57 35/166/57 36/167/57
f 28/185/63 25/186/47 23/106/48
f 89/204/78 90/205/78 88/206/78
f 1/220/90 463/221/91 465/222/92
f 461/227/100 462/228/101 2/229/102
f 91/249/128 92/250/128 94/251/128
f 78/256/7 54/257/7 55/258/7
s 0
f 464/48/28 465/48/28 463/48/28
s 1
f 82/260/4 50/261/4 83/262/4
f 47/263/148 50/264/148 48/265/148
f 46/266/149 49/267/149 47/268/149
f 38/269/150 41/270/150 39/271/150
f 62/40/18 65/42/20 63/272/151
f 65/273/152 64/274/153 63/275/154
f 27/276/156 30/29/157 31/277/158
f 8/278/159 6/279/159 7/280/160
f 45/116/51 44/118/51 46/281/51
f 78/256/7 79/282/7 54/257/7
f 85/72/7 47/73/7 48/10/6
f 98/75/33 26/283/161 25/284/162
f 33/285/163 32/286/163 35/287/163
f 57/86/36 76/288/4 75/87/36
f 8/289/164 10/290/165 2/291/166
f 88/292/7 93/293/167 39/294/7
f 93/293/167 94/295/6 38/296/7
f 94/295/6 95/297/167 38/296/7
f 95/297/167 33/298/7 38/296/7
f 33/298/7 37/299/6 38/296/7
f 38/296/7 39/294/7 93/293/167
f 39/294/7 40/300/7 88/292/7
f 82/260/4 51/301/4 50/261/4
f 27/276/156 29/30/158 30/29/157
f 46/53/7 47/73/7 86/54/25
f 74/302/168 75/303/168 77/304/168
f 90/305/4 43/306/4 42/307/4
f 56/308/7 61/96/40 72/309/7
f 61/96/40 63/98/40 71/310/169
f 72/309/7 61/96/40 71/310/169
f 63/98/40 69/100/40 70/311/25
f 70/311/25 71/310/169 63/98/40
f 47/263/148 49/312/148 50/264/148
f 53/313/170 52/314/170 54/315/170
f 55/316/171 58/317/171 56/318/171
f 22/74/172 19/319/173 21/320/174
f 64/321/175 67/322/176 69/323/175
f 26/283/161 23/3/3 25/284/162
f 54/324/177 57/325/177 55/326/177
f 28/327/178 16/69/29 18/328/179
f 68/329/180 71/330/180 70/331/180
f 81/332/181 80/333/181 79/334/181
f 14/335/182 13/336/182 12/337/183
f 56/338/184 59/339/184 61/340/184
f 4/341/185 13/336/185 5/342/186
f 5/343/187 3/344/188 4/345/189
f 4/341/185 12/337/190 13/336/185
f 21/320/191 16/69/29 96/71/31
f 53/313/170 51/347/170 52/314/170
f 98/75/33 31/77/35 26/283/161
f 38/269/150 36/348/150 41/270/150
f 34/349/192 33/350/192 95/351/192
f 39/352/193 42/353/193 40/354/193
f 48/10/6 80/12/7 85/72/7
f 50/261/4 49/355/4 83/262/4
f 78/256/7 55/258/7 77/356/7
f 81/332/181 82/357/181 80/333/181
f 45/358/7 88/292/7 40/300/7
f 42/307/4 41/359/4 91/360/4
f 41/359/4 36/361/4 91/360/4
f 36/361/4 35/362/36 92/363/4
f 91/360/4 36/361/4 92/363/4
f 35/362/36 32/364/4 34/365/36
f 34/365/36 92/363/4 35/362/36
f 91/360/4 90/305/4 42/307/4
f 65/273/152 66/366/194 64/274/153
f 79/282/7 80/12/7 53/11/7
f 82/260/4 81/367/4 51/301/4
f 84/5/4 49/355/4 44/6/4
f 89/4/4 44/6/4 43/306/4
f 14/335/182 15/368/195 13/336/182
f 77/356/7 56/308/7 72/309/7
f 74/369/4 73/370/4 59/371/4
f 73/370/4 68/372/4 59/371/4
f 68/372/4 67/373/36 60/374/4
f 59/371/4 68/372/4 60/374/4
f 67/373/36 66/375/4 65/376/36
f 65/376/36 60/374/4 67/373/36
f 59/371/4 58/85/4 74/369/4
f 61/377/196 60/378/196 62/379/196
f 33/285/163 35/287/163 37/380/163
f 57/86/36 52/381/4 76/288/4
f 48/382/197 51/383/197 53/384/197
f 40/385/198 43/386/198 45/387/198
f 9/101/43 4/388/199 3/102/44
f 98/389/200 25/186/47 27/390/201
f 7/280/202 14/335/202 8/278/203
f 23/106/48 97/391/204 22/392/205
f 22/392/205 21/104/46 23/106/48
f 21/104/46 96/393/206 17/105/47
f 52/381/4 51/301/4 81/367/4
f 28/185/63 99/394/207 29/395/208
f 29/395/208 27/390/201 28/185/63
f 28/185/63 27/390/201 25/186/47
f 99/31/14 18/328/179 30/29/12
f 64/321/175 66/396/209 67/322/176
f 34/349/192 32/397/192 33/350/192
f 8/289/164 14/398/210 10/290/165
f 67/399/211 70/400/211 69/401/211
f 54/324/177 52/402/177 57/325/177
f 2/403/212 462/404/213 463/221/214
f 76/110/50 79/112/50 78/405/50
f 90/149/54 93/151/54 88/406/54
f 82/32/15 85/34/15 80/407/15
f 84/152/55 87/154/55 86/408/55
f 73/107/49 72/109/49 71/409/49
f 92/23/11 95/25/11 94/410/11
f 74/302/168 77/304/168 72/411/168
f 79/282/7 53/11/7 54/257/7
f 48/382/197 50/412/197 51/383/197
f 20/1/1 23/3/3 24/413/221
s 0
f 461/48/28 463/48/28 462/48/28
s 1
f 10/90/37 464/92/39 461/414/222
f 7/280/202 15/368/203 14/335/202
f 45/358/7 87/55/7 88/292/7
f 61/377/196 59/416/196 60/378/196
f 37/165/57 36/167/57 38/417/57
f 46/53/7 87/55/7 45/358/7
f 8/278/159 3/344/224 6/279/159
f 5/343/187 6/279/225 3/344/188
f 67/399/211 68/418/211 70/400/211
f 22/74/172 20/1/226 19/319/173
f 26/283/161 24/413/221 23/3/3
f 28/327/178 17/70/30 16/69/29
f 75/35/16 78/37/16 77/419/16
f 55/316/171 57/420/171 58/317/171
f 58/85/4 75/87/36 74/369/4
f 46/266/149 44/421/149 49/267/149
f 52/381/4 81/367/4 76/288/4
f 56/338/184 58/422/184 59/339/184
f 91/249/128 94/251/128 93/423/128
f 40/385/198 42/424/198 43/386/198
f 21/320/191 19/319/231 16/69/29
f 39/352/193 41/425/193 42/353/193
f 465/426/233 464/92/234 11/91/235
f 465/426/233 11/91/235 9/427/237
f 90/305/4 89/4/4 43/306/4
f 99/31/14 28/327/178 18/328/179
f 84/5/4 83/262/4 49/355/4
f 77/356/7 55/258/7 56/308/7
f 89/204/78 88/206/78 87/428/78
f 12/429/238 4/388/199 9/101/43
f 12/429/238 9/101/43 11/430/239
f 1/103/45 3/102/44 8/289/164
f 2/291/166 1/103/45 8/289/164
f 14/398/210 12/429/238 11/430/239
f 14/398/210 11/430/239 10/290/165
f 28/185/63 23/106/48 17/105/47
f 83/431/245 84/432/245 86/433/245
f 68/329/180 73/434/180 71/330/180
f 2/403/212 463/221/214 1/220/250
f 1/220/90 465/222/92 9/435/251
f 461/227/100 2/229/102 10/436/252
f 83/431/245 86/433/245 85/437/245
s 0
g sword1.001_Material
usemtl Material
f 153/7/5 149/8/5 150/9/5
f 402/13/8 401/14/8 410/15/8
f 245/16/9 244/17/9 425/17/9
f 127/18/5 114/19/5 126/20/5
f 243/21/10 242/22/10 423/22/10
f 183/26/5 166/27/5 162/28/5
f 227/38/17 226/39/17 407/39/17
f 242/22/17 241/43/17 422/43/17
f 105/44/5 106/45/5 109/46/5
f 130/47/21 129/48/21 310/48/21
f 279/49/22 459/50/23 460/51/24
f 184/52/17 183/26/17 364/26/17
f 223/56/5 224/57/5 225/58/5
f 275/59/26 274/60/26 455/60/26
f 274/60/5 270/61/5 271/62/5
f 327/63/8 326/64/8 312/65/8
f 424/21/8 423/22/8 426/16/8
f 372/66/27 371/67/27 373/68/27
f 383/78/8 382/79/8 373/68/8
f 310/48/8 329/80/8 312/65/8
f 146/63/5 148/80/5 131/65/5
f 388/81/27 207/81/27 206/82/27
f 217/83/17 216/84/17 397/84/17
f 333/88/8 332/89/8 331/9/8
f 123/93/5 116/94/5 117/95/5
f 158/113/5 154/114/5 155/115/5
f 145/64/5 131/65/5 132/119/5
f 150/9/5 151/89/5 152/88/5
f 264/120/5 256/121/5 262/122/5
f 159/123/5 184/52/5 171/124/5
f 181/125/21 180/126/21 361/126/21
f 157/127/5 154/114/5 173/128/5
f 420/129/8 419/130/8 414/131/8
f 110/132/5 103/133/5 104/134/5
f 384/135/8 369/136/8 368/137/8
f 188/136/53 187/137/53 368/137/53
f 403/138/27 404/56/27 223/56/27
f 278/50/5 267/139/5 268/140/5
f 434/141/8 442/142/8 438/143/8
f 441/144/8 435/145/8 434/141/8
f 321/146/8 320/147/8 319/45/8
f 233/131/5 236/148/5 238/130/5
f 157/127/17 156/155/17 337/155/17
f 210/156/5 186/157/5 209/158/5
f 190/67/56 192/68/56 189/159/56
f 456/59/8 449/140/8 457/160/8
f 388/81/24 389/161/24 208/161/24
f 294/162/8 293/14/8 308/18/8
f 353/163/8 339/113/8 335/114/8
f 101/164/21 100/48/21 281/48/21
f 296/168/8 295/19/8 307/20/8
f 169/169/5 183/26/5 184/52/5
f 417/148/8 414/131/8 419/130/8
f 429/170/8 427/171/8 423/22/8
f 279/49/5 265/172/5 266/173/5
f 412/174/8 395/175/8 394/176/8
f 280/51/5 261/142/5 259/177/5
f 120/178/5 122/179/5 117/95/5
f 371/67/56 370/159/56 373/68/56
f 129/48/5 131/65/5 148/80/5
f 200/180/58 199/181/58 380/181/58
f 318/182/59 319/45/60 138/45/60
f 352/124/8 341/183/8 340/123/8
f 414/131/61 233/131/61 232/184/62
f 127/18/64 126/20/64 307/20/64
f 241/43/65 240/187/66 421/187/66
f 173/128/21 172/163/21 353/163/21
f 214/175/24 213/176/24 394/176/24
f 387/82/8 390/158/8 389/161/8
f 103/133/67 102/188/67 283/188/67
f 141/189/24 140/146/24 321/146/24
f 133/190/68 132/119/68 313/119/68
f 357/191/8 360/192/8 359/193/8
f 315/194/69 134/194/69 133/190/69
f 117/95/70 116/94/70 297/94/70
f 323/195/71 324/196/71 143/196/71
f 240/187/72 252/197/72 433/197/72
f 239/129/5 232/184/5 233/131/5
f 299/198/73 300/199/73 119/199/73
f 254/145/5 260/144/5 257/143/5
f 269/200/5 270/61/5 274/60/5
f 225/58/17 224/57/17 405/57/17
f 243/21/5 244/17/5 245/16/5
f 164/201/17 163/202/17 344/202/17
f 419/130/74 420/129/75 239/129/75
f 315/194/8 314/190/8 319/45/8
f 339/113/17 158/113/17 161/203/17
f 334/7/8 333/88/8 331/9/8
f 299/198/76 118/198/76 117/95/77
f 157/127/5 175/207/5 176/191/5
f 103/133/5 110/132/5 111/208/5
f 345/201/8 337/155/8 336/115/8
f 237/209/24 236/148/24 417/148/24
f 126/20/79 125/210/79 306/210/79
f 151/89/80 150/9/80 331/9/80
f 391/156/8 394/176/8 393/211/8
f 272/212/81 453/212/81 454/213/82
f 194/214/83 193/215/83 374/215/83
f 196/216/84 195/217/84 376/217/84
f 458/218/85 459/50/85 278/50/85
f 115/168/86 114/19/86 295/19/86
f 302/202/87 121/202/87 120/178/87
f 451/61/17 270/61/88 269/200/88
f 175/207/24 174/20/24 355/20/24
f 124/219/89 123/93/89 304/93/89
f 186/157/21 231/174/21 412/174/21
f 129/48/17 148/80/17 329/80/17
f 146/63/93 145/64/93 326/64/93
f 168/223/5 160/183/5 161/203/5
f 110/132/94 109/46/94 290/46/94
f 352/124/21 171/124/21 170/224/21
f 178/193/27 177/225/27 358/225/27
f 125/210/95 124/219/95 305/219/95
f 187/137/96 186/157/96 367/157/96
f 174/20/27 173/128/27 354/128/27
f 215/226/27 214/175/27 395/175/27
f 177/225/5 178/193/5 179/192/5
f 277/218/97 276/160/97 457/160/97
f 156/155/5 176/191/5 179/192/5
f 394/176/17 213/176/17 212/211/17
f 453/212/98 272/212/98 271/62/17
f 193/215/99 192/68/99 373/68/99
f 219/230/27 218/231/27 399/231/27
f 240/187/5 241/43/5 251/232/5
f 245/16/103 426/16/103 427/171/104
f 107/233/105 106/45/105 287/45/105
f 210/156/24 209/158/24 390/158/24
f 167/234/17 166/27/17 347/27/17
f 322/189/8 319/45/8 314/190/8
f 123/93/106 122/179/106 303/179/106
f 304/93/8 303/179/8 298/95/8
f 106/45/107 105/44/107 286/44/107
f 356/207/27 357/191/27 176/191/27
f 108/235/108 107/233/108 288/233/108
f 189/159/109 188/136/109 369/136/109
f 395/175/8 398/83/8 397/84/8
f 330/8/110 149/8/110 153/7/110
f 432/232/17 251/232/17 250/236/17
f 195/217/111 194/214/111 375/214/111
f 226/39/24 225/58/24 406/58/24
f 409/237/21 228/237/21 227/38/21
f 162/28/27 165/238/27 346/238/27
f 344/202/21 163/202/21 162/28/21
f 352/124/8 365/52/8 349/223/8
f 165/238/24 164/201/24 345/201/24
f 206/82/24 205/239/24 386/239/24
f 113/162/67 112/14/112 293/14/112
f 179/192/24 178/193/24 359/193/24
f 215/226/5 216/84/5 217/83/5
f 325/240/113 144/240/113 143/196/114
f 211/241/5 212/211/5 213/176/5
f 222/138/24 221/13/24 402/13/24
f 202/78/17 201/79/17 382/79/17
f 455/60/8 451/61/8 450/200/8
f 249/242/27 248/170/27 429/170/27
f 255/243/21 254/145/21 435/145/21
f 154/114/24 157/127/24 338/127/24
f 183/26/24 182/244/24 363/244/24
f 347/27/8 343/28/8 346/238/8
f 111/208/115 110/132/115 291/132/115
f 334/7/116 153/7/116 152/88/117
f 114/19/118 113/162/118 294/162/118
f 166/27/21 169/169/21 350/169/21
f 169/169/27 168/223/27 349/223/27
f 265/172/27 264/120/27 445/120/27
f 263/245/27 262/122/27 443/122/27
f 292/208/27 293/14/27 112/14/27
f 212/211/24 211/241/24 392/241/24
f 344/202/8 361/126/8 360/192/8
f 342/203/8 336/115/8 335/114/8
f 185/51/24 184/52/24 365/52/24
f 201/79/119 200/180/119 381/180/119
f 267/139/120 266/173/120 447/173/120
f 302/202/121 303/179/122 122/179/122
f 259/177/27 258/246/27 439/246/27
f 145/64/123 144/240/124 325/240/124
f 403/138/8 406/58/8 405/57/8
f 264/120/24 263/245/24 444/245/24
f 198/247/125 197/248/125 378/248/125
f 140/146/27 139/147/27 320/147/27
f 285/134/126 104/134/126 103/133/126
f 193/215/5 200/180/5 201/79/5
f 289/235/127 290/46/127 109/46/127
f 221/13/17 220/14/17 401/14/17
f 434/141/27 435/145/27 254/145/27
f 260/144/21 259/177/21 440/177/21
f 452/62/8 451/61/8 455/60/8
f 309/51/129 128/51/129 127/18/130
f 437/121/24 434/141/24 253/141/24
f 438/143/24 439/246/24 258/246/24
f 262/122/21 261/142/21 442/142/21
f 209/158/17 208/161/17 389/161/17
f 452/62/98 271/62/17 270/61/131
f 221/13/5 228/237/5 229/15/5
f 337/155/21 156/155/21 155/115/21
f 342/203/8 341/183/8 349/223/8
f 256/121/17 255/243/17 436/243/17
f 266/173/21 265/172/21 446/172/21
f 286/44/132 105/44/132 104/134/132
f 269/200/133 268/140/133 449/140/133
f 320/147/21 139/147/21 138/45/21
f 164/201/5 179/192/5 180/126/5
f 182/244/27 181/125/27 362/125/27
f 247/202/17 246/171/17 427/171/17
f 419/130/17 238/130/17 237/209/17
f 155/115/27 154/114/27 335/114/27
f 248/170/21 247/202/21 428/202/21
f 417/148/27 236/148/27 235/252/27
f 185/51/5 170/224/5 171/124/5
f 197/248/134 196/216/134 377/216/134
f 150/9/135 149/8/136 330/8/136
f 424/21/137 425/17/138 244/17/138
f 192/68/5 201/79/5 202/78/5
f 454/213/139 455/60/139 274/60/139
f 261/142/17 280/51/17 460/51/17
f 404/56/24 405/57/24 224/57/24
f 207/81/5 208/161/5 209/158/5
f 190/67/27 189/159/27 370/159/27
f 323/195/140 142/195/140 141/189/141
f 135/253/142 134/194/142 315/194/142
f 353/163/17 172/163/17 171/124/17
f 459/50/8 458/218/8 449/140/8
f 136/254/143 135/253/144 316/253/144
f 137/182/145 136/254/145 317/254/145
f 218/231/24 217/83/24 398/83/24
f 102/188/27 101/164/27 282/164/27
f 235/252/21 234/255/21 415/255/21
f 351/224/8 366/51/8 365/52/8
f 116/94/146 115/168/146 296/168/146
f 415/255/17 234/255/17 233/131/17
f 352/124/8 340/123/8 353/163/8
f 285/134/8 284/133/8 291/132/8
f 191/66/17 371/67/17 372/66/17
f 148/80/147 147/259/147 328/259/147
f 384/135/8 370/159/8 369/136/8
f 279/49/5 267/139/5 278/50/5
f 388/81/27 206/82/27 387/82/27
f 327/63/155 328/259/155 147/259/155
f 183/26/5 169/169/5 166/27/5
f 166/27/5 155/115/5 165/238/5
f 162/28/5 163/202/5 182/244/5
f 166/27/5 165/238/5 162/28/5
f 182/244/5 183/26/5 162/28/5
f 141/189/5 144/240/5 133/190/5
f 203/135/5 187/137/5 188/136/5
f 326/64/8 313/119/8 312/65/8
f 140/146/5 138/45/5 139/147/5
f 134/194/5 138/45/5 133/190/5
f 318/182/8 317/254/8 316/253/8
f 316/253/8 315/194/8 318/182/8
f 421/187/8 433/197/8 432/232/8
f 324/196/8 323/195/8 322/189/8
f 367/157/8 385/346/8 368/137/8
f 145/64/5 132/119/5 144/240/5
f 327/63/8 329/80/8 328/259/8
f 325/240/8 324/196/8 322/189/8
f 325/240/8 314/190/8 313/119/8
f 382/79/8 374/215/8 373/68/8
f 191/66/17 372/66/17 192/68/17
f 384/135/8 383/78/8 370/159/8
f 279/49/5 266/173/5 267/139/5
f 141/189/5 133/190/5 138/45/5
f 383/78/8 373/68/8 370/159/8
f 161/203/21 341/183/21 342/203/21
f 107/233/5 108/235/5 109/46/5
f 285/134/8 291/132/8 290/46/8
f 284/133/8 292/208/8 291/132/8
f 106/45/5 107/233/5 109/46/5
f 286/44/8 290/46/8 287/45/8
f 358/225/21 177/225/21 176/191/21
f 100/48/5 101/164/5 102/188/5
f 308/18/8 295/19/8 294/162/8
f 127/18/5 128/51/5 112/14/5
f 113/162/5 127/18/5 112/14/5
f 297/94/8 306/210/8 305/219/8
f 296/168/8 307/20/8 306/210/8
f 180/126/27 179/192/27 360/192/27
f 421/187/8 432/232/8 422/43/8
f 123/93/5 124/219/5 116/94/5
f 120/178/5 121/202/5 122/179/5
f 117/95/5 118/198/5 119/199/5
f 301/178/8 298/95/8 303/179/8
f 140/146/5 141/189/5 138/45/5
f 308/18/8 307/20/8 295/19/8
f 128/51/5 100/48/5 111/208/5
f 100/48/5 102/188/5 111/208/5
f 128/51/5 111/208/5 112/14/5
f 367/157/8 386/239/8 385/346/8
f 275/59/5 268/140/5 269/200/5
f 190/67/27 191/66/27 192/68/27
f 125/210/5 115/168/5 116/94/5
f 125/210/5 116/94/5 124/219/5
f 454/213/8 453/212/8 452/62/8
f 458/218/8 457/160/8 449/140/8
f 460/51/8 459/50/8 436/243/8
f 115/168/5 126/20/5 114/19/5
f 460/51/8 436/243/8 435/145/8
f 441/144/8 440/177/8 460/51/8
f 435/145/8 441/144/8 460/51/8
f 275/59/5 276/160/5 268/140/5
f 256/121/5 264/120/5 265/172/5
f 436/243/8 459/50/8 446/172/8
f 446/172/8 459/50/8 447/173/8
f 447/173/8 459/50/8 448/139/8
f 334/7/8 331/9/8 330/8/8
f 157/127/17 337/155/17 338/127/17
f 262/122/5 263/245/5 264/120/5
f 100/48/17 128/51/17 309/51/17
f 172/163/5 173/128/5 158/113/5
f 172/163/5 158/113/5 159/123/5
f 165/238/5 156/155/5 164/201/5
f 171/124/5 172/163/5 159/123/5
f 168/223/24 167/234/24 348/234/24
f 180/126/5 181/125/5 182/244/5
f 358/225/21 176/191/21 357/191/21
f 155/115/5 166/27/5 167/234/5
f 155/115/5 167/234/5 161/203/5
f 350/169/8 365/52/8 364/26/8
f 184/52/5 159/123/5 160/183/5
f 184/52/5 160/183/5 168/223/5
f 180/126/27 360/192/27 361/126/27
f 180/126/5 182/244/5 163/202/5
f 256/121/5 265/172/5 255/243/5
f 160/183/27 340/123/27 341/183/27
f 204/346/215 203/135/215 384/135/215
f 173/128/5 174/20/5 175/207/5
f 159/123/24 339/113/24 340/123/24
f 311/47/27 131/65/27 130/47/27
f 351/224/17 170/224/17 185/51/17
f 400/230/24 401/14/24 220/14/24
f 205/239/216 204/346/216 385/346/216
f 433/197/217 252/197/217 251/232/218
f 173/128/5 175/207/5 157/127/5
f 154/114/5 158/113/5 173/128/5
f 130/47/21 310/48/21 311/47/21
f 357/191/8 356/207/8 345/201/8
f 216/84/24 215/226/24 396/226/24
f 336/115/8 348/234/8 346/238/8
f 357/191/8 345/201/8 360/192/8
f 243/21/10 423/22/10 424/21/10
f 445/120/8 444/245/8 443/122/8
f 132/119/219 131/65/219 312/65/219
f 223/56/5 225/58/5 222/138/5
f 437/121/8 445/120/8 443/122/8
f 120/178/220 119/199/220 300/199/220
f 434/141/8 437/121/8 442/142/8
f 437/121/8 443/122/8 442/142/8
f 442/142/8 460/51/8 440/177/8
f 442/142/8 440/177/8 439/246/8
f 442/142/8 439/246/8 438/143/8
f 233/131/5 234/255/5 235/252/5
f 236/148/5 237/209/5 238/130/5
f 233/131/5 235/252/5 236/148/5
f 372/66/27 373/68/27 192/68/27
f 284/133/8 283/188/8 292/208/8
f 249/242/5 250/236/5 251/232/5
f 247/202/5 248/170/5 246/171/5
f 248/170/5 249/242/5 241/43/5
f 246/171/5 248/170/5 242/22/5
f 279/49/22 460/51/24 280/51/24
f 245/16/5 246/171/5 242/22/5
f 242/22/5 248/170/5 241/43/5
f 249/242/5 251/232/5 241/43/5
f 225/58/5 226/39/5 227/38/5
f 231/174/5 186/157/5 213/176/5
f 153/7/5 150/9/5 152/88/5
f 231/174/5 214/175/5 217/83/5
f 384/135/8 368/137/8 385/346/8
f 274/60/5 271/62/5 273/213/5
f 420/129/8 414/131/8 413/184/8
f 159/123/24 158/113/24 339/113/24
f 193/215/5 194/214/5 200/180/5
f 194/214/5 195/217/5 199/181/5
f 199/181/5 195/217/5 196/216/5
f 200/180/5 194/214/5 199/181/5
f 225/58/5 227/38/5 222/138/5
f 227/38/5 228/237/5 222/138/5
f 242/22/17 422/43/17 423/22/17
f 410/15/27 229/15/27 228/237/27
f 196/216/5 197/248/5 199/181/5
f 197/248/5 198/247/5 199/181/5
f 221/13/5 222/138/5 228/237/5
f 402/13/8 410/15/8 409/237/8
f 148/80/223 328/259/223 329/80/223
f 231/174/17 230/415/17 411/415/17
f 403/138/27 223/56/27 222/138/27
f 430/242/24 431/236/24 250/236/24
f 227/38/17 407/39/17 408/38/17
f 257/143/17 260/144/17 441/144/17
f 129/48/5 130/47/5 131/65/5
f 220/14/5 229/15/5 219/230/5
f 229/15/5 230/415/5 219/230/5
f 218/231/5 219/230/5 230/415/5
f 218/231/5 230/415/5 231/174/5
f 217/83/5 218/231/5 231/174/5
f 326/64/8 325/240/8 313/119/8
f 214/175/5 231/174/5 213/176/5
f 213/176/5 186/157/5 210/156/5
f 205/239/5 206/82/5 186/157/5
f 206/82/5 209/158/5 186/157/5
f 309/51/8 308/18/8 293/14/8
f 120/178/5 117/95/5 119/199/5
f 105/44/5 109/46/5 104/134/5
f 305/219/8 304/93/8 297/94/8
f 123/93/5 117/95/5 122/179/5
f 297/94/8 296/168/8 306/210/8
f 303/179/8 302/202/8 301/178/8
f 300/199/8 299/198/8 298/95/8
f 321/146/8 319/45/8 322/189/8
f 350/169/8 349/223/8 365/52/8
f 282/164/8 281/48/8 283/188/8
f 281/48/8 309/51/8 292/208/8
f 283/188/8 281/48/8 292/208/8
f 424/21/8 426/16/8 425/17/8
f 290/46/8 289/235/8 288/233/8
f 288/233/8 287/45/8 290/46/8
f 278/50/5 268/140/5 277/218/5
f 146/63/5 131/65/5 145/64/5
f 382/79/8 381/180/8 374/215/8
f 134/194/5 137/182/5 138/45/5
f 293/14/8 292/208/8 309/51/8
f 110/132/5 104/134/5 109/46/5
f 245/16/9 425/17/9 426/16/9
f 199/181/227 198/247/227 379/247/227
f 217/83/17 397/84/17 398/83/17
f 445/120/8 437/121/8 436/243/8
f 169/169/5 184/52/5 168/223/5
f 355/20/8 354/128/8 356/207/8
f 354/128/8 353/163/8 335/114/8
f 356/207/8 354/128/8 338/127/8
f 338/127/8 337/155/8 356/207/8
f 338/127/8 354/128/8 335/114/8
f 353/163/8 340/123/8 339/113/8
f 347/27/8 350/169/8 364/26/8
f 364/26/8 363/244/8 343/28/8
f 363/244/8 362/125/8 361/126/8
f 363/244/8 361/126/8 344/202/8
f 363/244/8 344/202/8 343/28/8
f 347/27/8 364/26/8 343/28/8
f 275/59/26 455/60/26 456/59/26
f 441/144/8 434/141/8 438/143/8
f 268/140/228 267/139/228 448/139/228
f 345/201/8 356/207/8 337/155/8
f 181/125/21 361/126/21 362/125/21
f 388/81/24 208/161/24 207/81/24
f 276/160/229 275/59/229 456/59/229
f 184/52/17 364/26/17 365/52/17
f 189/159/5 202/78/5 203/135/5
f 203/135/230 202/78/230 383/78/230
f 327/63/8 312/65/8 329/80/8
f 146/63/5 147/259/5 148/80/5
f 310/48/8 312/65/8 311/47/8
f 161/203/21 160/183/21 341/183/21
f 142/195/5 143/196/5 141/189/5
f 143/196/5 144/240/5 141/189/5
f 136/254/5 137/182/5 135/253/5
f 304/93/8 298/95/8 297/94/8
f 135/253/5 137/182/5 134/194/5
f 322/189/8 314/190/8 325/240/8
f 144/240/5 132/119/5 133/190/5
f 203/135/5 204/346/5 187/137/5
f 419/130/8 418/209/8 417/148/8
f 417/148/8 416/252/8 414/131/8
f 416/252/8 415/255/8 414/131/8
f 239/129/5 233/131/5 238/130/5
f 240/187/5 251/232/5 252/197/5
f 286/44/8 285/134/8 290/46/8
f 432/232/8 431/236/8 430/242/8
f 243/21/5 245/16/5 242/22/5
f 165/238/5 155/115/5 156/155/5
f 422/43/8 432/232/8 430/242/8
f 423/22/8 422/43/8 429/170/8
f 422/43/8 430/242/8 429/170/8
f 429/170/8 428/202/8 427/171/8
f 427/171/8 426/16/8 423/22/8
f 272/212/5 273/213/5 271/62/5
f 452/62/8 455/60/8 454/213/8
f 455/60/8 450/200/8 456/59/8
f 315/194/8 319/45/8 318/182/8
f 115/168/5 125/210/5 126/20/5
f 276/160/5 277/218/5 268/140/5
f 459/50/8 449/140/8 448/139/8
f 103/133/5 111/208/5 102/188/5
f 279/49/5 260/144/5 254/145/5
f 257/143/5 258/246/5 261/142/5
f 160/183/27 159/123/27 340/123/27
f 257/143/5 261/142/5 253/141/5
f 261/142/5 262/122/5 256/121/5
f 253/141/5 261/142/5 256/121/5
f 301/178/8 300/199/8 298/95/8
f 419/130/74 239/129/75 238/130/74
f 332/89/232 333/88/232 152/88/232
f 279/49/5 254/145/5 255/243/5
f 279/49/5 255/243/5 265/172/5
f 254/145/5 257/143/5 253/141/5
f 230/415/21 229/15/21 410/15/21
f 345/201/8 336/115/8 346/238/8
f 395/175/8 397/84/8 396/226/8
f 232/184/236 239/129/236 420/129/236
f 380/181/8 379/247/8 378/248/8
f 377/216/8 376/217/8 380/181/8
f 376/217/8 375/214/8 380/181/8
f 380/181/8 378/248/8 377/216/8
f 381/180/8 380/181/8 375/214/8
f 375/214/8 374/215/8 381/180/8
f 193/215/5 201/79/5 192/68/5
f 192/68/5 202/78/5 189/159/5
f 189/159/5 203/135/5 188/136/5
f 204/346/5 186/157/5 187/137/5
f 367/157/8 412/174/8 394/176/8
f 311/47/27 312/65/27 131/65/27
f 409/237/8 408/38/8 403/138/8
f 408/38/8 407/39/8 406/58/8
f 391/156/8 393/211/8 392/241/8
f 408/38/8 406/58/8 403/138/8
f 204/346/5 205/239/5 186/157/5
f 409/237/8 403/138/8 402/13/8
f 127/18/5 113/162/5 114/19/5
f 456/59/8 450/200/8 449/140/8
f 411/415/8 410/15/8 400/230/8
f 410/15/8 401/14/8 400/230/8
f 411/415/8 400/230/8 399/231/8
f 386/239/8 367/157/8 387/82/8
f 387/82/8 367/157/8 390/158/8
f 412/174/8 411/415/8 399/231/8
f 412/174/8 399/231/8 398/83/8
f 390/158/8 367/157/8 391/156/8
f 391/156/8 367/157/8 394/176/8
f 412/174/8 398/83/8 395/175/8
f 261/142/5 258/246/5 259/177/5
f 259/177/5 260/144/5 280/51/5
f 260/144/5 279/49/5 280/51/5
f 103/133/67 283/188/67 284/133/67
f 387/82/8 389/161/8 388/81/8
f 221/13/5 229/15/5 220/14/5
f 201/79/119 381/180/119 382/79/119
f 289/235/127 109/46/127 108/235/127
f 285/134/126 103/133/126 284/133/126
f 292/208/27 112/14/27 111/208/27
f 114/19/118 294/162/118 295/19/118
f 111/208/115 291/132/115 292/208/115
f 286/44/132 104/134/132 285/134/132
f 330/8/110 153/7/110 334/7/110
f 108/235/108 288/233/108 289/235/108
f 106/45/107 286/44/107 287/45/107
f 123/93/106 303/179/106 304/93/106
f 107/233/240 287/45/240 288/233/240
f 323/195/140 141/189/141 322/189/141
f 110/132/94 290/46/94 291/132/94
f 124/219/89 304/93/89 305/219/89
f 458/218/85 278/50/85 277/218/85
f 115/168/86 295/19/86 296/168/86
f 302/202/87 120/178/87 301/178/87
f 351/224/17 185/51/17 366/51/17
f 424/21/137 244/17/138 243/21/137
f 327/63/155 147/259/155 146/63/155
f 168/223/24 348/234/24 349/223/24
f 151/89/80 331/9/80 332/89/80
f 272/212/81 454/213/82 273/213/82
f 126/20/79 306/210/79 307/20/79
f 269/200/5 274/60/5 275/59/5
f 279/49/23 278/50/23 459/50/23
f 117/95/70 297/94/70 298/95/70
f 173/128/21 353/163/21 354/128/21
f 127/18/64 307/20/64 308/18/64
f 200/180/58 380/181/58 381/180/58
f 116/94/146 296/168/146 297/94/146
f 102/188/27 282/164/27 283/188/27
f 353/163/17 171/124/17 352/124/17
f 185/51/5 171/124/5 184/52/5
f 403/138/8 405/57/8 404/56/8
f 185/51/24 365/52/24 366/51/24
f 342/203/8 335/114/8 339/113/8
f 344/202/8 360/192/8 345/201/8
f 166/27/21 350/169/21 347/27/21
f 169/169/27 349/223/27 350/169/27
f 183/26/24 363/244/24 364/26/24
f 154/114/24 338/127/24 335/114/24
f 202/78/17 382/79/17 383/78/17
f 337/155/21 155/115/21 336/115/21
f 164/201/5 180/126/5 163/202/5
f 165/238/24 345/201/24 346/238/24
f 179/192/24 359/193/24 360/192/24
f 344/202/21 162/28/21 343/28/21
f 162/28/27 346/238/27 343/28/27
f 195/217/111 375/214/111 376/217/111
f 155/115/27 335/114/27 336/115/27
f 356/207/27 176/191/27 175/207/27
f 167/234/17 347/27/17 348/234/17
f 177/225/5 179/192/5 176/191/5
f 174/20/27 354/128/27 355/20/27
f 178/193/27 358/225/27 359/193/27
f 146/63/93 326/64/93 327/63/93
f 168/223/5 161/203/5 167/234/5
f 451/61/17 269/200/241 450/200/241
f 158/113/5 155/115/5 161/203/5
f 175/207/24 355/20/24 356/207/24
f 164/201/17 344/202/17 345/201/17
f 339/113/17 161/203/17 342/203/17
f 240/187/72 433/197/72 421/187/72
f 299/198/73 119/199/73 118/198/73
f 225/58/17 405/57/17 406/58/17
f 299/198/76 117/95/77 298/95/77
f 357/191/8 359/193/8 358/225/8
f 141/189/24 321/146/24 322/189/24
f 133/190/68 313/119/68 314/190/68
f 315/194/69 133/190/69 314/190/69
f 241/43/65 421/187/66 422/43/65
f 214/175/24 394/176/24 395/175/24
f 323/195/71 143/196/71 142/195/71
f 157/127/5 176/191/5 156/155/5
f 332/89/232 152/88/232 151/89/232
f 230/415/21 410/15/21 411/415/21
f 232/184/242 420/129/242 413/184/242
f 318/182/59 138/45/60 137/182/59
f 136/254/143 316/253/144 317/254/143
f 137/182/145 317/254/145 318/182/145
f 414/131/61 232/184/62 413/184/62
f 237/209/24 417/148/24 418/209/24
f 135/253/243 315/194/243 316/253/243
f 218/231/24 398/83/24 399/231/24
f 235/252/21 415/255/21 416/252/21
f 351/224/8 365/52/8 352/124/8
f 415/255/17 233/131/17 414/131/17
f 197/248/244 377/216/244 378/248/244
f 417/148/27 235/252/27 416/252/27
f 150/9/135 330/8/136 331/9/135
f 419/130/17 237/209/17 418/209/17
f 248/170/21 428/202/21 429/170/21
f 454/213/139 274/60/139 273/213/139
f 320/147/21 138/45/21 319/45/21
f 392/241/27 211/241/27 210/156/27
f 182/244/27 362/125/27 363/244/27
f 445/120/8 436/243/8 446/172/8
f 269/200/133 449/140/133 450/200/133
f 247/202/17 427/171/17 428/202/17
f 261/142/17 460/51/17 442/142/17
f 452/62/98 270/61/131 451/61/17
f 430/242/24 250/236/24 249/242/24
f 342/203/8 349/223/8 348/234/8
f 438/143/24 258/246/24 257/143/24
f 257/143/17 441/144/17 438/143/17
f 262/122/21 442/142/21 443/122/21
f 256/121/17 436/243/17 437/121/17
f 260/144/21 440/177/21 441/144/21
f 309/51/129 127/18/130 308/18/130
f 268/140/228 448/139/228 449/140/228
f 434/141/27 254/145/27 253/141/27
f 437/121/24 253/141/24 256/121/24
f 266/173/21 446/172/21 447/173/21
f 404/56/24 224/57/24 223/56/24
f 145/64/123 325/240/124 326/64/123
f 259/177/27 439/246/27 440/177/27
f 264/120/24 444/245/24 445/120/24
f 198/247/125 378/248/125 379/247/125
f 212/211/24 392/241/24 393/211/24
f 263/245/27 443/122/27 444/245/27
f 267/139/120 447/173/120 448/139/120
f 265/172/27 445/120/27 446/172/27
f 302/202/121 122/179/122 121/202/121
f 140/146/27 320/147/27 321/146/27
f 255/243/21 435/145/21 436/243/21
f 132/119/219 312/65/219 313/119/219
f 249/242/27 429/170/27 430/242/27
f 347/27/8 346/238/8 348/234/8
f 410/15/27 228/237/27 409/237/27
f 120/178/220 300/199/220 301/178/220
f 276/160/246 456/59/246 457/160/246
f 334/7/116 152/88/117 333/88/117
f 221/13/17 401/14/17 402/13/17
f 207/81/5 209/158/5 206/82/5
f 215/226/5 217/83/5 214/175/5
f 199/181/227 379/247/227 380/181/227
f 113/162/67 293/14/112 294/162/67
f 325/240/113 143/196/247 324/196/247
f 211/241/5 213/176/5 210/156/5
f 226/39/24 406/58/24 407/39/24
f 409/237/21 227/38/21 408/38/21
f 432/232/17 250/236/17 431/236/17
f 352/124/8 349/223/8 341/183/8
f 206/82/24 386/239/24 387/82/24
f 222/138/24 402/13/24 403/138/24
f 219/230/27 399/231/27 400/230/27
f 231/174/17 411/415/17 412/174/17
f 209/158/17 389/161/17 390/158/17
f 245/16/103 427/171/104 246/171/104
f 216/84/24 396/226/24 397/84/24
f 210/156/24 390/158/24 391/156/24
f 205/239/216 385/346/216 386/239/216
f 189/159/109 369/136/109 370/159/109
f 392/241/27 210/156/27 391/156/27
f 156/155/5 179/192/5 164/201/5
f 433/197/217 251/232/218 432/232/218
f 394/176/17 212/211/17 393/211/17
f 215/226/27 395/175/27 396/226/27
f 400/230/24 220/14/24 219/230/24
f 277/218/248 457/160/248 458/218/248
f 453/212/249 271/62/17 452/62/249
f 129/48/17 329/80/17 310/48/17
f 352/124/21 170/224/21 351/224/21
f 186/157/21 412/174/21 367/157/21
f 125/210/95 305/219/95 306/210/95
f 100/48/17 309/51/17 281/48/17
f 204/346/215 384/135/215 385/346/215
f 187/137/96 367/157/96 368/137/96
f 193/215/99 373/68/99 374/215/99
f 203/135/230 383/78/230 384/135/230
f 194/214/83 374/215/83 375/214/83
f 101/164/21 281/48/21 282/164/21
f 188/136/53 368/137/53 369/136/53
f 196/216/84 376/217/84 377/216/84
f 190/67/27 371/67/27 191/66/27
f 336/115/8 342/203/8 348/234/8
f 190/67/27 370/159/27 371/67/27
