# Made in Blockbench 4.12.6
mtllib sanic_swurd.mtl

o ASSET_Joined_handle
v 0.0106875 -0.004686875000000146 -0.023425625
v -0.01137125 -0.004686875000000146 -0.023425625
v -0.01137125 0.13437499999999983 -0.023425625
v 0.0106875 0.13437499999999983 -0.023425625
v 0.0106875 -0.004686875000000146 0.020324375
v 0.0106875 0.13437499999999983 0.020324375
v -0.01137125 -0.004686875000000146 0.020324375
v -0.01137125 0.13437499999999983 0.020324375
v 0.01021875 0.14024999999999985 -0.0022325
v 0.00940375 0.14024999999999985 -0.002519375
v 0.00940375 0.7644368749999999 -0.002519375
v 0.01021875 0.7644368749999999 -0.0022325
v 0.0007356250000000029 0.14024999999999985 0.01722625
v 0.0007356250000000029 0.7644368749999999 0.01722625
v -0.00007937499999999689 0.14024999999999985 0.016939375
v -0.00007937499999999689 0.7644368749999999 0.016939375
v -0.00894375 0.14024999999999985 -0.002476875
v -0.009758125 0.14024999999999985 -0.002189375
v -0.009758125 0.7644368749999999 -0.002189375
v -0.00894375 0.7644368749999999 -0.002476875
v -0.00016437499999999683 0.14024999999999985 0.015539375
v -0.00016437499999999683 0.7644368749999999 0.015539375
v -0.000979374999999997 0.14024999999999985 0.01582625
v -0.000979374999999997 0.7644368749999999 0.01582625
v 0.01031875 0.14249999999999982 -0.01998875
v -0.009165625 0.14249999999999982 -0.01998875
v -0.009165625 0.7668749999999998 -0.01998875
v 0.01031875 0.7668749999999998 -0.01998875
v 0.01031875 0.14249999999999982 -0.00186375
v 0.01031875 0.7668749999999998 -0.00186375
v -0.009165625 0.14249999999999982 -0.00186375
v -0.009165625 0.7668749999999998 -0.00186375
v 0.030906875000000004 0.13281312499999984 -0.03748875
v -0.031593125 0.13281312499999984 -0.03748875
v -0.031593125 0.14374999999999982 -0.03748875
v 0.030906875000000004 0.14374999999999982 -0.03748875
v 0.030906875000000004 0.13281312499999984 0.03438625
v 0.030906875000000004 0.14374999999999982 0.03438625
v -0.031593125 0.13281312499999984 0.03438625
v -0.031593125 0.14374999999999982 0.03438625
vt 0.37714125 0.00007312500000000721
vt 0.40716625 0.00007312500000000721
vt 0.40716625 0.22276312499999995
vt 0.37714125 0.22276312499999995
vt 0.307265 0.00007312500000000721
vt 0.37699375 0.00007312500000000721
vt 0.37699375 0.22276312499999995
vt 0.307265 0.22276312499999995
vt 0.407313125 0.00007312500000000721
vt 0.437338125 0.00007312500000000721
vt 0.437338125 0.22276312499999995
vt 0.407313125 0.22276312499999995
vt 0.30711875 0.22276312499999995
vt 0.23705875 0.22276312499999995
vt 0.23705875 0.00007312500000000721
vt 0.30711875 0.00007312500000000721
vt 0.23705875 0.33815375000000003
vt 0.26708375 0.33815375000000003
vt 0.26708375 0.40821375000000004
vt 0.23705875 0.40821375000000004
vt 0.30447 0.40821375000000004
vt 0.274445 0.40821375000000004
vt 0.274445 0.33815375000000003
vt 0.30447 0.33815375000000003
vt 0.232035 0.00007312500000000721
vt 0.23314375 0.00007312500000000721
vt 0.23314375 0.99962625
vt 0.232035 0.99962625
vt 0.111616875 0.00007312500000000721
vt 0.14388375 0.00007312500000000721
vt 0.14388375 0.99962625
vt 0.111616875 0.99962625
vt 0.23329125 0.00007312500000000721
vt 0.2344 0.00007312500000000721
vt 0.2344 0.99962625
vt 0.23329125 0.99962625
vt 0.175191875 0.99962625
vt 0.14403125 0.99962625
vt 0.14403125 0.00007312500000000721
vt 0.175191875 0.00007312500000000721
vt 0.273096875 0.33815375000000003
vt 0.274298125 0.33815375000000003
vt 0.274298125 0.371883125
vt 0.273096875 0.371883125
vt 0.268431875 0.371883125
vt 0.26723125 0.371883125
vt 0.26723125 0.33815375000000003
vt 0.268431875 0.33815375000000003
vt 0.234546875 0.00007312500000000721
vt 0.23565625 0.00007312500000000721
vt 0.23565625 0.99962625
vt 0.234546875 0.99962625
vt 0.204335 0.00007312500000000721
vt 0.231888125 0.00007312500000000721
vt 0.231888125 0.99962625
vt 0.204335 0.99962625
vt 0.235803125 0.00007312500000000721
vt 0.236911875 0.00007312500000000721
vt 0.236911875 0.99962625
vt 0.235803125 0.99962625
vt 0.204188125 0.99962625
vt 0.175338125 0.99962625
vt 0.175338125 0.00007312500000000721
vt 0.204188125 0.00007312500000000721
vt 0.268578125 0.33815375000000003
vt 0.26978 0.33815375000000003
vt 0.26978 0.36938125
vt 0.268578125 0.36938125
vt 0.27295125 0.36938125
vt 0.27175 0.36938125
vt 0.27175 0.33815375000000003
vt 0.27295125 0.33815375000000003
vt 0.05827875 0.00007312500000000721
vt 0.08480125 0.00007312500000000721
vt 0.08480125 0.999926875
vt 0.05827875 0.999926875
vt 0.029245 0.00007312500000000721
vt 0.058131875 0.00007312500000000721
vt 0.058131875 0.999926875
vt 0.029245 0.999926875
vt 0.084948125 0.00007312500000000721
vt 0.11147 0.00007312500000000721
vt 0.11147 0.999926875
vt 0.084948125 0.999926875
vt 0.029098125 0.999926875
vt 0.000073125 0.999926875
vt 0.000073125 0.00007312500000000721
vt 0.029098125 0.00007312500000000721
vt 0.33993875 0.33815375000000003
vt 0.366461875 0.33815375000000003
vt 0.366461875 0.36717875
vt 0.33993875 0.36717875
vt 0.39313125 0.36717875
vt 0.366608125 0.36717875
vt 0.366608125 0.33815375000000003
vt 0.39313125 0.33815375000000003
vt 0.322278125 0.423226875
vt 0.322278125 0.33815375000000003
vt 0.339793125 0.33815375000000003
vt 0.339793125 0.423226875
vt 0.442673125 0.22291000000000005
vt 0.442673125 0.337465
vt 0.425158125 0.337465
vt 0.425158125 0.22291000000000005
vt 0.304616875 0.423226875
vt 0.304616875 0.338155
vt 0.32213125 0.338155
vt 0.32213125 0.423226875
vt 0.407496875 0.338008125
vt 0.407496875 0.22291000000000005
vt 0.425011875 0.22291000000000005
vt 0.425011875 0.338008125
vt 0.23705875 0.22291000000000005
vt 0.32213125 0.22291000000000005
vt 0.32213125 0.338008125
vt 0.23705875 0.338008125
vt 0.40735125 0.338008125
vt 0.322278125 0.338008125
vt 0.322278125 0.22291000000000005
vt 0.40735125 0.22291000000000005
vn 0 0 -1
vn 1 0 0
vn 0 0 1
vn -1 0 0
vn 0 1 0
vn 0 -1 0
vn 0.33202540885807175 0 -0.9432704425946096
vn 0.8989312710482726 0 0.43808968252121283
vn -0.3320254088580709 0 0.9432704425946099
vn -0.8989312710482726 0 -0.43808968252121283
vn 0 1 0
vn 0 -1 0
vn -0.33289582541208185 0 -0.9429636098085699
vn 0.8989461022596161 0 -0.4380592485409294
vn 0.33202540885807075 0 0.9432704425946099
vn -0.8989523985992857 0 0.43804632751866673
vn 0 1 0
vn 0 -1 0
vn 0 0 -1
vn 1 0 0
vn 0 0 1
vn -1 0 0
vn 0 1 0
vn 0 -1 0
vn 0 0 -1
vn 1 0 0
vn 0 0 1
vn -1 0 0
vn 0 1 0
vn 0 -1 0
usemtl m_5aedc9e0-1dd8-5e7e-31e4-c0ebf38a5c4a
f 1/1/1 2/2/1 3/3/1 4/4/1
f 5/5/2 1/6/2 4/7/2 6/8/2
f 7/9/3 5/10/3 6/11/3 8/12/3
f 2/13/4 7/14/4 8/15/4 3/16/4
f 8/17/5 6/18/5 4/19/5 3/20/5
f 2/21/6 1/22/6 5/23/6 7/24/6
f 9/25/7 10/26/7 11/27/7 12/28/7
f 13/29/8 9/30/8 12/31/8 14/32/8
f 15/33/9 13/34/9 14/35/9 16/36/9
f 10/37/10 15/38/10 16/39/10 11/40/10
f 16/41/11 14/42/11 12/43/11 11/44/11
f 10/45/12 9/46/12 13/47/12 15/48/12
f 17/49/13 18/50/13 19/51/13 20/52/13
f 21/53/14 17/54/14 20/55/14 22/56/14
f 23/57/15 21/58/15 22/59/15 24/60/15
f 18/61/16 23/62/16 24/63/16 19/64/16
f 24/65/17 22/66/17 20/67/17 19/68/17
f 18/69/18 17/70/18 21/71/18 23/72/18
f 25/73/19 26/74/19 27/75/19 28/76/19
f 29/77/20 25/78/20 28/79/20 30/80/20
f 31/81/21 29/82/21 30/83/21 32/84/21
f 26/85/22 31/86/22 32/87/22 27/88/22
f 32/89/23 30/90/23 28/91/23 27/92/23
f 26/93/24 25/94/24 29/95/24 31/96/24
f 33/97/25 34/98/25 35/99/25 36/100/25
f 37/101/26 33/102/26 36/103/26 38/104/26
f 39/105/27 37/106/27 38/107/27 40/108/27
f 34/109/28 39/110/28 40/111/28 35/112/28
f 40/113/29 38/114/29 36/115/29 35/116/29
f 34/117/30 33/118/30 37/119/30 39/120/30